<svg xmlns="http://www.w3.org/2000/svg">
<defs>
<font id="Ruth-Script" horiz-adv-x="368" >
  <font-face 
    font-family="Ruth Script"
    font-weight="400"
    font-stretch="normal"
    units-per-em="1000"
    panose-1="0 0 5 0 0 0 0 0 0 0"
    ascent="800"
    descent="-200"
    x-height="370"
    cap-height="626"
    bbox="-724 -582 1905 888"
    underline-thickness="50"
    underline-position="-50"
    unicode-range="U+0020-U+FB00"
  />
<missing-glyph horiz-adv-x="842" 
d="M490 350q-16 11 -50 11q-27 0 -93.5 -25t-118.5 -25q-84 0 -136 58t-52 148q0 53 19 91t51.5 57t67 27t74.5 8q215 0 215 -180q0 -24 -5.5 -58.5t-5.5 -45.5q0 -40 37 -58q3 -2 3 -4t-2 -3.5t-4 -0.5zM201 409q15 0 25.5 21t14.5 54t5.5 57.5t1.5 47.5q0 33 -10 33
q-5 0 -8 -1q-10 -33 -10 -63q0 -12 11 -12q-13 -99 -26 -99q-5 0 -10 9t-10 25.5l-9 30.5t-9 34.5t-7 26.5q0 2 -1 6t-1.5 5t-1.5 3.5t-2 3.5t-2.5 2t-3 1.5t-4.5 0.5q-8 0 -30 -6q0 -24 2 -33t11 -10q-3 -47 -11 -82.5t-13 -39.5q6 -4 11 -4q26 0 26 96v16q26 -123 61 -123
zM391 473q0 18 7.5 68.5t13.5 67.5q-10 5 -15 5q-28 0 -28 -81q0 -27 3 -45l-2 -5q0 -12 14 -12q3 0 7 2zM325 456q12 0 21.5 9.5t9.5 25.5q0 10 -6 10q-4 -30 -22 -30q-2 0 -6 2q3 13 3 29q0 41 -16 41q-7 0 -10 -10q-3 3 -7 3q-13 0 -24.5 -25t-11.5 -51q0 -39 25 -39
q23 0 37 36q2 -1 7 -1zM298 529q-3 -7 -3 -20q0 -30 12 -45q-5 -19 -17 -19q-9 0 -9 19q0 16 6 37.5t11 27.5zM375 424q15 0 15 19q0 6 -2 18q-3 1 -8 1q-18 0 -18 -22q0 -16 13 -16zM628 394q-39 0 -78 -17q-2 2 -1 4.5t6.5 6t14.5 5.5q0 14 59 21q5 9 22 9q41 0 55 -25
q5 -9 0 -9q-20 26 -61 23q30 -4 30 -15q-22 7 -47 7q-12 0 -26 -2h7q42 0 43 -10q-16 2 -24 2zM739 402q-4 11 -15 18q1 1 2 1q13 0 18 -17q0 -4 -2 -4q-2 -1 -3 2zM723 373q-3 18 -9.5 26t-20.5 17q13 1 22.5 -9.5t9.5 -23.5q0 -4 -2 -10zM750 389q0 11 -2 18q-1 4 3 4
q10 -1 16 -9q1 -1 1 -2t-2 -3q-4 -3 -4 -7t11 -6l11 -2q0 -1 -2 -2q-18 -7 -26 -15q25 -6 25 -12q0 -3 -9 -3h-4q12 -10 12 -15q0 -1 -1.5 -1.5t-4 -1t-4.5 -1.5q15 -8 15 -15q0 -4 -12 -5q9 -4 9 -10q0 -3 4.5 -5.5t4.5 -4.5q0 -4 -31 6q8 -3 12 -5t9.5 -5t7 -5.5t0.5 -4.5

<glyph glyph-name="uni02A6" unicode="t&#x2019;s" horiz-adv-x="519" 
d="M286 394q-11 -34 -60 -34q-7 121 -7 162q0 74 14.5 99t54.5 25q15 0 48 -7q-29 -182 -50 -245zM420 325q0 -46 22 -125.5t22 -111.5q0 -68 -50 -116t-101 -48q-28 0 -43 15t-15 37q0 15 8 31q7 -19 30 -19q34 0 51 32t17 80q0 55 -18 157q-34 -156 -116.5 -261.5
t-153.5 -105.5q-39 0 -61.5 36t-22.5 109q0 81 32 247q-20 3 -30.5 18t-27.5 57q28 12 76 24q17 99 17 184q1 0 12 3.5t26.5 6.5t26.5 3q32 0 32 -43q0 -19 -9.5 -55t-19.5 -62l-10 -27q29 -1 44 -21.5t40 -84.5q-5 0 -14.5 0.5t-14.5 0.5q-9 0 -72 -3q-10 -80 -10 -138
q0 -125 54 -125q49 0 108 101t81 241q1 10 31 21t52 11q16 0 16 -8q-9 -32 -9 -61z" />
    <glyph glyph-name="uniA76D" unicode="i&#x2019;s" horiz-adv-x="498" 
d="M275 394q-11 -34 -60 -34q-7 121 -7 162q0 74 14.5 99t54.5 25q15 0 48 -7q-29 -182 -50 -245zM59 405q-44 0 -44 72q0 41 12 94q54 17 88 17q44 0 44 -45q0 -50 -31.5 -94t-68.5 -44zM399 325q0 -46 22 -125.5t22 -111.5q0 -68 -50 -116t-101 -48q-28 0 -43 15t-15 37
q0 15 8 31q7 -19 30 -19q34 0 51 32t17 80q0 53 -19 163q-30 -148 -109 -254t-145 -106q-36 0 -57.5 37.5t-21.5 115.5q0 82 36 223q-2 11 -5.5 23l-5.5 18.5t-2 7.5q0 10 30.5 21.5t52.5 11.5q15 0 15 -7q-2 -7 -7 -38.5t-10 -81t-5 -87.5q0 -117 46 -117q28 0 64.5 45.5
t68 124t43.5 162.5q1 10 31 21t52 11q16 0 16 -8q-9 -32 -9 -61z" />
    <glyph glyph-name="f_f" unicode="ff" horiz-adv-x="485" 
d="M444 143q-58 4 -134 -6v-1q34 -21 54 -73.5t20 -108.5q0 -78 -32 -138.5t-86 -60.5q-50 0 -50 149q0 92 16 225q-5 12 -12.5 39.5t-7.5 37.5q0 5 31 15l6 43q-77 -57 -175 -73q0 -5 -1 -8q32 -28 50.5 -89.5t18.5 -139.5t-32 -138.5t-86 -60.5q-50 0 -50 149q0 95 20 270
l-7 4q-19 9 -19 27q0 17 9 44l27 -3q9 64 21 142l19.5 126.5t8.5 64.5q40 10 64 10q68 0 68 -88q0 -90 -90 -250q105 16 162 70l19.5 129.5l17 112t5.5 46.5q29 7 52 7q47 0 47 -73q0 -71 -21 -156t-45 -143q28 5 46 5q23 0 36.5 -22t29.5 -84zM120 505q-1 0 -5.5 -22
t-11.5 -64t-12 -85q12 25 26.5 72.5t14.5 74.5q0 24 -12 24zM96 -53q0 96 -32 155q-11 -123 -11 -195q0 -58 10 -58q14 0 23.5 29t9.5 69zM338 -53q0 83 -34 131q-9 -108 -9 -171q0 -58 10 -58q14 0 23.5 29t9.5 69z" />
    <glyph glyph-name="a_a" unicode="aa" horiz-adv-x="742" 
d="M744 174q15 -8 15 -34q0 -52 -50 -121t-97 -69q-30 0 -46 21.5t-16 57.5q0 15 4 36t4 25q0 6 -3 7q-19 -72 -53.5 -110t-71.5 -38q-63 0 -73 91q-24 -50 -58 -80t-63 -30q-35 0 -48.5 25t-8.5 55.5t6.5 57t-1.5 30.5q-20 -74 -55.5 -114.5t-70.5 -40.5q-37 0 -55.5 35.5
t-18.5 93.5q0 69 23 141t69 124.5t102 52.5q29 0 43 -18t14 -45q0 -22 -9.5 -42t-24.5 -28q35 -9 47 -30.5t12 -75.5v-36q0 -73 24 -73q16 0 37.5 30.5t41.5 76.5q19 101 70 178.5t115 77.5q33 0 51.5 -25t18.5 -59q0 -37 -19.5 -64.5t-53.5 -27.5q-1 0 -3.5 0.5t-4.5 0.5
q17 36 17 82q0 34 -14 34q-33 0 -61 -89t-28 -159q0 -55 21 -55q19 0 43.5 47t36.5 118q45 -9 60.5 -30.5t16.5 -79.5q0 -40 22 -40q18 0 45 33t48 83zM99 35q22 0 50.5 66.5t37.5 151.5h-2q-4 0 -6 1q5 25 5 38q0 40 -17 40q-30 0 -59 -83.5t-29 -151.5q0 -62 20 -62z" />
    <glyph glyph-name="a_s" unicode="as" horiz-adv-x="608" 
d="M507 325q0 -46 22 -125.5t22 -111.5q0 -68 -50 -116t-101 -48q-28 0 -43 15t-15 37q0 15 8 31q7 -19 30 -19q34 0 51 32t17 80q0 46 -17 150q-25 -132 -82 -216t-108 -84q-30 0 -46 21.5t-16 57.5q0 15 4 36t4 25q0 6 -3 7q-19 -72 -53.5 -110t-71.5 -38t-56 33.5
t-19 88.5q0 67 24 139.5t70.5 125.5t99.5 53q33 0 51.5 -25t18.5 -59q0 -37 -19.5 -64.5t-53.5 -27.5q-1 0 -3.5 0.5t-4.5 0.5q17 36 17 82q0 34 -14 34q-33 0 -61.5 -82t-28.5 -150q0 -55 21 -55q19 0 43.5 47t36.5 118q45 -9 60.5 -30.5t16.5 -79.5q0 -40 22 -40
q33 0 77.5 88.5t60.5 198.5q-1 6 -1 17q1 10 31 21t52 11q16 0 16 -8q-9 -32 -9 -61z" />
    <glyph glyph-name="b_b" unicode="bb" horiz-adv-x="690" 
d="M709 145q0 -56 -49.5 -105.5t-127.5 -61.5q-47 -44 -109 -44q-44 0 -76 35t-32 83q0 5 18.5 112t37.5 247t20 223q56 -4 83.5 -19t27.5 -56q0 -25 -4 -53.5t-13 -60l-15 -51t-17.5 -53t-13.5 -38.5t0 -5l4 4q16 39 46 62.5t60 23.5q37 0 57 -43.5t20 -109.5
q0 -110 -48 -197q73 29 115 138q16 -6 16 -31zM204 388q37 0 57 -43.5t20 -109.5q0 -70 -21 -136.5t-69 -115.5t-113 -49q-44 0 -76 35t-32 83q0 5 17 104t34.5 231t18.5 215q60 18 81 0.5t21 -75.5q0 -80 -48 -224q-2 -5 0 -5l4 4q16 39 46 62.5t60 23.5zM96 2q34 0 64 94
t30 177q0 53 -22 53q-29 0 -65 -104.5t-36 -184.5q0 -10 6 -19q10 -16 23 -16zM513 326q-27 0 -61 -93t-39 -175q21 -26 60 -32q25 37 43.5 112t18.5 135q0 53 -22 53z" />
    <glyph glyph-name="b_l" unicode="bl" horiz-adv-x="577" 
d="M470 37q31 0 76 102q-23 -101 -60.5 -160.5t-71.5 -59.5q-28 0 -47 39.5t-24 117.5q-49 -80 -156 -98q-47 -44 -109 -44q-44 0 -76 35t-32 83q0 5 17 104t34.5 231t18.5 215q22 6 42 6q60 0 60 -81q0 -80 -48 -224q-2 -5 0 -5l4 4q16 39 46 62.5t60 23.5q37 0 57 -43.5
t20 -109.5q0 -110 -48 -197q69 28 110 126q4 100 21 212t44 184q11 26 48 44t70 18q43 0 43 -66q0 -70 -42.5 -185.5t-91.5 -191.5v-15q0 -127 35 -127zM498 554q-8 0 -18 -27t-21.5 -93.5t-18.5 -157.5q24 59 44 127t22 103q1 8 1 20q0 28 -9 28zM168 326q-27 0 -61 -93
t-39 -175q21 -26 60 -32q25 37 43.5 112t18.5 135q0 53 -22 53z" />
    <glyph glyph-name="b_s" unicode="bs" horiz-adv-x="585" 
d="M484 325q0 -46 22 -125.5t22 -111.5q0 -68 -50 -116t-101 -48q-28 0 -43 15t-15 37q0 15 8 31q7 -19 30 -19q34 0 51 32t17 80q0 47 -17 149q-22 -122 -80.5 -193t-146.5 -83q-45 -39 -103 -39q-44 0 -76 35t-32 83q0 5 17 104t34.5 231t18.5 215q22 6 42 6q60 0 60 -81
q0 -80 -48 -224q-2 -5 0 -5l4 4q16 39 46 62.5t60 23.5q37 0 57 -43.5t20 -109.5q0 -102 -43 -187q62 37 102.5 119t54.5 178q-1 6 -1 17q1 10 31 21t52 11q16 0 16 -8q-9 -32 -9 -61zM168 326q-27 0 -61 -93t-39 -175q21 -26 60 -32q25 37 43.5 112t18.5 135q0 53 -22 53z
" />
    <glyph glyph-name="c_c" unicode="cc" horiz-adv-x="591" 
d="M597 199q21 0 21 -33q0 -27 -15.5 -67t-42 -80t-67.5 -68.5t-86 -28.5q-55 0 -85.5 38t-36.5 100q-30 -54 -75.5 -90t-99.5 -36q-62 0 -93.5 47.5t-31.5 114.5q0 100 55 196t122 96q32 0 49 -23t17 -55q0 -38 -18 -67.5t-52 -29.5q-7 0 -10 1q18 34 18 84q0 32 -14 32
q-20 0 -44.5 -77t-24.5 -147q0 -97 55 -97q38 0 83.5 49t69.5 120q18 94 65.5 162t106.5 68q32 0 49 -23t17 -55q0 -38 -18 -67.5t-52 -29.5q-7 0 -10 1q18 34 18 84q0 32 -14 32q-16 0 -33 -36.5t-26 -88t-11.5 -103.5t11 -88.5t41.5 -36.5q40 0 90.5 61.5t71.5 140.5z" />
    <glyph glyph-name="c_l" unicode="cl" horiz-adv-x="499" 
d="M400 37q31 0 76 102q-23 -101 -60.5 -160.5t-71.5 -59.5q-53 0 -68 126q-69 -111 -166 -111q-62 0 -93.5 47.5t-31.5 114.5q0 100 55 196t122 96q32 0 49 -23t17 -55q0 -38 -18 -67.5t-52 -29.5q-7 0 -10 1q18 34 18 84q0 32 -14 32q-20 0 -44.5 -77t-24.5 -147
q0 -97 55 -97q31 0 69 34.5t65 88.5q0 4 0.5 13t0.5 14q4 99 20.5 213.5t44.5 187.5q11 26 48 44t70 18q43 0 43 -66q0 -70 -42.5 -185.5t-91.5 -191.5v-15q0 -127 35 -127zM428 554q-8 0 -18 -27t-21.5 -93.5t-18.5 -157.5q24 59 44 127t22 103q1 8 1 20q0 28 -9 28z" />
    <glyph glyph-name="c_s" unicode="cs" horiz-adv-x="532" 
d="M431 325q0 -46 22 -125.5t22 -111.5q0 -68 -50 -116t-101 -48q-28 0 -43 15t-15 37q0 15 8 31q7 -19 30 -19q34 0 51 32t17 80q0 52 -19 162q-11 -74 -40.5 -146t-83.5 -127t-119 -55q-62 0 -93.5 47.5t-31.5 114.5q0 100 55 196t122 96q32 0 49 -23t17 -55
q0 -38 -18 -67.5t-52 -29.5q-7 0 -10 1q18 34 18 84q0 32 -14 32q-20 0 -44.5 -77t-24.5 -147q0 -97 55 -97q57 0 117.5 107.5t85.5 237.5v8q1 10 31 21t52 11q16 0 16 -8q-9 -32 -9 -61z" />
    <glyph glyph-name="d_d" unicode="dd" horiz-adv-x="796" 
d="M798 174q16 -12 16 -37q0 -46 -50 -113t-99 -67q-73 0 -71 128q0 4 -1 4l-3 -3q-21 -63 -59.5 -101t-75.5 -38q-29 0 -48.5 25.5t-23.5 76.5q-24 -39 -56 -65.5t-62 -26.5q-37 0 -56 41.5t-19 86.5q0 4 -2 4l-2 -3q-17 -61 -54.5 -99t-74.5 -38q-32 0 -52.5 31t-20.5 92
q0 67 24.5 139.5t70.5 125t99 52.5q26 0 43 -17q16 111 26 241q28 7 47 7q51 0 51 -81q0 -33 -5.5 -75t-17 -91.5l-19 -80t-21.5 -79t-14 -49.5q0 -100 37 -100q18 0 41.5 25.5t45.5 67.5q20 93 70.5 162.5t113.5 69.5q23 0 39 -13q6 285 102 285q20 0 43 -10
q-24 -86 -49 -242t-25 -251q0 -90 26 -90q16 0 39.5 29.5t46.5 76.5zM105 45q30 0 64 93q-4 1 -12 7q11 18 21.5 62.5t10.5 77.5q0 44 -22 44q-26 0 -56.5 -72.5t-30.5 -158.5q0 -53 25 -53zM503 45q17 0 38.5 36t41.5 110q-7 1 -13 6q17 38 17 87q0 45 -22 45
q-26 0 -56.5 -72.5t-30.5 -158.5q0 -53 25 -53zM609 310v-1v1z" />
    <glyph glyph-name="d_s" unicode="ds" horiz-adv-x="638" 
d="M537 325q0 -46 22 -125.5t22 -111.5q0 -68 -50 -116t-101 -48q-28 0 -43 15t-15 37q0 15 8 31q7 -19 30 -19q34 0 51 32t17 80q0 47 -17 151q-25 -131 -83.5 -212.5t-112.5 -81.5q-37 0 -56 41.5t-19 86.5q0 4 -2 4l-2 -3q-17 -61 -54.5 -99t-74.5 -38q-32 0 -52.5 31
t-20.5 92q0 67 24.5 139.5t70.5 125t99 52.5q26 0 43 -17q16 111 26 241q28 7 47 7q51 0 51 -81q0 -33 -5.5 -75t-17 -91.5l-19 -80t-21.5 -79t-14 -49.5q0 -100 37 -100t82 85.5t61 195.5q-1 6 -1 17q1 10 31 21t52 11q16 0 16 -8q-9 -32 -9 -61zM105 45q30 0 64 93
q-4 1 -12 7q11 18 21.5 62.5t10.5 77.5q0 44 -22 44q-26 0 -56.5 -72.5t-30.5 -158.5q0 -53 25 -53z" />
    <glyph glyph-name="e_s" unicode="es" horiz-adv-x="532" 
d="M431 325q0 -46 22 -125.5t22 -111.5q0 -68 -50 -116t-101 -48q-28 0 -43 15t-15 37q0 15 8 31q7 -19 30 -19q34 0 51 32t17 80q0 52 -19 162q-8 -53 -26.5 -106t-47.5 -100.5t-72 -77.5t-92 -30q-65 0 -95 43.5t-30 110.5q0 101 53.5 198.5t122.5 97.5q32 0 50 -28
t18 -70q0 -64 -36.5 -116.5t-100.5 -52.5h-12v-15q0 -93 58 -93q57 0 115 100.5t83 230.5v8q1 10 31 21t52 11q16 0 16 -8q-9 -32 -9 -61zM156 339q-17 0 -35.5 -44t-28.5 -102q14 -2 21 -2q25 0 31 8q5 6 16.5 45.5t11.5 65.5q0 29 -16 29z" />
    <glyph glyph-name="eacute_s" unicode="&#xe9;s" horiz-adv-x="532" 
d="M252 570q0 -50 -37 -95.5t-70 -45.5q-13 0 -27 13q17 42 28.5 84t14.5 63l3 21q34 2 37 2q51 0 51 -42zM431 325q0 -46 22 -125.5t22 -111.5q0 -68 -50 -116t-101 -48q-28 0 -43 15t-15 37q0 15 8 31q7 -19 30 -19q34 0 51 32t17 80q0 52 -19 162q-8 -53 -26.5 -106
t-47.5 -100.5t-72 -77.5t-92 -30q-65 0 -95 43.5t-30 110.5q0 101 53.5 198.5t122.5 97.5q32 0 50 -28t18 -70q0 -64 -36.5 -116.5t-100.5 -52.5h-12v-15q0 -93 58 -93q57 0 115 100.5t83 230.5v8q1 10 31 21t52 11q16 0 16 -8q-9 -32 -9 -61zM156 339q-17 0 -35.5 -44
t-28.5 -102q14 -2 21 -2q25 0 31 8q5 6 16.5 45.5t11.5 65.5q0 29 -16 29z" />
    <glyph glyph-name="eacute_sacute" unicode="&#xe9;&#x15b;" horiz-adv-x="532" 
d="M496 580q0 -50 -37 -95.5t-70 -45.5q-13 0 -27 13q17 42 28.5 84t14.5 63l3 21q34 2 37 2q51 0 51 -42zM252 570q0 -50 -37 -95.5t-70 -45.5q-13 0 -27 13q17 42 28.5 84t14.5 63l3 21q34 2 37 2q51 0 51 -42zM440 386q-9 -32 -9 -61q0 -46 22 -125.5t22 -111.5
q0 -68 -50 -116t-101 -48q-28 0 -43 15t-15 37q0 15 8 31q7 -19 30 -19q34 0 51 32t17 80q0 52 -19 162q-8 -53 -26.5 -106t-47.5 -100.5t-72 -77.5t-92 -30q-65 0 -95 43.5t-30 110.5q0 101 53.5 198.5t122.5 97.5q32 0 50 -28t18 -70q0 -64 -36.5 -116.5t-100.5 -52.5h-12
v-15q0 -93 58 -93q57 0 115 100.5t83 230.5v8q1 10 31 21t52 11q16 0 16 -8zM156 339q-17 0 -35.5 -44t-28.5 -102q14 -2 21 -2q25 0 31 8q5 6 16.5 45.5t11.5 65.5q0 29 -16 29z" />
    <glyph glyph-name="eacute_scaron" unicode="&#xe9;&#x161;" horiz-adv-x="530" 
d="M505 630q35 0 55 -48q-32 -9 -73.5 -55.5t-58.5 -89.5q-14 -2 -18 -2q-25 0 -38 16.5t-16.5 38t-19 44.5t-44.5 33q29 49 63 49q27 0 45 -22.5t18 -58.5q11 39 36.5 67t50.5 28zM252 570q0 -50 -37 -95.5t-70 -45.5q-13 0 -27 13q17 42 28.5 84t14.5 63l3 21q34 2 37 2
q51 0 51 -42zM440 386q-9 -32 -9 -61q0 -46 22 -125.5t22 -111.5q0 -68 -50 -116t-101 -48q-28 0 -43 15t-15 37q0 15 8 31q7 -19 30 -19q34 0 51 32t17 80q0 52 -19 162q-8 -53 -26.5 -106t-47.5 -100.5t-72 -77.5t-92 -30q-65 0 -95 43.5t-30 110.5q0 101 53.5 198.5
t122.5 97.5q32 0 50 -28t18 -70q0 -64 -36.5 -116.5t-100.5 -52.5h-12v-15q0 -93 58 -93q57 0 115 100.5t83 230.5v8q1 10 31 21t52 11q16 0 16 -8zM156 339q-17 0 -35.5 -44t-28.5 -102q14 -2 21 -2q25 0 31 8q5 6 16.5 45.5t11.5 65.5q0 29 -16 29z" />
    <glyph glyph-name="ecaron_s" unicode="&#x11b;s" horiz-adv-x="530" 
d="M166 425q-25 0 -38 16.5t-16.5 38t-19 44.5t-44.5 33q29 49 63 49q27 0 45 -22.5t18 -58.5q11 39 36.5 67t50.5 28q35 0 55 -48q-32 -9 -73.5 -55.5t-58.5 -89.5q-14 -2 -18 -2zM431 325q0 -46 22 -125.5t22 -111.5q0 -68 -50 -116t-101 -48q-28 0 -43 15t-15 37
q0 15 8 31q7 -19 30 -19q34 0 51 32t17 80q0 52 -19 162q-8 -53 -26.5 -106t-47.5 -100.5t-72 -77.5t-92 -30q-65 0 -95 43.5t-30 110.5q0 101 53.5 198.5t122.5 97.5q32 0 50 -28t18 -70q0 -64 -36.5 -116.5t-100.5 -52.5h-12v-15q0 -93 58 -93q57 0 115 100.5t83 230.5v8
q1 10 31 21t52 11q16 0 16 -8q-9 -32 -9 -61zM156 339q-17 0 -35.5 -44t-28.5 -102q14 -2 21 -2q25 0 31 8q5 6 16.5 45.5t11.5 65.5q0 29 -16 29z" />
    <glyph glyph-name="ecaron_sacute" unicode="&#x11b;&#x15b;" horiz-adv-x="531" 
d="M496 580q0 -50 -37 -95.5t-70 -45.5q-13 0 -27 13q17 42 28.5 84t14.5 63l3 21q34 2 37 2q51 0 51 -42zM166 425q-25 0 -38 16.5t-16.5 38t-19 44.5t-44.5 33q29 49 63 49q27 0 45 -22.5t18 -58.5q11 39 36.5 67t50.5 28q35 0 55 -48q-32 -9 -73.5 -55.5t-58.5 -89.5
q-14 -2 -18 -2zM440 386q-9 -32 -9 -61q0 -46 22 -125.5t22 -111.5q0 -68 -50 -116t-101 -48q-28 0 -43 15t-15 37q0 15 8 31q7 -19 30 -19q34 0 51 32t17 80q0 52 -19 162q-8 -53 -26.5 -106t-47.5 -100.5t-72 -77.5t-92 -30q-65 0 -95 43.5t-30 110.5q0 101 53.5 198.5
t122.5 97.5q32 0 50 -28t18 -70q0 -64 -36.5 -116.5t-100.5 -52.5h-12v-15q0 -93 58 -93q57 0 115 100.5t83 230.5v8q1 10 31 21t52 11q16 0 16 -8zM156 339q-17 0 -35.5 -44t-28.5 -102q14 -2 21 -2q25 0 31 8q5 6 16.5 45.5t11.5 65.5q0 29 -16 29z" />
    <glyph glyph-name="ecaron_scaron" unicode="&#x11b;&#x161;" horiz-adv-x="534" 
d="M502 649q30 0 47 -48q-27 -9 -62.5 -55.5t-49.5 -89.5q-12 -2 -16 -2q-21 0 -32 16.5t-14 38t-16 44.5t-38 33q25 49 54 49q22 0 37.5 -22.5t15.5 -58.5q10 39 31.5 67t42.5 28zM167 425q-23 0 -35 16.5t-15 38t-17.5 44.5t-41.5 33q27 49 58 49q25 0 42 -22.5t17 -58.5
q10 39 33.5 67t46.5 28q33 0 51 -48q-29 -9 -68 -55.5t-54 -89.5q-14 -2 -17 -2zM440 386q-9 -32 -9 -61q0 -46 22 -125.5t22 -111.5q0 -68 -50 -116t-101 -48q-28 0 -43 15t-15 37q0 15 8 31q7 -19 30 -19q34 0 51 32t17 80q0 52 -19 162q-8 -53 -26.5 -106t-47.5 -100.5
t-72 -77.5t-92 -30q-65 0 -95 43.5t-30 110.5q0 101 53.5 198.5t122.5 97.5q32 0 50 -28t18 -70q0 -64 -36.5 -116.5t-100.5 -52.5h-12v-15q0 -93 58 -93q57 0 115 100.5t83 230.5v8q1 10 31 21t52 11q16 0 16 -8zM156 339q-17 0 -35.5 -44t-28.5 -102q14 -2 21 -2
q25 0 31 8q5 6 16.5 45.5t11.5 65.5q0 29 -16 29z" />
    <glyph glyph-name="ecircumflex_sacute" unicode="&#xea;&#x15b;" horiz-adv-x="534" 
d="M496 580q0 -50 -37 -95.5t-70 -45.5q-13 0 -27 13q17 42 28.5 84t14.5 63l3 21q34 2 37 2q51 0 51 -42zM91 426q-36 0 -56 49q32 13 56 38t34.5 47t25 38.5t32.5 16.5q16 0 37 -8q7 -52 32.5 -83t52.5 -44q-24 -47 -59 -47q-27 0 -47.5 23t-22.5 58q-10 -35 -35 -61.5
t-50 -26.5zM440 386q-9 -32 -9 -61q0 -46 22 -125.5t22 -111.5q0 -68 -50 -116t-101 -48q-28 0 -43 15t-15 37q0 15 8 31q7 -19 30 -19q34 0 51 32t17 80q0 52 -19 162q-8 -53 -26.5 -106t-47.5 -100.5t-72 -77.5t-92 -30q-65 0 -95 43.5t-30 110.5q0 101 53.5 198.5
t122.5 97.5q32 0 50 -28t18 -70q0 -64 -36.5 -116.5t-100.5 -52.5h-12v-15q0 -93 58 -93q57 0 115 100.5t83 230.5v8q1 10 31 21t52 11q16 0 16 -8zM156 339q-17 0 -35.5 -44t-28.5 -102q14 -2 21 -2q25 0 31 8q5 6 16.5 45.5t11.5 65.5q0 29 -16 29z" />
    <glyph glyph-name="ecircumflex_scaron" unicode="&#xea;&#x161;" horiz-adv-x="535" 
d="M505 630q35 0 55 -48q-32 -9 -73.5 -55.5t-58.5 -89.5q-14 -2 -18 -2q-25 0 -38 16.5t-16.5 38t-19 44.5t-44.5 33q29 49 63 49q27 0 45 -22.5t18 -58.5q11 39 36.5 67t50.5 28zM91 426q-36 0 -56 49q32 13 56 38t34.5 47t25 38.5t32.5 16.5q16 0 37 -8q7 -52 32.5 -83
t52.5 -44q-24 -47 -59 -47q-27 0 -47.5 23t-22.5 58q-10 -35 -35 -61.5t-50 -26.5zM440 386q-9 -32 -9 -61q0 -46 22 -125.5t22 -111.5q0 -68 -50 -116t-101 -48q-28 0 -43 15t-15 37q0 15 8 31q7 -19 30 -19q34 0 51 32t17 80q0 52 -19 162q-8 -53 -26.5 -106t-47.5 -100.5
t-72 -77.5t-92 -30q-65 0 -95 43.5t-30 110.5q0 101 53.5 198.5t122.5 97.5q32 0 50 -28t18 -70q0 -64 -36.5 -116.5t-100.5 -52.5h-12v-15q0 -93 58 -93q57 0 115 100.5t83 230.5v8q1 10 31 21t52 11q16 0 16 -8zM156 339q-17 0 -35.5 -44t-28.5 -102q14 -2 21 -2
q25 0 31 8q5 6 16.5 45.5t11.5 65.5q0 29 -16 29z" />
    <glyph glyph-name="edieresis_s" unicode="&#xeb;s" horiz-adv-x="530" 
d="M227 434q-35 0 -35 72q0 43 9 94q44 17 71 17q35 0 35 -45q0 -50 -25.5 -94t-54.5 -44zM89 428q-34 0 -34 70q0 42 10 90q41 17 67 17q34 0 34 -44q0 -47 -24.5 -90t-52.5 -43zM431 325q0 -46 22 -125.5t22 -111.5q0 -68 -50 -116t-101 -48q-28 0 -43 15t-15 37
q0 15 8 31q7 -19 30 -19q34 0 51 32t17 80q0 52 -19 162q-8 -53 -26.5 -106t-47.5 -100.5t-72 -77.5t-92 -30q-65 0 -95 43.5t-30 110.5q0 101 53.5 198.5t122.5 97.5q32 0 50 -28t18 -70q0 -64 -36.5 -116.5t-100.5 -52.5h-12v-15q0 -93 58 -93q57 0 115 100.5t83 230.5v8
q1 10 31 21t52 11q16 0 16 -8q-9 -32 -9 -61zM156 339q-17 0 -35.5 -44t-28.5 -102q14 -2 21 -2q25 0 31 8q5 6 16.5 45.5t11.5 65.5q0 29 -16 29z" />
    <glyph glyph-name="edieresis_sacute" unicode="&#xeb;&#x15b;" horiz-adv-x="531" 
d="M496 580q0 -50 -37 -95.5t-70 -45.5q-13 0 -27 13q17 42 28.5 84t14.5 63l3 21q34 2 37 2q51 0 51 -42zM227 434q-35 0 -35 72q0 43 9 94q44 17 71 17q35 0 35 -45q0 -50 -25.5 -94t-54.5 -44zM89 428q-34 0 -34 70q0 42 10 90q41 17 67 17q34 0 34 -44q0 -47 -24.5 -90
t-52.5 -43zM440 386q-9 -32 -9 -61q0 -46 22 -125.5t22 -111.5q0 -68 -50 -116t-101 -48q-28 0 -43 15t-15 37q0 15 8 31q7 -19 30 -19q34 0 51 32t17 80q0 52 -19 162q-8 -53 -26.5 -106t-47.5 -100.5t-72 -77.5t-92 -30q-65 0 -95 43.5t-30 110.5q0 101 53.5 198.5
t122.5 97.5q32 0 50 -28t18 -70q0 -64 -36.5 -116.5t-100.5 -52.5h-12v-15q0 -93 58 -93q57 0 115 100.5t83 230.5v8q1 10 31 21t52 11q16 0 16 -8zM156 339q-17 0 -35.5 -44t-28.5 -102q14 -2 21 -2q25 0 31 8q5 6 16.5 45.5t11.5 65.5q0 29 -16 29z" />
    <glyph glyph-name="edieresis_scaron" unicode="&#xeb;&#x161;" horiz-adv-x="534" 
d="M502 649q30 0 47 -48q-27 -9 -62.5 -55.5t-49.5 -89.5q-12 -2 -16 -2q-21 0 -32 16.5t-14 38t-16 44.5t-38 33q25 49 54 49q22 0 37.5 -22.5t15.5 -58.5q10 39 31.5 67t42.5 28zM227 434q-35 0 -35 72q0 43 9 94q44 17 71 17q35 0 35 -45q0 -50 -25.5 -94t-54.5 -44z
M89 428q-34 0 -34 70q0 42 10 90q41 17 67 17q34 0 34 -44q0 -47 -24.5 -90t-52.5 -43zM440 386q-9 -32 -9 -61q0 -46 22 -125.5t22 -111.5q0 -68 -50 -116t-101 -48q-28 0 -43 15t-15 37q0 15 8 31q7 -19 30 -19q34 0 51 32t17 80q0 52 -19 162q-8 -53 -26.5 -106
t-47.5 -100.5t-72 -77.5t-92 -30q-65 0 -95 43.5t-30 110.5q0 101 53.5 198.5t122.5 97.5q32 0 50 -28t18 -70q0 -64 -36.5 -116.5t-100.5 -52.5h-12v-15q0 -93 58 -93q57 0 115 100.5t83 230.5v8q1 10 31 21t52 11q16 0 16 -8zM156 339q-17 0 -35.5 -44t-28.5 -102
q14 -2 21 -2q25 0 31 8q5 6 16.5 45.5t11.5 65.5q0 29 -16 29z" />
    <glyph glyph-name="edotaccent_s" unicode="&#x117;s" horiz-adv-x="530" 
d="M155 431q-44 0 -44 72q0 41 12 94q54 17 88 17q44 0 44 -45q0 -50 -31.5 -94t-68.5 -44zM431 325q0 -46 22 -125.5t22 -111.5q0 -68 -50 -116t-101 -48q-28 0 -43 15t-15 37q0 15 8 31q7 -19 30 -19q34 0 51 32t17 80q0 52 -19 162q-8 -53 -26.5 -106t-47.5 -100.5
t-72 -77.5t-92 -30q-65 0 -95 43.5t-30 110.5q0 101 53.5 198.5t122.5 97.5q32 0 50 -28t18 -70q0 -64 -36.5 -116.5t-100.5 -52.5h-12v-15q0 -93 58 -93q57 0 115 100.5t83 230.5v8q1 10 31 21t52 11q16 0 16 -8q-9 -32 -9 -61zM156 339q-17 0 -35.5 -44t-28.5 -102
q14 -2 21 -2q25 0 31 8q5 6 16.5 45.5t11.5 65.5q0 29 -16 29z" />
    <glyph glyph-name="egrave_s" unicode="&#xe8;s" horiz-adv-x="530" 
d="M184 426q-33 0 -66 46t-33 97q0 45 44 45q11 0 47 -6q1 -74 33 -171q-15 -11 -25 -11zM431 325q0 -46 22 -125.5t22 -111.5q0 -68 -50 -116t-101 -48q-28 0 -43 15t-15 37q0 15 8 31q7 -19 30 -19q34 0 51 32t17 80q0 52 -19 162q-8 -53 -26.5 -106t-47.5 -100.5
t-72 -77.5t-92 -30q-65 0 -95 43.5t-30 110.5q0 101 53.5 198.5t122.5 97.5q32 0 50 -28t18 -70q0 -64 -36.5 -116.5t-100.5 -52.5h-12v-15q0 -93 58 -93q57 0 115 100.5t83 230.5v8q1 10 31 21t52 11q16 0 16 -8q-9 -32 -9 -61zM156 339q-17 0 -35.5 -44t-28.5 -102
q14 -2 21 -2q25 0 31 8q5 6 16.5 45.5t11.5 65.5q0 29 -16 29z" />
    <glyph glyph-name="egrave_sacute" unicode="&#xe8;&#x15b;" horiz-adv-x="531" 
d="M496 580q0 -50 -37 -95.5t-70 -45.5q-13 0 -27 13q17 42 28.5 84t14.5 63l3 21q34 2 37 2q51 0 51 -42zM184 426q-33 0 -66 46t-33 97q0 45 44 45q11 0 47 -6q1 -74 33 -171q-15 -11 -25 -11zM440 386q-9 -32 -9 -61q0 -46 22 -125.5t22 -111.5q0 -68 -50 -116t-101 -48
q-28 0 -43 15t-15 37q0 15 8 31q7 -19 30 -19q34 0 51 32t17 80q0 52 -19 162q-8 -53 -26.5 -106t-47.5 -100.5t-72 -77.5t-92 -30q-65 0 -95 43.5t-30 110.5q0 101 53.5 198.5t122.5 97.5q32 0 50 -28t18 -70q0 -64 -36.5 -116.5t-100.5 -52.5h-12v-15q0 -93 58 -93
q57 0 115 100.5t83 230.5v8q1 10 31 21t52 11q16 0 16 -8zM156 339q-17 0 -35.5 -44t-28.5 -102q14 -2 21 -2q25 0 31 8q5 6 16.5 45.5t11.5 65.5q0 29 -16 29z" />
    <glyph glyph-name="egrave_scaron" unicode="&#xe8;&#x161;" horiz-adv-x="535" 
d="M505 630q35 0 55 -48q-32 -9 -73.5 -55.5t-58.5 -89.5q-14 -2 -18 -2q-25 0 -38 16.5t-16.5 38t-19 44.5t-44.5 33q29 49 63 49q27 0 45 -22.5t18 -58.5q11 39 36.5 67t50.5 28zM184 426q-33 0 -66 46t-33 97q0 45 44 45q11 0 47 -6q1 -74 33 -171q-15 -11 -25 -11z
M440 386q-9 -32 -9 -61q0 -46 22 -125.5t22 -111.5q0 -68 -50 -116t-101 -48q-28 0 -43 15t-15 37q0 15 8 31q7 -19 30 -19q34 0 51 32t17 80q0 52 -19 162q-8 -53 -26.5 -106t-47.5 -100.5t-72 -77.5t-92 -30q-65 0 -95 43.5t-30 110.5q0 101 53.5 198.5t122.5 97.5
q32 0 50 -28t18 -70q0 -64 -36.5 -116.5t-100.5 -52.5h-12v-15q0 -93 58 -93q57 0 115 100.5t83 230.5v8q1 10 31 21t52 11q16 0 16 -8zM156 339q-17 0 -35.5 -44t-28.5 -102q14 -2 21 -2q25 0 31 8q5 6 16.5 45.5t11.5 65.5q0 29 -16 29z" />
    <glyph glyph-name="emacron_s" unicode="&#x113;s" horiz-adv-x="530" 
d="M92 447q-22 0 -30.5 15.5t-18.5 71.5q11 0 95 16.5t100 16.5q20 0 29.5 -22.5t18.5 -89.5q-21 0 -95 -4t-99 -4zM431 325q0 -46 22 -125.5t22 -111.5q0 -68 -50 -116t-101 -48q-28 0 -43 15t-15 37q0 15 8 31q7 -19 30 -19q34 0 51 32t17 80q0 52 -19 162
q-8 -53 -26.5 -106t-47.5 -100.5t-72 -77.5t-92 -30q-65 0 -95 43.5t-30 110.5q0 101 53.5 198.5t122.5 97.5q32 0 50 -28t18 -70q0 -64 -36.5 -116.5t-100.5 -52.5h-12v-15q0 -93 58 -93q57 0 115 100.5t83 230.5v8q1 10 31 21t52 11q16 0 16 -8q-9 -32 -9 -61zM156 339
q-17 0 -35.5 -44t-28.5 -102q14 -2 21 -2q25 0 31 8q5 6 16.5 45.5t11.5 65.5q0 29 -16 29z" />
    <glyph glyph-name="emacron_sacute" unicode="&#x113;&#x15b;" horiz-adv-x="538" 
d="M496 580q0 -50 -37 -95.5t-70 -45.5q-13 0 -27 13q17 42 28.5 84t14.5 63l3 21q34 2 37 2q51 0 51 -42zM92 447q-22 0 -30.5 15.5t-18.5 71.5q11 0 95 16.5t100 16.5q20 0 29.5 -22.5t18.5 -89.5q-21 0 -95 -4t-99 -4zM440 386q-9 -32 -9 -61q0 -46 22 -125.5t22 -111.5
q0 -68 -50 -116t-101 -48q-28 0 -43 15t-15 37q0 15 8 31q7 -19 30 -19q34 0 51 32t17 80q0 52 -19 162q-8 -53 -26.5 -106t-47.5 -100.5t-72 -77.5t-92 -30q-65 0 -95 43.5t-30 110.5q0 101 53.5 198.5t122.5 97.5q32 0 50 -28t18 -70q0 -64 -36.5 -116.5t-100.5 -52.5h-12
v-15q0 -93 58 -93q57 0 115 100.5t83 230.5v8q1 10 31 21t52 11q16 0 16 -8zM156 339q-17 0 -35.5 -44t-28.5 -102q14 -2 21 -2q25 0 31 8q5 6 16.5 45.5t11.5 65.5q0 29 -16 29z" />
    <glyph glyph-name="emacron_scaron" unicode="&#x113;&#x161;" horiz-adv-x="535" 
d="M505 630q35 0 55 -48q-32 -9 -73.5 -55.5t-58.5 -89.5q-14 -2 -18 -2q-25 0 -38 16.5t-16.5 38t-19 44.5t-44.5 33q29 49 63 49q27 0 45 -22.5t18 -58.5q11 39 36.5 67t50.5 28zM92 447q-22 0 -30.5 15.5t-18.5 71.5q11 0 95 16.5t100 16.5q20 0 29.5 -22.5t18.5 -89.5
q-21 0 -95 -4t-99 -4zM440 386q-9 -32 -9 -61q0 -46 22 -125.5t22 -111.5q0 -68 -50 -116t-101 -48q-28 0 -43 15t-15 37q0 15 8 31q7 -19 30 -19q34 0 51 32t17 80q0 52 -19 162q-8 -53 -26.5 -106t-47.5 -100.5t-72 -77.5t-92 -30q-65 0 -95 43.5t-30 110.5
q0 101 53.5 198.5t122.5 97.5q32 0 50 -28t18 -70q0 -64 -36.5 -116.5t-100.5 -52.5h-12v-15q0 -93 58 -93q57 0 115 100.5t83 230.5v8q1 10 31 21t52 11q16 0 16 -8zM156 339q-17 0 -35.5 -44t-28.5 -102q14 -2 21 -2q25 0 31 8q5 6 16.5 45.5t11.5 65.5q0 29 -16 29z" />
    <glyph glyph-name="g_g" unicode="gg" horiz-adv-x="680" 
d="M641 -12q0 -28 -42 -58q-37 -265 -186 -265q-46 0 -78.5 29t-32.5 72q0 27 13 50t44.5 44.5t54.5 33.5l72 36l25 12q9 50 19 131q1 3 -1 3t-3 -2q-13 -55 -47 -90t-70 -35q-26 0 -46.5 21.5t-28.5 63.5q-29 -29 -69 -61q-32 -308 -192 -308q-46 0 -78.5 29t-32.5 72
q0 33 15.5 62.5t45 54t61.5 45t74 44.5l20 11q6 41 12 90q1 3 -1 3t-3 -2q-13 -55 -47 -90t-70 -35q-34 0 -56.5 34.5t-22.5 103.5q0 70 27 143t74 123.5t99 50.5q33 0 51.5 -25t18.5 -59q0 -60 -41 -84q29 -9 41 -33.5t12 -82.5q0 -39 -1 -58q0 -4 -0.5 -10t-0.5 -10
q31 23 60 53q2 70 30 148.5t76 135t98 56.5q33 0 51.5 -25t18.5 -59q0 -32 -15 -58t-42 -32q37 -9 51.5 -32.5t14.5 -87.5q0 -41 -2 -79q-2 -46 -4 -69l24 16q10 -3 10 -21zM456 40q11 0 22 11t22.5 34.5t21 68.5t15.5 105h-6q-1 0 -3.5 0.5t-4.5 0.5q19 33 19 75
q0 40 -19 40q-31 0 -63 -88.5t-32 -179.5q0 -67 28 -67zM116 40q14 0 28.5 18.5t29 63t21.5 106.5h-8q-1 0 -3.5 0.5t-4.5 0.5q17 36 17 82q0 33 -17 33q-31 0 -61 -74t-30 -163q0 -67 28 -67zM73 -258q50 0 87 151q-54 -42 -82 -71t-28 -53q0 -11 6.5 -19t16.5 -8z
M413 -258q45 0 80 123q-50 -28 -76.5 -50.5t-26.5 -45.5q0 -11 6.5 -19t16.5 -8z" />
    <glyph glyph-name="h_s" unicode="hs" horiz-adv-x="608" 
d="M507 325q0 -46 22 -125.5t22 -111.5q0 -68 -50 -116t-101 -48q-28 0 -43 15t-15 37q0 15 8 31q7 -19 30 -19q34 0 51 32t17 80q0 50 -16 146q-23 -135 -76 -214.5t-116 -79.5q-77 0 -77 117q0 44 16.5 125.5t16.5 88.5q0 6 -2 6q-16 0 -57.5 -112t-64.5 -225
q-57 -12 -73 -12q-30 0 -30 28q0 4 39 235t39 344q30 7 44 7q28 0 41 -20t13 -66q0 -70 -40 -215t-40 -156q0 -2 2 -4q12 48 29 95t39.5 91t50 71.5t55.5 27.5q39 0 39 -78q0 -30 -7 -96t-7 -91q0 -59 26 -59q30 0 70 90t56 201q-1 6 -1 17q1 10 31 21t52 11q16 0 16 -8
q-9 -32 -9 -61z" />
    <glyph glyph-name="i_i" unicode="ii" horiz-adv-x="404" 
d="M265 419q-44 0 -44 72q0 41 12 94q54 17 88 17q44 0 44 -45q0 -50 -31.5 -94t-68.5 -44zM62 413q-40 0 -40 66q0 40 10 85q51 16 80 16q40 0 40 -41q0 -45 -28.5 -85.5t-61.5 -40.5zM408 174q16 -9 16 -30q0 -52 -55.5 -127t-110.5 -75q-66 0 -68 111
q-26 -46 -62.5 -78.5t-71.5 -32.5q-68 0 -68 114q0 82 36 223q-2 11 -5.5 23l-5.5 18.5t-2 7.5q0 10 30.5 21.5t52.5 11.5q15 0 15 -7q-2 -7 -7 -38.5t-10 -81t-5 -87.5q0 -89 31 -89q18 0 41.5 29t40.5 71q8 49 26 121q-2 11 -5.5 23l-5.5 18.5t-2 7.5q0 10 30.5 21.5
t52.5 11.5q15 0 15 -7q-2 -7 -7 -38.5t-10 -81t-5 -87.5q0 -89 31 -89q19 0 45.5 35t42.5 81z" />
    <glyph glyph-name="i_s" unicode="is" horiz-adv-x="429" 
d="M59 405q-44 0 -44 72q0 41 12 94q54 17 88 17q44 0 44 -45q0 -50 -31.5 -94t-68.5 -44zM328 325q0 -46 22 -125.5t22 -111.5q0 -68 -50 -116t-101 -48q-28 0 -43 15t-15 37q0 15 8 31q7 -19 30 -19q34 0 51 32t17 80q0 42 -15 141q-26 -132 -84 -215.5t-114 -83.5
q-68 0 -68 114q0 82 36 223q-2 11 -5.5 23l-5.5 18.5t-2 7.5q0 10 30.5 21.5t52.5 11.5q15 0 15 -7q-2 -7 -7 -38.5t-10 -81t-5 -87.5q0 -89 28 -89q30 0 71.5 93t52.5 192q-1 7 -1 19q1 10 31 21t52 11q16 0 16 -8q-9 -32 -9 -61z" />
    <glyph glyph-name="k_l" unicode="kl" horiz-adv-x="576" 
d="M477 37q31 0 76 102q-23 -101 -60.5 -160.5t-71.5 -59.5q-28 0 -47 39.5t-24 116.5q-24 -49 -65.5 -88t-77.5 -39q-38 0 -66.5 32.5t-39.5 68.5t-11 65q0 20 15 23q41 9 70 56t29 84q0 26 -16 26q-11 0 -26 -15.5t-31.5 -46.5t-31 -72t-25.5 -98.5t-14 -120.5
q-50 -10 -67 -10q-16 0 -22.5 7t-6.5 24q0 9 21 126t42 267t21 238q20 6 44 6q34 0 46.5 -24t12.5 -70q0 -21 -4 -48.5t-9 -50.5t-14 -55l-14 -49t-15 -47l-12 -36q-1 -4 0.5 -4.5t3.5 3.5q28 75 70 116t79 41q24 0 38.5 -17.5t14.5 -49.5q0 -60 -42 -124t-96 -88
q25 -56 69 -56q34 0 71 34.5t59 85.5q11 251 65 391q11 26 48 44t70 18q43 0 43 -66q0 -70 -42.5 -185.5t-91.5 -191.5v-15q0 -127 35 -127zM505 554q-8 0 -18 -27t-21.5 -93.5t-18.5 -157.5q24 59 44 127t22 103q1 8 1 20q0 28 -9 28z" />
    <glyph glyph-name="k_s" unicode="ks" horiz-adv-x="590" 
d="M489 325q0 -46 22 -125.5t22 -111.5q0 -68 -50 -116t-101 -48q-28 0 -43 15t-15 37q0 15 8 31q7 -19 30 -19q34 0 51 32t17 80q0 47 -17 151q-25 -134 -86 -218.5t-120 -84.5q-38 0 -66.5 32.5t-39.5 68.5t-11 65q0 20 15 23q41 9 70 56t29 84q0 26 -16 26
q-11 0 -26 -15.5t-31.5 -46.5t-31 -72t-25.5 -98.5t-14 -120.5q-50 -10 -67 -10q-16 0 -22.5 7t-6.5 24q0 9 21 126t42 267t21 238q20 6 44 6q34 0 46.5 -24t12.5 -70q0 -21 -4 -48.5t-9 -50.5t-14 -55l-14 -49t-15 -47l-12 -36q-1 -4 0.5 -4.5t3.5 3.5q28 75 70 116t79 41
q24 0 38.5 -17.5t14.5 -49.5q0 -60 -42 -124t-96 -88q25 -56 69 -56q61 0 114 93t66 201q-1 7 -1 19q1 10 31 21t52 11q16 0 16 -8q-9 -32 -9 -61z" />
    <glyph glyph-name="l_l" unicode="ll" horiz-adv-x="423" 
d="M425 174q17 -13 17 -37q0 -51 -52 -114.5t-100 -63.5q-60 0 -74 114q-22 -60 -60.5 -107t-77.5 -47q-19 0 -33 10.5t-22 26t-13 44.5t-7 56t-3 70q0 56 16 180t32 220l15 96q28 7 48 7q59 0 59 -89q0 -55 -21.5 -142.5t-42.5 -147.5l-22 -59q0 -73 12 -112.5t31 -39.5
q40 0 85 131l2 7q4 65 18 165.5t26 169.5l11 68q52 -4 70 -22.5t18 -79.5q0 -45 -15 -112.5t-30 -113.5l-15 -45q0 -61 9 -102t26 -41q20 0 45.5 29.5t47.5 80.5z" />
    <glyph glyph-name="l_s" unicode="ls" horiz-adv-x="450" 
d="M349 325q0 -46 22 -125.5t22 -111.5q0 -68 -50 -116t-101 -48q-28 0 -43 15t-15 37q0 15 8 31q7 -19 30 -19q34 0 51 32t17 80q0 50 -16 148q-26 -132 -83.5 -217t-107.5 -85q-83 0 -83 180q0 56 14 169.5t28 198.5l15 86q28 7 47 7q24 0 38 -18.5t14 -70.5
q0 -47 -18 -124t-36 -130l-18 -53q-1 -11 -1 -30q0 -104 39 -104q37 0 82 95t55 197v13q1 10 31 21t52 11q16 0 16 -8q-9 -32 -9 -61z" />
    <glyph glyph-name="m_s" unicode="ms" horiz-adv-x="810" 
d="M709 325q0 -46 22 -125.5t22 -111.5q0 -68 -50 -116t-101 -48q-28 0 -43 15t-15 37q0 15 8 31q7 -19 30 -19q34 0 51 32t17 80q0 50 -16 146q-23 -135 -76 -214.5t-117 -79.5q-78 0 -78 119q0 53 17 138t17 89q0 5 -2 5q-15 0 -54.5 -112t-60.5 -214q0 -5 -27.5 -12.5
t-49.5 -7.5q-27 0 -27 13q0 2 13.5 114t13.5 158q0 37 -8 37q-16 0 -53 -115t-53 -206q-52 -12 -72 -12q-31 0 -31 25q0 5 3 25l8.5 56.5t9.5 65.5q-21 8 -21 17l4 11q4 10 10 29t12 43.5t10 60.5t4 74v21q33 11 50 11q49 0 49 -68q0 -35 -22 -124t-22 -96q0 -2 2 -4
q30 114 70.5 198.5t83.5 84.5q54 0 54 -103q0 -56 -20 -156q-1 -4 1 -4t3 4q9 36 23 76.5t35 88.5t49 79t57 31q44 0 44 -83q0 -32 -8 -102.5t-8 -96.5q0 -56 26 -56q31 0 71 89.5t56 201.5q-1 6 -1 17q1 10 31 21t52 11q16 0 16 -8q-9 -32 -9 -61z" />
    <glyph glyph-name="n_s" unicode="ns" horiz-adv-x="626" 
d="M525 325q0 -46 22 -125.5t22 -111.5q0 -68 -50 -116t-101 -48q-28 0 -43 15t-15 37q0 15 8 31q7 -19 30 -19q34 0 51 32t17 80q0 50 -16 146q-23 -135 -76 -214.5t-117 -79.5q-78 0 -78 119q0 53 17 144t17 95q0 5 -2 5q-16 0 -57 -123t-65 -240q-52 -12 -72 -12
q-31 0 -31 25q0 6 3 27t9 58t10 68q-21 8 -21 17q0 1 3.5 11t9 27.5t11 39.5t9 52.5t3.5 60.5v20q33 11 50 11q49 0 49 -68q0 -28 -20 -105.5t-20 -86.5q0 -2 2 -4q13 52 29 100.5t38 99t49 81t55 30.5q44 0 44 -86q0 -30 -8 -106.5t-8 -101.5q0 -56 26 -56q31 0 71 91
t56 200q-1 6 -1 17q1 10 31 21t52 11q16 0 16 -8q-9 -32 -9 -61z" />
    <glyph glyph-name="o_m" unicode="om" horiz-adv-x="870" 
d="M875 176q18 -4 18 -36q0 -56 -45.5 -122t-106.5 -66q-78 0 -78 119q0 53 17 138t17 89q0 5 -2 5q-15 0 -54.5 -112t-60.5 -214q0 -5 -27.5 -12.5t-49.5 -7.5q-27 0 -27 13q0 2 13.5 114t13.5 158q0 37 -8 37q-16 0 -53.5 -117.5t-53.5 -209.5q-52 -12 -72 -12
q-35 0 -31 25q3 21 12 71.5t13.5 78t9 61.5t4.5 53q0 25 -12 25q-10 0 -37 -16t-41 -21q-3 -67 -20.5 -127t-54 -103.5t-84.5 -43.5q-47 0 -69 39t-22 102q0 95 41 187.5t90 92.5q16 0 25 -12q10 40 39 40q25 0 39.5 -35t16.5 -91q17 10 44.5 34t51 39.5t44.5 15.5
q44 0 44 -59q0 -36 -19 -112t-19 -87q0 -2 2 -4q30 114 70.5 198.5t83.5 84.5q54 0 54 -103q0 -56 -20 -156q-1 -4 1 -4t3 4q9 36 23 76.5t35 88.5t49 79t57 31q44 0 44 -83q0 -32 -8 -102.5t-8 -96.5q0 -56 26 -56q34 0 82 122zM107 31q26 0 49.5 43.5t32.5 134.5
q-25 4 -39.5 34.5t-14.5 68.5q0 17 3 32q-18 -16 -41 -99.5t-23 -144.5q0 -69 33 -69z" />
    <glyph glyph-name="o_n" unicode="on" horiz-adv-x="685" 
d="M690 176q18 -4 18 -36q0 -56 -45.5 -122t-106.5 -66q-78 0 -78 119q0 53 17 144t17 95q0 5 -2 5q-16 0 -57 -123t-65 -240q-52 -12 -72 -12q-35 0 -31 25q3 21 12 71.5t13.5 78t9 61.5t4.5 53q0 25 -12 25q-10 0 -37 -16t-41 -21q-3 -67 -20.5 -127t-54 -103.5
t-84.5 -43.5q-47 0 -69 39t-22 102q0 95 41 187.5t90 92.5q16 0 25 -12q10 40 39 40q25 0 39.5 -35t16.5 -91q17 10 44.5 34t51 39.5t44.5 15.5q44 0 44 -59q0 -36 -19 -112t-19 -87q0 -2 2 -4q13 52 29 100.5t38 99t49 81t55 30.5q44 0 44 -86q0 -30 -8 -106.5t-8 -101.5
q0 -56 26 -56q34 0 82 122zM107 31q26 0 49.5 43.5t32.5 134.5q-25 4 -39.5 34.5t-14.5 68.5q0 17 3 32q-18 -16 -41 -99.5t-23 -144.5q0 -69 33 -69z" />
    <glyph glyph-name="oacute_n" unicode="&#xf3;n" horiz-adv-x="685" 
d="M274 570q0 -50 -37 -95.5t-70 -45.5q-13 0 -27 13q17 42 28.5 84t14.5 63l3 21q34 2 37 2q51 0 51 -42zM690 176q18 -4 18 -36q0 -56 -45.5 -122t-106.5 -66q-78 0 -78 119q0 53 17 144t17 95q0 5 -2 5q-16 0 -57 -123t-65 -240q-52 -12 -72 -12q-35 0 -31 25
q3 21 12 71.5t13.5 78t9 61.5t4.5 53q0 25 -12 25q-10 0 -37 -16t-41 -21q-3 -67 -20.5 -127t-54 -103.5t-84.5 -43.5q-47 0 -69 39t-22 102q0 95 41 187.5t90 92.5q16 0 25 -12q10 40 39 40q25 0 39.5 -35t16.5 -91q17 10 44.5 34t51 39.5t44.5 15.5q44 0 44 -59
q0 -36 -19 -112t-19 -87q0 -2 2 -4q13 52 29 100.5t38 99t49 81t55 30.5q44 0 44 -86q0 -30 -8 -106.5t-8 -101.5q0 -56 26 -56q34 0 82 122zM107 31q26 0 49.5 43.5t32.5 134.5q-25 4 -39.5 34.5t-14.5 68.5q0 17 3 32q-18 -16 -41 -99.5t-23 -144.5q0 -69 33 -69z" />
    <glyph glyph-name="o_o" unicode="oo" horiz-adv-x="620" 
d="M639 237q9 0 15.5 -10.5t6.5 -27.5q0 -57 -34.5 -92.5t-79.5 -35.5q-16 0 -27 4q-23 -63 -60 -97.5t-75 -34.5q-47 0 -69 39t-22 102q0 28 5 66q-21 -12 -46 -12q-9 0 -25 2q-16 -97 -60.5 -153t-92.5 -56q-40 0 -65.5 39.5t-25.5 113.5q0 94 35 169.5t85 75.5
q20 0 28 -18q-16 0 -37 -72t-21 -139q0 -76 31 -76q21 0 45.5 37.5t38.5 96.5q-55 41 -55 133q0 41 13 71t32 30q23 0 40 -39.5t17 -112.5q0 -18 -2 -48q5 -5 18 -5q28 0 60 21q19 67 49.5 111.5t63.5 44.5q13 0 21 -8q15 52 42 52q24 0 41 -44t17 -124q0 -54 -10 -106
q10 -8 21 -8q26 0 49.5 29.5t32.5 81.5zM417 31q18 0 36 20t29 51q-47 54 -47 164q0 40 6 68q-19 -30 -38 -104.5t-19 -129.5q0 -69 33 -69z" />
    <glyph glyph-name="o_p" unicode="op" horiz-adv-x="679" 
d="M557 389q38 0 57 -35.5t19 -95.5q0 -105 -49.5 -204t-119.5 -99q-18 0 -30 10.5t-12 26.5q0 11 5 21q8 -7 19 -7q38 0 71 112q32 106 25 178q-3 34 -17 34q-27 0 -59 -66t-53 -184q0 -74 -6.5 -138t-20 -123t-40 -93t-62.5 -34q-29 0 -29 15q47 59 56 285q1 33 4 146
q-47 -57 -98 -57h-5q-22 -66 -60 -102t-77 -36q-47 0 -69 39t-22 102q0 95 41 187.5t90 92.5q16 0 24 -11q16 39 40 39q23 0 40 -39.5t17 -112.5q0 -51 -8 -97h2q19 0 44 14.5t43 43.5q4 151 24 238t72 103q10 3 20 3q47 0 47 -61q0 -77 -70 -226q0 -23 1 -34
q22 76 63.5 120.5t82.5 44.5zM426 476q-19 0 -19 -101v-30q24 81 24 117q0 14 -5 14zM107 31q17 0 35 19t29 49q-46 43 -46 167q0 38 9 74q-18 -24 -39 -103t-21 -137q0 -69 33 -69z" />
    <glyph glyph-name="o_r" unicode="or" horiz-adv-x="597" 
d="M602 176q15 -12 15 -37q0 -55 -57 -120.5t-117 -65.5q-70 0 -70 82q0 63 33.5 152.5t51.5 110.5q-10 0 -82 -28q-17 -119 -56 -170.5t-83 -51.5q-19 0 -34 9q-24 -55 -58.5 -84.5t-69.5 -29.5q-47 0 -69 39t-22 102q0 95 41 187.5t90 92.5q16 0 24 -11q16 39 40 39
q23 0 40 -39.5t17 -112.5q0 -64 -13 -122q6 -8 15 -8q22 0 48 40.5t43 111.5q-23 17 -49 105q29 8 95.5 21.5t90.5 13.5q11 0 31.5 -32.5t20.5 -52.5q-9 -12 -20 -68.5t-11 -104.5q0 -80 30 -80q17 0 40 30t45 82zM107 31q16 0 32.5 16.5t27.5 43.5q-42 63 -42 175
q0 38 9 74q-18 -24 -39 -103t-21 -137q0 -69 33 -69z" />
    <glyph glyph-name="o_s" unicode="os" horiz-adv-x="550" 
d="M449 325q0 -46 22 -125.5t22 -111.5q0 -68 -50 -116t-101 -48q-28 0 -43 15t-15 37q0 15 8 31q7 -19 30 -19q34 0 51 32t17 80q0 52 -16 146q-19 -106 -57.5 -152t-79.5 -46q-19 0 -34 9q-24 -55 -58.5 -84.5t-69.5 -29.5q-47 0 -69 39t-22 102q0 95 41 187.5t90 92.5
q16 0 24 -11q16 39 40 39q23 0 40 -39.5t17 -112.5q0 -64 -13 -122q6 -8 15 -8q30 0 68.5 65.5t53.5 169.5q-1 6 -1 17q1 10 31 21t52 11q16 0 16 -8q-9 -32 -9 -61zM107 31q16 0 32.5 16.5t27.5 43.5q-42 63 -42 175q0 38 9 74q-18 -24 -39 -103t-21 -137q0 -69 33 -69z
" />
    <glyph glyph-name="o_x" unicode="ox" horiz-adv-x="671" 
d="M684 199q20 0 20 -30q0 -37 -26 -88.5t-75.5 -94t-102.5 -42.5q-70 0 -100 79q-92 -132 -100 -166q-16 0 -24 6.5t-9.5 12.5t-1.5 15q0 45 117 216q-3 27 -4.5 61.5t-2 52t-3.5 19.5q-19 -102 -57 -147t-78 -45q-19 0 -34 9q-24 -55 -58.5 -84.5t-69.5 -29.5
q-47 0 -69 39t-22 102q0 95 41 187.5t90 92.5q16 0 24 -11q16 39 40 39q23 0 40 -39.5t17 -112.5q0 -64 -13 -122q6 -8 15 -8q31 0 67.5 66.5t48.5 179.5q1 9 30 20.5t46 11.5q5 0 7 -2t2 -4v-9v-5q0 -111 8 -166q120 171 134 218q20 5 29 5q18 0 18 -19q0 -61 -160 -288
q27 -66 81 -66q38 0 73 35t62 112zM107 31q16 0 32.5 16.5t27.5 43.5q-42 63 -42 175q0 38 9 74q-18 -24 -39 -103t-21 -137q0 -69 33 -69z" />
    <glyph glyph-name="o_z" unicode="o&#x7a;" horiz-adv-x="635" 
d="M603 -105q0 -8 -1 -12q-4 0 -11 -0.5t-10 -0.5q-8 -86 -87 -155t-202 -69q-66 0 -111 34t-45 90q0 42 59 76t135.5 51t153.5 21q-14 41 -65 41q-30 0 -75 -18q-22 15 -22 40q0 31 89.5 147t98.5 138q-68 -18 -136 -26q-18 -110 -56.5 -157t-80.5 -47q-19 0 -34 9
q-24 -55 -58.5 -84.5t-69.5 -29.5q-47 0 -69 39t-22 102q0 95 41 187.5t90 92.5q16 0 24 -11q16 39 40 39q23 0 40 -39.5t17 -112.5q0 -64 -13 -122q6 -8 15 -8q22 0 49.5 37t45.5 102q-8 1 -13.5 7t-10 17t-7.5 22.5l-8 30.5t-10 33q196 28 245 28q12 0 34 -43t22 -63
q0 -23 -36.5 -76t-82.5 -110.5t-56 -74.5q16 4 37 4q58 0 92 -28t41 -73q23 -9 23 -28zM107 31q16 0 32.5 16.5t27.5 43.5q-42 63 -42 175q0 38 9 74q-18 -24 -39 -103t-21 -137q0 -69 33 -69zM280 -252q79 0 132 37t70 87q-87 -11 -147.5 -29.5t-85.5 -36t-25 -33.5
q0 -25 56 -25z" />
    <glyph glyph-name="r_l" unicode="rl" horiz-adv-x="512" 
d="M504 564q-4 -90 -43.5 -200.5t-88.5 -185.5q-4 -136 37 -136q33 0 75 97q8 -8 8 -17q-2 -50 -46.5 -122.5t-92.5 -72.5q-60 0 -71 137q-26 -46 -67 -78.5t-82 -32.5q-70 0 -70 82q0 63 33.5 152.5t51.5 110.5q-11 0 -81 -27q-16 -85 -45.5 -153t-58.5 -68q-6 0 -13.5 5
t-7.5 11q52 68 77 196q-23 17 -49 105q29 8 95.5 21.5t90.5 13.5q11 0 31.5 -32.5t20.5 -52.5q-9 -12 -20 -68.5t-11 -104.5q0 -80 30 -80q33 0 74 87v8q4 99 20.5 213.5t44.5 187.5q11 26 48 44t70 18q27 0 34 -12t6 -46zM436 554q-7 0 -16 -27t-20.5 -91.5t-19.5 -153.5
q24 57 43 123t21 101q6 48 -8 48z" />
    <glyph glyph-name="r_r" unicode="rr" horiz-adv-x="574" 
d="M579 176q15 -12 15 -37q0 -76 -59 -139.5t-116 -63.5q-31 0 -50 24t-19 75q0 64 33.5 170.5t48.5 125.5q-9 0 -80 -25q-1 -56 -15.5 -116.5t-40 -115.5t-67.5 -90t-93 -35q-33 0 -53 22.5t-20 63.5q0 63 33.5 152.5t51.5 110.5q-11 0 -81 -27q-16 -85 -45.5 -153
t-58.5 -68q-6 0 -13.5 5t-7.5 11q52 68 77 196q-23 17 -49 105q29 8 95.5 21.5t90.5 13.5q11 0 31.5 -32.5t20.5 -52.5q-9 -12 -20 -68.5t-11 -104.5q0 -80 30 -80q29 0 59 71t43 156q-11 -3 -14 -3q-14 0 -36 41.5t-35 80.5q62 10 147 10q69 0 90 -8q7 -3 18.5 -26
t11.5 -39q-28 -93 -28 -197q0 -95 34 -95q21 0 45 35.5t37 85.5z" />
    <glyph glyph-name="racute_r" unicode="&#x155;r" horiz-adv-x="574" 
d="M198 583q0 -50 -37 -95.5t-70 -45.5q-13 0 -27 13q17 42 28.5 84t14.5 63l3 21q34 2 37 2q51 0 51 -42zM579 176q15 -12 15 -37q0 -76 -59 -139.5t-116 -63.5q-31 0 -50 24t-19 75q0 64 33.5 170.5t48.5 125.5q-9 0 -80 -25q-1 -56 -15.5 -116.5t-40 -115.5t-67.5 -90
t-93 -35q-33 0 -53 22.5t-20 63.5q0 63 33.5 152.5t51.5 110.5q-11 0 -81 -27q-16 -85 -45.5 -153t-58.5 -68q-6 0 -13.5 5t-7.5 11q52 68 77 196q-23 17 -49 105q29 8 95.5 21.5t90.5 13.5q11 0 31.5 -32.5t20.5 -52.5q-9 -12 -20 -68.5t-11 -104.5q0 -80 30 -80
q29 0 59 71t43 156q-11 -3 -14 -3q-14 0 -36 41.5t-35 80.5q62 10 147 10q69 0 90 -8q7 -3 18.5 -26t11.5 -39q-28 -93 -28 -197q0 -95 34 -95q21 0 45 35.5t37 85.5z" />
    <glyph glyph-name="r_s" unicode="rs" horiz-adv-x="527" 
d="M426 325q0 -46 22 -125.5t22 -111.5q0 -68 -50 -116t-101 -48q-28 0 -43 15t-15 37q0 15 8 31q7 -19 30 -19q34 0 51 32t17 80q0 46 -17 150q-25 -135 -87 -216t-130 -81q-70 0 -70 82q0 63 33.5 152.5t51.5 110.5q-11 0 -81 -27q-16 -85 -45.5 -153t-58.5 -68
q-6 0 -13.5 5t-7.5 11q52 68 77 196q-23 17 -49 105q29 8 95.5 21.5t90.5 13.5q11 0 31.5 -32.5t20.5 -52.5q-9 -12 -20 -68.5t-11 -104.5q0 -80 30 -80q33 0 73.5 86.5t56.5 194.5q-1 6 -1 17q1 10 31 21t52 11q16 0 16 -8q-9 -32 -9 -61z" />
    <glyph glyph-name="t_h" unicode="th" horiz-adv-x="550" 
d="M554 176q18 -4 18 -36q0 -56 -45.5 -122t-106.5 -66q-77 0 -77 117q0 44 16.5 125.5t16.5 88.5q0 6 -2 6q-16 0 -57.5 -112t-64.5 -225q-57 -12 -73 -12q-30 0 -30 28q0 12 10.5 76.5l27.5 167.5t27 182q-54 -4 -96 -9q-40 -393 -39 -472q0 -14 2 -18l-20 -1
q-80 0 -83 77q-1 80 61 407h-14q-33 0 -43.5 12.5t-22.5 54.5q-3 9 -4 14l105 20q14 63 19 75q3 11 18.5 21t28.5 15l14 4l-11 -104q60 10 98 13q7 81 7 121q30 7 44 7q28 0 41 -20t13 -66q0 -11 -2 -35h27q31 0 44 -20t33 -86q-65 0 -119 -3q-11 -54 -29 -126.5l-29.5 -119
t-11.5 -58.5q0 -2 2 -4q12 48 29 95t39.5 91t50 71.5t55.5 27.5q39 0 39 -78q0 -30 -7 -96t-7 -91q0 -59 26 -59q34 0 82 122z" />
    <glyph glyph-name="t_l" unicode="tl" horiz-adv-x="461" 
d="M354 37q31 0 76 102q-23 -101 -60.5 -160.5t-71.5 -59.5q-27 0 -46 37.5t-24 112.5q-31 -57 -79.5 -98.5t-94.5 -41.5q-65 0 -65 106q0 81 32 247q-20 3 -30.5 18t-27.5 57q28 12 76 24q17 99 17 184q1 0 12 3.5t26.5 6.5t26.5 3q32 0 32 -43q0 -19 -9.5 -55t-19.5 -62
l-10 -27q29 -1 44 -21.5t40 -84.5q-5 0 -14.5 0.5t-14.5 0.5q-9 0 -72 -3q-10 -80 -10 -138q0 -104 38 -104q23 0 53 39t50 92q11 248 64 388q11 26 48 44t70 18q43 0 43 -66q0 -70 -42.5 -185.5t-91.5 -191.5v-15q0 -127 35 -127zM382 554q-8 0 -18 -27t-21.5 -93.5
t-18.5 -157.5q24 59 44 127t22 103q1 8 1 20q0 28 -9 28z" />
    <glyph glyph-name="t_s" unicode="ts" horiz-adv-x="466" 
d="M365 325q0 -46 22 -125.5t22 -111.5q0 -68 -50 -116t-101 -48q-28 0 -43 15t-15 37q0 15 8 31q7 -19 30 -19q34 0 51 32t17 80q0 46 -17 150q-27 -142 -93 -231.5t-142 -89.5q-65 0 -65 106q0 81 32 247q-20 3 -30.5 18t-27.5 57q28 12 76 24q17 99 17 184q1 0 12 3.5
t26.5 6.5t26.5 3q32 0 32 -43q0 -19 -9.5 -55t-19.5 -62l-10 -27q29 -1 44 -21.5t40 -84.5q-5 0 -14.5 0.5t-14.5 0.5q-9 0 -72 -3q-10 -80 -10 -138q0 -104 38 -104q41 0 87.5 96t63.5 208q-1 6 -1 17q1 10 31 21t52 11q16 0 16 -8q-9 -32 -9 -61z" />
    <glyph glyph-name="t_t" unicode="tt" horiz-adv-x="432" 
d="M437 192q21 -11 21 -37q0 -62 -68.5 -144t-135.5 -82q-65 0 -65 106q0 19 1 29q-26 -52 -61.5 -81.5t-70.5 -29.5q-31 0 -50 26.5t-19 78.5q0 56 30 214q-20 8 -31 32t-22 73q27 0 74 5q15 87 15 144q28 7 53 7q33 0 33 -40q0 -19 -7 -44.5t-14 -41.5l-7 -16
q120 14 131 15q17 109 17 182q1 0 11.5 3t25.5 5.5t26 2.5q32 0 32 -43q0 -46 -35 -145h6q15 0 26 -7t18 -23.5t11 -29t10.5 -38.5l9.5 -38q-52 2 -81 2h-25q-9 -69 -9 -132q0 -104 38 -104q26 0 60 46t52 105zM119 58q22 0 49.5 50.5t47.5 132.5l6 34q-27 -1 -72.5 -2.5
t-54.5 -1.5q-8 -59 -8 -113q0 -100 32 -100z" />
    <glyph glyph-name="u_s" unicode="us" horiz-adv-x="615" 
d="M514 325q0 -46 22 -125.5t22 -111.5q0 -68 -50 -116t-101 -48q-28 0 -43 15t-15 37q0 15 8 31q7 -19 30 -19q34 0 51 32t17 80q0 46 -17 152q-27 -138 -90.5 -227.5t-123.5 -89.5q-50 0 -50 67q0 20 6 59.5t6 40.5q1 4 -3 6q-22 -84 -58.5 -129.5t-72.5 -45.5
q-66 0 -66 114q0 75 35 231l-14 40q0 9 29.5 22.5t51.5 13.5q20 0 20 -13q-29 -177 -29 -243q0 -56 22 -56q12 0 28 29.5t36 105.5t34 185q22 8 42 8q37 0 37 -37q0 -8 -8 -75t-8 -116q0 -91 27 -91q31 0 75.5 93.5t60.5 200.5q-1 6 -1 17q1 10 31 21t52 11q16 0 16 -8
q-9 -32 -9 -61z" />
    <glyph glyph-name="u_u" unicode="uu" horiz-adv-x="748" 
d="M753 174q15 -7 15 -32q0 -57 -56.5 -142t-112.5 -85q-51 0 -51 71q0 27 6 68t6 46t-2 7q-23 -84 -59 -129t-72 -45q-66 0 -66 114v1q-27 -48 -64 -80.5t-73 -32.5q-50 0 -50 67q0 20 6 59.5t6 40.5v2q0 2 -3 4q-22 -85 -58.5 -130t-72.5 -45q-66 0 -66 114q0 75 35 231
l-14 40q0 9 29.5 22.5t51.5 13.5q20 0 20 -13q-29 -177 -29 -243q0 -56 22 -56q12 0 28 29.5t36 105.5t34 185q22 8 42 8q37 0 37 -37q0 -8 -8 -75t-8 -116q0 -91 27 -91q31 0 83 109q5 33 19 101q-8 62 -8 70q0 9 29.5 22.5t51.5 13.5q20 0 20 -13q-30 -184 -30 -248
t22 -64q12 0 28 29.5t36 105.5t34 185q22 8 42 8q37 0 37 -37q0 -8 -8 -75t-8 -116q0 -93 27 -93q33 0 89 125z" />
    <glyph glyph-name="v_e" unicode="ve" horiz-adv-x="626" 
d="M634 199q21 0 21 -33q0 -27 -14 -63t-38.5 -71t-64.5 -59.5t-86 -24.5q-58 0 -89 37t-36 98q-20 -2 -31 -2q-30 0 -56 12q-25 -74 -65.5 -115.5t-81.5 -41.5q-42 0 -69 44.5t-27 128.5q0 65 18.5 134.5t40.5 98.5q4 5 29 16t37 11q6 0 6 -4q-13 -38 -25.5 -105.5
t-12.5 -130.5q0 -46 12 -69.5t30 -23.5t37.5 24t31.5 66q-29 42 -29 116q0 69 17.5 112t39.5 43q17 0 28 -30t11 -89q0 -74 -14 -135q10 -14 35 -14q14 0 38 4q8 103 65 188.5t122 85.5q60 0 60 -60q0 -52 -44 -119t-109 -108q4 -97 59 -97q41 0 88.5 53t65.5 123zM498 346
q-22 0 -43 -47.5t-30 -109.5q37 34 60.5 75.5t23.5 65.5q0 16 -11 16z" />
    <glyph glyph-name="v_l" unicode="vl" horiz-adv-x="572" 
d="M465 37q31 0 76 102q-23 -101 -60.5 -160.5t-71.5 -59.5q-31 0 -51 48.5t-21 144.5q-32 -29 -69 -29q-16 0 -29 6q-25 -72 -65.5 -112.5t-80.5 -40.5q-42 0 -69 44.5t-27 128.5q0 65 18.5 134.5t40.5 98.5q4 5 29 16t37 11q6 0 6 -4q-13 -38 -25.5 -105.5t-12.5 -130.5
q0 -46 12 -69.5t30 -23.5t36.5 22.5t31.5 62.5q-30 42 -30 116q0 69 18.5 114.5t40.5 45.5q17 0 28 -30t11 -89q0 -68 -13 -131q8 -7 21 -7q37 0 63 51q15 241 64 369q11 26 48 44t70 18q43 0 43 -66q0 -70 -42.5 -185.5t-91.5 -191.5v-15q0 -127 35 -127zM493 554
q-8 0 -18 -27t-21.5 -93.5t-18.5 -157.5q24 59 44 127t22 103q1 8 1 20q0 28 -9 28z" />
    <glyph glyph-name="v_r" unicode="vr" horiz-adv-x="624" 
d="M629 176q15 -12 15 -37q0 -55 -57 -120.5t-117 -65.5q-70 0 -70 82q0 63 33.5 152.5t51.5 110.5q-11 0 -86 -29q-29 -186 -131 -186q-16 0 -29 6q-25 -72 -65.5 -112.5t-80.5 -40.5q-42 0 -69 44.5t-27 128.5q0 65 18.5 134.5t40.5 98.5q4 5 29 16t37 11q6 0 6 -4
q-13 -38 -25.5 -105.5t-12.5 -130.5q0 -46 12 -69.5t30 -23.5t36.5 22.5t31.5 62.5q-30 42 -30 116q0 69 18.5 114.5t40.5 45.5q17 0 28 -30t11 -89q0 -67 -13 -129q15 -8 32.5 -3t37.5 35.5t33 78.5q-25 18 -51 107q29 8 95.5 21.5t90.5 13.5q11 0 31.5 -32.5t20.5 -52.5
q-9 -12 -20 -68.5t-11 -104.5q0 -80 30 -80q17 0 40 30t45 82z" />
    <glyph glyph-name="v_s" unicode="vs" horiz-adv-x="577" 
d="M476 325q0 -46 22 -125.5t22 -111.5q0 -68 -50 -116t-101 -48q-28 0 -43 15t-15 37q0 15 8 31q7 -19 30 -19q34 0 51 32t17 80q0 47 -17 149q-10 -52 -27 -87.5t-37 -51t-35.5 -21.5t-32.5 -6q-16 0 -29 6q-25 -72 -65.5 -112.5t-80.5 -40.5q-42 0 -69 44.5t-27 128.5
q0 65 18.5 134.5t40.5 98.5q4 5 29 16t37 11q6 0 6 -4q-13 -38 -25.5 -105.5t-12.5 -130.5q0 -46 12 -69.5t30 -23.5t36.5 22.5t31.5 62.5q-30 42 -30 116q0 69 18.5 114.5t40.5 45.5q17 0 28 -30t11 -89q0 -67 -13 -129q11 -6 25.5 -6.5t30.5 14t30.5 36.5t27 62t18.5 89
q-1 6 -1 18q1 10 31 21t52 11q16 0 16 -8q-9 -32 -9 -61z" />
    <glyph glyph-name="v_x" unicode="vx" horiz-adv-x="698" 
d="M711 199q20 0 20 -30q0 -37 -26 -88.5t-75.5 -94t-102.5 -42.5q-72 0 -102 76q-90 -130 -98 -163q-16 0 -24 6.5t-9.5 12.5t-1.5 15q0 47 115 213q-3 27 -3.5 61.5t-1 52.5t-3.5 19q-35 -154 -131 -154q-16 0 -29 6q-25 -72 -65.5 -112.5t-80.5 -40.5q-42 0 -69 44.5
t-27 128.5q0 65 18.5 134.5t40.5 98.5q4 5 29 16t37 11q6 0 6 -4q-13 -38 -25.5 -105.5t-12.5 -130.5q0 -46 12 -69.5t30 -23.5t36.5 22.5t31.5 62.5q-30 42 -30 116q0 69 18.5 114.5t40.5 45.5q17 0 28 -30t11 -89q0 -67 -13 -129q11 -6 24.5 -6t29.5 15.5t29.5 39
t25.5 64.5t17 91v3q0 9 29.5 20.5t46.5 11.5q5 0 7 -2t2 -4v-9v-5q0 -111 8 -166q120 171 134 218q20 5 29 5q18 0 18 -19q0 -61 -160 -288q27 -66 81 -66q38 0 73 35t62 112z" />
    <glyph glyph-name="v_z" unicode="v&#x7a;" horiz-adv-x="662" 
d="M630 -105q0 -8 -1 -12q-3 0 -10 -0.5t-11 -0.5q-8 -86 -87 -155t-202 -69q-66 0 -111 34t-45 90q0 42 59 76t135.5 51t153.5 21q-14 41 -65 41q-30 0 -75 -18q-22 15 -22 40q0 31 89.5 147t98.5 138q-78 -20 -142 -27q-32 -168 -127 -168q-16 0 -29 6
q-25 -72 -65.5 -112.5t-80.5 -40.5q-42 0 -69 44.5t-27 128.5q0 65 18.5 134.5t40.5 98.5q4 5 29 16t37 11q6 0 6 -4q-13 -38 -25.5 -105.5t-12.5 -130.5q0 -46 12 -69.5t30 -23.5t36.5 22.5t31.5 62.5q-30 42 -30 116q0 69 18.5 114.5t40.5 45.5q17 0 28 -30t11 -89
q0 -64 -12 -129q22 -16 54 11t49 89q-12 3 -18.5 14.5t-15.5 46.5t-14 49q196 28 245 28q12 0 34 -43t22 -63q0 -23 -36.5 -76t-82.5 -110.5t-56 -74.5q16 4 37 4q58 0 92 -28t41 -73q23 -9 23 -28zM307 -252q79 0 132 37t70 87q-87 -11 -147.5 -29.5t-85.5 -36t-25 -33.5
q0 -25 56 -25z" />
    <glyph glyph-name="w_e" unicode="we" horiz-adv-x="781" 
d="M789 199q21 0 21 -33q0 -27 -14 -63t-38.5 -71t-64.5 -59.5t-86 -24.5q-58 0 -88.5 37t-36.5 98q-20 -2 -31 -2q-31 0 -56 12q-47 -138 -127 -138q-74 0 -74 113q0 32 8 93q1 4 -1 5l-3 -5q-55 -216 -133 -216q-77 0 -77 141q0 67 18 135.5t43 107.5q5 8 29 18t37 10
q7 0 7 -4q-16 -44 -28.5 -116.5t-12.5 -124.5q0 -61 19 -61q14 0 31 31t36 103.5t31 172.5q1 7 27.5 15t44.5 8q10 0 10 -4q0 -5 -5 -30t-10 -65t-5 -81q0 -69 12.5 -107t31.5 -38q27 0 51 72q-28 43 -28 114q0 69 18.5 112t41.5 43q19 0 29.5 -31.5t10.5 -81.5
q0 -67 -17 -141q10 -14 34 -14q14 0 38 4q8 103 65 188.5t122 85.5q60 0 60 -60q0 -52 -44 -119t-109 -108q4 -97 59 -97q41 0 88.5 53t65.5 123zM653 346q-22 0 -43 -47.5t-30 -109.5q37 34 60.5 75.5t23.5 65.5q0 16 -11 16z" />
    <glyph glyph-name="w_l" unicode="wl" horiz-adv-x="727" 
d="M620 37q31 0 76 102q-23 -101 -60.5 -160.5t-71.5 -59.5q-31 0 -51 49.5t-21 145.5q-33 -31 -70 -31q-14 0 -28 6q-48 -134 -126 -134q-74 0 -74 113q0 32 8 93q1 4 -1 5l-3 -5q-55 -216 -133 -216q-77 0 -77 141q0 67 18 135.5t43 107.5q5 8 29 18t37 10q7 0 7 -4
q-16 -44 -28.5 -116.5t-12.5 -124.5q0 -61 19 -61q14 0 31 31t36 103.5t31 172.5q1 7 27.5 15t44.5 8q10 0 10 -4q0 -5 -5 -30t-10 -65t-5 -81q0 -69 12.5 -107t31.5 -38q26 0 50 69q-27 42 -27 117q0 69 18.5 112t41.5 43q19 0 29.5 -31.5t10.5 -81.5q0 -69 -16 -136
q9 -7 20 -7q37 0 64 55q12 233 63 364q11 26 48 44t70 18q43 0 43 -66q0 -70 -42.5 -185.5t-91.5 -191.5v-15q0 -127 35 -127zM648 554q-8 0 -18 -27t-21.5 -93.5t-18.5 -157.5q24 59 44 127t22 103q1 8 1 20q0 28 -9 28z" />
    <glyph glyph-name="w_r" unicode="wr" horiz-adv-x="779" 
d="M784 176q15 -12 15 -37q0 -55 -57 -120.5t-117 -65.5q-70 0 -70 82q0 63 33.5 152.5t51.5 110.5q-10 0 -85 -29q-28 -186 -128 -186q-18 0 -33 6q-21 -60 -53 -97t-73 -37q-74 0 -74 113q0 32 8 93q1 4 -1 5l-3 -5q-55 -216 -133 -216q-77 0 -77 141q0 67 18 135.5
t43 107.5q5 8 29 18t37 10q7 0 7 -4q-16 -44 -28.5 -116.5t-12.5 -124.5q0 -61 19 -61q14 0 31 31t36 103.5t31 172.5q1 7 27.5 15t44.5 8q10 0 10 -4q0 -5 -5 -30t-10 -65t-5 -81q0 -69 12.5 -107t31.5 -38q27 0 50 69q-28 43 -28 119q0 60 17.5 106.5t43.5 46.5
q19 0 29.5 -31.5t10.5 -81.5q0 -68 -16 -133q10 -10 21 -10q22 0 44 29t37 90q-25 16 -51 107q29 8 95.5 21.5t90.5 13.5q11 0 31.5 -32.5t20.5 -52.5q-9 -12 -20 -68.5t-11 -104.5q0 -80 30 -80q17 0 40 30t45 82z" />
    <glyph glyph-name="w_s" unicode="ws" horiz-adv-x="732" 
d="M631 325q0 -46 22 -125.5t22 -111.5q0 -68 -50 -116t-101 -48q-28 0 -43 15t-15 37q0 15 8 31q7 -19 30 -19q34 0 51 32t17 80q0 47 -17 149q-10 -52 -27 -87.5t-37 -51t-35.5 -21.5t-32.5 -6t-30 6q-21 -61 -53 -97.5t-72 -36.5q-74 0 -74 113q0 32 8 93q1 4 -1 5l-3 -5
q-55 -216 -133 -216q-77 0 -77 141q0 67 18 135.5t43 107.5q5 8 29 18t37 10q7 0 7 -4q-16 -44 -28.5 -116.5t-12.5 -124.5q0 -61 19 -61q14 0 31 31t36 103.5t31 172.5q1 7 27.5 15t44.5 8q10 0 10 -4q0 -5 -5 -30t-10 -65t-5 -81q0 -69 12.5 -107t31.5 -38q26 0 50 68
q-27 44 -27 119q0 60 17.5 107t42.5 47q40 0 40 -112q0 -63 -15 -131q9 -11 22 -11q31 0 63.5 53t44.5 148q-1 6 -1 18q1 10 31 21t52 11q16 0 16 -8q-9 -32 -9 -61z" />
    <glyph glyph-name="w_x" unicode="wx" horiz-adv-x="843" 
d="M856 199q20 0 20 -30q0 -37 -26 -88.5t-75.5 -94t-102.5 -42.5q-71 0 -99 80q-93 -132 -101 -167q-16 0 -24 6.5t-9.5 12.5t-1.5 15q0 46 120 220q-2 24 -2.5 55t-1.5 48t-4 21q-32 -152 -122 -152q-18 0 -33 6q-21 -60 -53 -97t-73 -37q-74 0 -74 113q0 32 8 93
q1 4 -1 5l-3 -5q-55 -216 -133 -216q-77 0 -77 141q0 67 18 135.5t43 107.5q5 8 29 18t37 10q7 0 7 -4q-16 -44 -28.5 -116.5t-12.5 -124.5q0 -61 19 -61q14 0 31 31t36 103.5t31 172.5q1 7 27.5 15t44.5 8q10 0 10 -4q0 -5 -5 -30t-10 -65t-5 -81q0 -69 12.5 -107t31.5 -38
q27 0 50 69q-28 43 -28 119q0 60 17.5 106.5t43.5 46.5q19 0 29.5 -31.5t10.5 -81.5q0 -68 -16 -133q10 -10 21 -10q18 0 36 18t35 67.5t24 122.5l-1 7q0 9 29 20.5t47 11.5q5 0 7 -2t2 -4v-9v-5q0 -111 8 -166q120 171 134 218q20 5 29 5q18 0 18 -19q0 -61 -160 -288
q27 -66 81 -66q38 0 73 35t62 112z" />
    <glyph glyph-name="w_z" unicode="w&#x7a;" horiz-adv-x="817" 
d="M785 -105q0 -8 -1 -12q-4 0 -11 -0.5t-10 -0.5q-8 -86 -87 -155t-202 -69q-66 0 -111 34t-45 90q0 42 59 76t135.5 51t153.5 21q-14 41 -65 41q-30 0 -75 -18q-22 15 -22 40q0 31 89.5 147t98.5 138q-77 -20 -140 -27q-30 -168 -125 -168q-18 0 -33 6q-21 -60 -53 -97
t-73 -37q-74 0 -74 113q0 32 8 93q1 4 -1 5l-3 -5q-55 -216 -133 -216q-77 0 -77 141q0 67 18 135.5t43 107.5q5 8 29 18t37 10q7 0 7 -4q-16 -44 -28.5 -116.5t-12.5 -124.5q0 -61 19 -61q14 0 31 31t36 103.5t31 172.5q1 7 27.5 15t44.5 8q10 0 10 -4q0 -5 -5 -30t-10 -65
t-5 -81q0 -69 12.5 -107t31.5 -38q27 0 50 69q-28 43 -28 119q0 60 17.5 106.5t43.5 46.5q19 0 29.5 -31.5t10.5 -81.5q0 -68 -16 -133q10 -10 21 -10q21 0 42.5 27t36.5 82q-8 3 -14.5 14t-10 22.5t-9.5 34.5t-11 38q196 28 245 28q12 0 34 -43t22 -63q0 -23 -36.5 -76
t-82.5 -110.5t-56 -74.5q16 4 37 4q58 0 92 -28t41 -73q23 -9 23 -28zM462 -252q79 0 132 37t70 87q-87 -11 -147.5 -29.5t-85.5 -36t-25 -33.5q0 -25 56 -25z" />
    <glyph glyph-name="l_l_s" unicode="lls" horiz-adv-x="660" 
d="M559 325q0 -46 22 -125.5t22 -111.5q0 -68 -50 -116t-101 -48q-28 0 -43 15t-15 37q0 15 8 31q7 -19 30 -19q34 0 51 32t17 80q0 56 -17 149q-25 -129 -83.5 -209.5t-109.5 -80.5q-60 0 -74 114q-22 -60 -60.5 -107t-77.5 -47q-19 0 -33 10.5t-22 26t-13 44.5t-7 56
t-3 70q0 56 16 180t32 220l15 96q28 7 48 7q59 0 59 -89q0 -55 -21.5 -142.5t-42.5 -147.5l-22 -59q0 -94 18.5 -131.5t49 -7.5t61.5 122q1 0 1 -1q4 65 18 166.5t26 170.5l11 70q52 -4 70 -22.5t18 -79.5q0 -45 -15 -112.5t-30 -113.5l-15 -45q0 -61 9 -102t26 -41
q37 0 82 92t55 193v13q1 10 31 21t52 11q16 0 16 -8q-9 -32 -9 -61z" />
    <glyph glyph-name="t_t_s" unicode="tts" horiz-adv-x="665" 
d="M566 325q0 -46 22 -125.5t22 -111.5q0 -68 -50 -116t-101 -48q-28 0 -43 15t-15 37q0 15 8 31q7 -19 30 -19q34 0 51 32t17 80q0 47 -17 153q-27 -144 -93.5 -234t-142.5 -90q-65 0 -65 106q0 19 1 29q-26 -52 -61.5 -81.5t-70.5 -29.5q-31 0 -50 26.5t-19 78.5
q0 56 30 214q-20 8 -31 32t-22 73q27 0 74 5q15 87 15 144q28 7 53 7q33 0 33 -40q0 -19 -7 -44.5t-14 -41.5l-7 -16q120 14 131 15q17 109 17 182q1 0 11.5 3t25.5 5.5t26 2.5q32 0 32 -43q0 -46 -35 -145h6q15 0 26 -7t18 -23.5t11 -29t10.5 -38.5l9.5 -38q-52 2 -81 2
h-25q-9 -69 -9 -132q0 -104 38 -104q41 0 88 98t63 211v12q1 10 31 21t52 11q16 0 16 -8q-9 -32 -9 -61zM119 58q22 0 49.5 50.5t47.5 132.5l6 34q-27 -1 -72.5 -2.5t-54.5 -1.5q-8 -59 -8 -113q0 -100 32 -100z" />
    <glyph glyph-name="A_e" unicode="Ae" horiz-adv-x="936" 
d="M944 199q21 0 21 -33q0 -37 -23.5 -86.5t-73.5 -90.5t-110 -41q-6 0 -20 2q-85 -97 -176 -97q-60 0 -98 52t-51 153q-197 -9 -244 -10q-23 -53 -28 -66q11 -7 11 -20q0 -33 -52 -115q-40 0 -40 48q0 43 46 156q-31 6 -49.5 42t-18.5 66q0 17 7 17q17 -9 58 -9q13 0 55 2
q113 248 231 443q40 10 59 10q10 0 17.5 -2.5t14 -9.5t11 -16t9 -27t7.5 -36.5t6 -50t5.5 -62.5t5.5 -79q2 -22 3 -73.5t2 -64.5h12q15 0 24.5 -7t13.5 -23.5t5.5 -28.5t2 -39t1.5 -38q-28 0 -46 -1q23 -113 88 -113q31 0 61 22q-53 49 -53 158q0 101 50 184.5t131 83.5
q69 0 69 -98q0 -58 -25.5 -133.5t-68.5 -144.5q41 5 87 57.5t63 118.5zM401 518q-78 -138 -174 -342q128 14 181 18q2 106 2 179q0 109 -1 152q-4 0 -8 -7zM793 340q-26 0 -43.5 -61.5t-17.5 -132.5q0 -70 20 -101q32 53 51.5 119t19.5 115q0 61 -30 61z" />
    <glyph glyph-name="A_l" unicode="Al" horiz-adv-x="894" 
d="M897 174q17 -10 17 -36q0 -52 -51.5 -122t-95.5 -70q-52 0 -71 66q-39 -69 -89 -115t-95 -46q-87 0 -101 207q-198 -9 -242 -10q-23 -53 -28 -66q11 -7 11 -20q0 -33 -52 -115q-40 0 -40 48q0 43 46 156q-31 6 -49.5 42t-18.5 66q0 17 7 17q17 -9 58 -9q13 0 55 2
q113 248 231 443q40 10 59 10q10 0 17.5 -2.5t14 -9.5t11 -16t9 -27t7.5 -36.5t6 -50t5.5 -62.5t5.5 -79q2 -21 4 -138h13q15 0 24.5 -7t13.5 -23.5t5.5 -28.5t2 -39t1.5 -38q-30 0 -49 -1q12 -69 44 -69q22 0 49 30t52 77v24q0 56 12 178.5t24 217.5l13 95q36 12 64 12
q54 -1 54 -100q0 -126 -83 -392q4 -80 38 -80q21 0 45.5 31.5t45.5 85.5zM401 518q-78 -138 -174 -342q128 14 181 18q2 106 2 179q0 109 -1 152q-5 0 -8 -7z" />
    <glyph glyph-name="A_m" unicode="Am" horiz-adv-x="1259" 
d="M1264 176q18 -4 18 -36q0 -56 -45.5 -122t-106.5 -66q-78 0 -78 119q0 53 17 138t17 89q0 5 -2 5q-15 0 -54.5 -112t-60.5 -214q0 -5 -27.5 -12.5t-49.5 -7.5q-27 0 -27 13q0 2 13.5 114t13.5 158q0 37 -8 37q-16 0 -53 -115t-53 -206q-52 -12 -72 -12q-31 0 -31 25
q0 6 4 44q-31 -70 -74 -117t-85 -47q-95 0 -109 207q-198 -9 -242 -10q-23 -53 -28 -66q11 -7 11 -20q0 -33 -52 -115q-40 0 -40 48q0 43 46 156q-31 6 -49.5 42t-18.5 66q0 17 7 17q17 -9 58 -9q13 0 55 2q113 248 231 443q40 10 59 10q10 0 17.5 -2.5t14 -9.5t11 -16
t9 -27t7.5 -36.5t6 -50t5.5 -62.5t5.5 -79q2 -23 3 -74t2 -64h12q15 0 24.5 -7t13.5 -23.5t5.5 -28.5t2 -39t1.5 -38q-30 0 -50 -1q12 -79 45 -79q35 0 67.5 65.5t46.5 149t3 134.5q105 44 105 -49q0 -43 -17.5 -112.5t-17.5 -75.5q0 -2 2 -4q30 114 70.5 198.5t83.5 84.5
q54 0 54 -103q0 -56 -20 -156q-1 -4 1 -4t3 4q9 36 23 76.5t35 88.5t49 79t57 31q44 0 44 -83q0 -32 -8 -102.5t-8 -96.5q0 -56 26 -56q34 0 82 122zM401 518q-78 -138 -174 -342q128 14 181 18q2 106 2 179q0 109 -1 152q-4 0 -8 -7z" />
    <glyph glyph-name="A_n" unicode="An" horiz-adv-x="1072" 
d="M1077 176q18 -4 18 -36q0 -56 -45.5 -122t-106.5 -66q-78 0 -78 119q0 53 17 144t17 95q0 5 -2 5q-16 0 -57 -123t-65 -240q-52 -12 -72 -12q-31 0 -31 25q0 6 9 67q-29 -76 -72.5 -128.5t-88.5 -52.5q-95 0 -109 207q-198 -9 -242 -10q-23 -53 -28 -66q11 -7 11 -20
q0 -33 -52 -115q-40 0 -40 48q0 43 46 156q-31 6 -49.5 42t-18.5 66q0 17 7 17q17 -9 58 -9q13 0 55 2q113 248 231 443q40 10 59 10q10 0 17.5 -2.5t14 -9.5t11 -16t9 -27t7.5 -36.5t6 -50t5.5 -62.5t5.5 -79q2 -23 3 -74t2 -64h12q15 0 24.5 -7t13.5 -23.5t5.5 -28.5
t2 -39t1.5 -38q-30 0 -50 -1q12 -79 45 -79q35 0 74.5 98.5t39.5 193.5q0 33 -6 60q36 19 62 19q46 0 46 -67q0 -28 -15.5 -105.5t-15.5 -86.5q0 -2 2 -4q13 52 29 100.5t38 99t49 81t55 30.5q44 0 44 -86q0 -32 -8 -108.5t-8 -99.5q0 -56 26 -56q34 0 82 122zM401 518
q-78 -138 -174 -342q128 14 181 18q2 106 2 179q0 109 -1 152q-4 0 -8 -7z" />
    <glyph glyph-name="A_p" unicode="Ap" horiz-adv-x="1036" 
d="M914 390q33 0 54.5 -34t21.5 -95q0 -50 -15 -103t-43 -101t-74.5 -78.5t-102.5 -30.5h-2q-8 -91 -8 -189v-32q-12 -5 -26 -5q-45 0 -63.5 19t-18.5 55q0 32 20 116.5t26 124.5q-29 -78 -73.5 -132t-89.5 -54q-95 0 -109 207q-198 -9 -242 -10q-23 -53 -28 -66
q11 -7 11 -20q0 -33 -52 -115q-40 0 -40 48q0 43 46 156q-31 6 -49.5 42t-18.5 66q0 17 7 17q17 -9 58 -9q13 0 55 2q113 248 231 443q40 10 59 10q10 0 17.5 -2.5t14 -9.5t11 -16t9 -27t7.5 -36.5t6 -50t5.5 -62.5t5.5 -79q2 -23 3 -74t2 -64h12q15 0 24.5 -7t13.5 -23.5
t5.5 -28.5t2 -39t1.5 -38q-30 0 -50 -1q12 -79 45 -79q44 0 78 120.5t34 236.5q0 38 -4 62q30 12 54 12q47 0 47 -60q0 -25 -12 -76.5t-22 -78.5q-2 -5 0 -5q3 2 4 4q59 190 152 190zM401 518q-78 -138 -174 -342q128 14 181 18q2 106 2 179q0 109 -1 152q-4 0 -8 -7z
M820 17q35 52 57.5 130.5t22.5 133.5q0 49 -18 49q-31 0 -66.5 -82t-54.5 -225q19 -6 56 -6h3z" />
    <glyph glyph-name="A_s" unicode="As" horiz-adv-x="933" 
d="M825 322q0 -45 26.5 -118.5t26.5 -104.5q0 -47 -63.5 -108.5t-101.5 -61.5q-34 0 -56 50q-73 -128 -145 -128q-87 0 -101 207q-198 -9 -242 -10q-23 -53 -28 -66q11 -7 11 -20q0 -33 -52 -115q-40 0 -40 48q0 43 46 156q-31 6 -49.5 42t-18.5 66q0 17 7 17q17 -9 58 -9
q13 0 55 2q113 248 231 443q40 10 59 10q10 0 17.5 -2.5t14 -9.5t11 -16t9 -27t7.5 -36.5t6 -50t5.5 -62.5t5.5 -79q2 -21 4 -138h13q15 0 24.5 -7t13.5 -23.5t5.5 -28.5t2 -39t1.5 -38q-30 0 -49 -1q12 -69 44 -69q25 0 55 50q-3 18 -3 34q0 67 33 67q1 -7 5 -26
q24 64 40 135.5t14 104.5q-1 10 33.5 22t56.5 12q16 0 16 -8q-8 -25 -8 -64zM401 518q-78 -138 -174 -342q128 14 181 18q2 106 2 179q0 109 -1 152q-4 0 -8 -7zM750 2q13 0 22 15.5t9 45.5q0 26 -12.5 101.5t-16.5 75.5q-1 0 -3 -5q-12 -79 -55 -180q26 -53 56 -53z" />
    <glyph glyph-name="E_m" unicode="Em" horiz-adv-x="1214" 
d="M499 75q15 0 26 -4t19.5 -16t13 -21t13.5 -31.5t15 -35.5q-19 0 -71.5 -22t-120.5 -44t-124 -22q-96 0 -160.5 65t-64.5 130q0 37 11 87q-6 24 -6 38q0 13 23 28q29 96 85 222q-31 14 -63 36t-32 34q0 18 158 60t241 42q30 0 70.5 -36t40.5 -58q-51 -10 -185 -41.5
t-168 -38.5q-25 -86 -43 -186q80 15 134 15q9 0 16 -1t12 -2.5t9 -6.5l6.5 -8t6 -13l5.5 -15.5t6.5 -21l7.5 -25.5q-140 -25 -222 -58q-3 -33 -3 -61q0 -108 56 -108q38 0 144 59.5t144 59.5zM1219 176q18 -4 18 -36q0 -56 -45.5 -122t-106.5 -66q-78 0 -78 119q0 53 17 138
t17 89q0 5 -2 5q-15 0 -54.5 -112t-60.5 -214q0 -5 -27.5 -12.5t-49.5 -7.5q-27 0 -27 13q0 2 13.5 114t13.5 158q0 37 -8 37q-16 0 -53 -115t-53 -206q-52 -12 -72 -12q-31 0 -31 25q0 10 4 37t16 97.5t23 145.5q-42 -5 -59 -5q-26 0 -39.5 6.5t-17 14.5t-6.5 25
q23 6 55.5 16.5l55 18t26.5 7.5q9 0 36 -19.5t34 -41.5q0 -22 -6.5 -57.5t-11.5 -59.5t-3 -27q13 47 28.5 88t34 78.5t39.5 59t42 21.5q54 0 54 -103q0 -56 -20 -156q-1 -4 1 -4t3 4q9 36 23 76.5t35 88.5t49 79t57 31q44 0 44 -83q0 -32 -8 -102.5t-8 -96.5q0 -56 26 -56
q34 0 82 122z" />
    <glyph glyph-name="E_n" unicode="En" horiz-adv-x="1029" 
d="M499 75q15 0 26 -4t19.5 -16t13 -21t13.5 -31.5t15 -35.5q-19 0 -71.5 -22t-120.5 -44t-124 -22q-96 0 -160.5 65t-64.5 130q0 37 11 87q-6 24 -6 38q0 13 23 28q29 96 85 222q-31 14 -63 36t-32 34q0 18 158 60t241 42q30 0 70.5 -36t40.5 -58q-51 -10 -185 -41.5
t-168 -38.5q-25 -86 -43 -186q80 15 134 15q9 0 16 -1t12 -2.5t9 -6.5l6.5 -8t6 -13l5.5 -15.5t6.5 -21l7.5 -25.5q-140 -25 -222 -58q-3 -33 -3 -61q0 -108 56 -108q38 0 144 59.5t144 59.5zM1034 176q18 -4 18 -36q0 -56 -45.5 -122t-106.5 -66q-78 0 -78 119q0 53 17 144
t17 95q0 5 -2 5q-16 0 -57 -123t-65 -240q-52 -12 -72 -12q-31 0 -31 25q0 11 4 38.5t16 101.5l23 146q-42 -5 -62 -5q-28 0 -42 10.5t-18 38.5q17 4 50.5 14.5t58 17.5t28.5 7q9 0 36 -19.5t34 -41.5q0 -24 -7 -61t-12 -60.5t-2 -23.5q19 69 41 126t55 103.5t66 46.5
q44 0 44 -86q0 -30 -8 -106.5t-8 -101.5q0 -56 26 -56q34 0 82 122z" />
    <glyph glyph-name="E_u" unicode="Eu" horiz-adv-x="1019" 
d="M499 75q15 0 26 -4t19.5 -16t13 -21t13.5 -31.5t15 -35.5q-19 0 -71.5 -22t-120.5 -44t-124 -22q-96 0 -160.5 65t-64.5 130q0 37 11 87q-6 24 -6 38q0 13 23 28q29 96 85 222q-31 14 -63 36t-32 34q0 18 158 60t241 42q30 0 70.5 -36t40.5 -58q-51 -10 -185 -41.5
t-168 -38.5q-25 -86 -43 -186q80 15 134 15q9 0 16 -1t12 -2.5t9 -6.5l6.5 -8t6 -13l5.5 -15.5t6.5 -21l7.5 -25.5q-140 -25 -222 -58q-3 -33 -3 -61q0 -108 56 -108q38 0 144 59.5t144 59.5zM1022 174q15 -7 15 -32q0 -55 -56 -131t-113 -76q-50 0 -50 67q0 20 6 59.5
t6 40.5v2q0 2 -3 4q-22 -85 -58.5 -130t-72.5 -45q-66 0 -66 114q0 75 29 205q-36 -7 -63 -7q-34 0 -47.5 12.5t-16.5 37.5q132 39 137 39q13 0 42.5 -22.5t29.5 -39.5q-18 -124 -18 -174q0 -56 22 -56q12 0 28 29.5t36 105.5t34 185q22 8 42 8q37 0 37 -37q0 -8 -8 -75
t-8 -116q0 -91 27 -91q34 0 89 123z" />
    <glyph glyph-name="M_a" unicode="Ma" horiz-adv-x="1056" 
d="M1058 174q15 -8 15 -34q0 -52 -50 -121t-97 -69q-30 0 -46 21.5t-16 57.5q0 15 4 36t4 25q0 6 -3 7q-19 -72 -53.5 -110t-71.5 -38q-40 0 -59 39q-9 -33 -52 -65t-85 -32q-101 0 -101 191q0 150 77 498q-3 -1 -4 -4q-47 -100 -112.5 -285.5t-70.5 -264.5q-12 -1 -28 -1
q-49 0 -69 30q-15 20 -24 90t-16.5 175.5t-12.5 145.5q0 4 -4 6q-62 -207 -78 -401q23 -2 23 -43q0 -26 -9 -78q-12 -3 -30 -3q-68 0 -68 87q0 83 31.5 204t75.5 232h-4q-28 0 -28 32q0 17 8 54q89 27 124 27q33 0 57 -65t33 -140.5t9 -142.5q0 -4 1 -5q2 -1 3 3q1 1 1 2
q30 105 83.5 231t95.5 181q53 15 82 15q14 0 21.5 -3.5t6.5 -11.5q-54 -306 -54 -469q0 -183 64 -183q21 0 45 17q-7 24 -7 59q0 67 24 139.5t70.5 125.5t99.5 53q33 0 51.5 -25t18.5 -59q0 -37 -19.5 -64.5t-53.5 -27.5q-1 0 -3.5 0.5t-4.5 0.5q17 36 17 82q0 34 -14 34
q-33 0 -61.5 -82t-28.5 -150q0 -55 21 -55q19 0 43.5 47t36.5 118q45 -9 60.5 -30.5t16.5 -79.5q0 -40 22 -40q18 0 45 33t48 83z" />
    <glyph glyph-name="M_e" unicode="Me" horiz-adv-x="954" 
d="M962 199q21 0 21 -33q0 -27 -14 -63t-38.5 -71t-64.5 -59.5t-86 -24.5q-61 0 -94 43q-8 -33 -51.5 -66.5t-86.5 -33.5q-101 0 -101 191q0 150 77 498q-3 -1 -4 -4q-47 -100 -112.5 -285.5t-70.5 -264.5q-12 -1 -28 -1q-49 0 -69 30q-15 20 -24 90t-16.5 175.5
t-12.5 145.5q0 4 -4 6q-62 -207 -78 -401q23 -2 23 -43q0 -26 -9 -78q-12 -3 -30 -3q-68 0 -68 87q0 83 31.5 204t75.5 232h-4q-28 0 -28 32q0 17 8 54q89 27 124 27q33 0 57 -65t33 -140.5t9 -142.5q0 -4 1 -5q2 -1 3 3q1 1 1 2q30 105 83.5 231t95.5 181q53 15 82 15
q14 0 21.5 -3.5t6.5 -11.5q-54 -306 -54 -469q0 -183 64 -183q20 0 43 15q-19 38 -19 92q0 101 53.5 198.5t122.5 97.5q32 0 50 -28t18 -70q0 -64 -36.5 -116.5t-100.5 -52.5h-12v-15q0 -93 58 -93q41 0 88.5 53t65.5 123zM821 339q-17 0 -35.5 -44t-28.5 -102q14 -2 21 -2
q25 0 31 8q5 6 16.5 45.5t11.5 65.5q0 29 -16 29z" />
    <glyph glyph-name="M_i" unicode="Mi" horiz-adv-x="887" 
d="M891 174q16 -9 16 -30q0 -52 -55.5 -127t-110.5 -75q-41 0 -57 42q-12 -32 -54 -62.5t-82 -30.5q-101 0 -101 191q0 150 77 498q-3 -1 -4 -4q-47 -100 -112.5 -285.5t-70.5 -264.5q-12 -1 -28 -1q-49 0 -69 30q-15 20 -24 90t-16.5 175.5t-12.5 145.5q0 4 -4 6
q-62 -207 -78 -401q23 -2 23 -43q0 -26 -9 -78q-12 -3 -30 -3q-68 0 -68 87q0 83 31.5 204t75.5 232h-4q-28 0 -28 32q0 17 8 54q89 27 124 27q33 0 57 -65t33 -140.5t9 -142.5q0 -4 1 -5q2 -1 3 3q1 1 1 2q30 105 83.5 231t95.5 181q53 15 82 15q14 0 21.5 -3.5t6.5 -11.5
q-54 -306 -54 -469q0 -183 64 -183q21 0 45 17q-3 19 -3 44q0 82 36 223q-2 11 -5.5 23l-5.5 18.5t-2 7.5q0 10 30.5 21.5t52.5 11.5q15 0 15 -7q-2 -7 -7 -38.5t-10 -81t-5 -87.5q0 -89 31 -89q19 0 45.5 35t42.5 81zM744 405q-44 0 -44 72q0 41 12 94q54 17 88 17
q44 0 44 -45q0 -50 -31.5 -94t-68.5 -44z" />
    <glyph glyph-name="M_o" unicode="Mo" horiz-adv-x="990" 
d="M1009 237q9 0 15.5 -10.5t6.5 -27.5q0 -57 -34.5 -92.5t-79.5 -35.5q-16 0 -27 4q-23 -63 -60 -97.5t-75 -34.5q-47 0 -71 42q-11 -33 -53 -63.5t-83 -30.5q-101 0 -101 191q0 150 77 498q-3 -1 -4 -4q-47 -100 -112.5 -285.5t-70.5 -264.5q-12 -1 -28 -1q-49 0 -69 30
q-15 20 -24 90t-16.5 175.5t-12.5 145.5q0 4 -4 6q-62 -207 -78 -401q23 -2 23 -43q0 -26 -9 -78q-12 -3 -30 -3q-68 0 -68 87q0 83 31.5 204t75.5 232h-4q-28 0 -28 32q0 17 8 54q89 27 124 27q33 0 57 -65t33 -140.5t9 -142.5q0 -4 1 -5q2 -1 3 3q1 1 1 2q30 105 83.5 231
t95.5 181q53 15 82 15q14 0 21.5 -3.5t6.5 -11.5q-54 -306 -54 -469q0 -183 64 -183q20 0 43 15q-10 31 -10 74q0 95 41 187.5t90 92.5q16 0 24 -11q16 39 40 39q23 0 40 -39.5t17 -112.5q0 -54 -10 -106q10 -8 21 -8q26 0 49.5 29.5t32.5 81.5zM787 31q18 0 36 20t29 51
q-47 54 -47 164q0 38 9 74q-18 -24 -39 -103t-21 -137q0 -69 33 -69z" />
    <glyph glyph-name="M_u" unicode="Mu" horiz-adv-x="1055" 
d="M1058 174q15 -7 15 -32q0 -55 -56 -131t-113 -76q-50 0 -50 67q0 20 6 59.5t6 40.5q1 4 -3 6q-22 -84 -58.5 -129.5t-72.5 -45.5q-38 0 -54 38q-18 -30 -56 -55t-74 -25q-101 0 -101 191q0 150 77 498q-3 -1 -4 -4q-47 -100 -112.5 -285.5t-70.5 -264.5q-12 -1 -28 -1
q-49 0 -69 30q-15 20 -24 90t-16.5 175.5t-12.5 145.5q0 4 -4 6q-62 -207 -78 -401q23 -2 23 -43q0 -26 -9 -78q-12 -3 -30 -3q-68 0 -68 87q0 83 31.5 204t75.5 232h-4q-28 0 -28 32q0 17 8 54q89 27 124 27q33 0 57 -65t33 -140.5t9 -142.5q0 -4 1 -5q2 -1 3 3q1 1 1 2
q30 105 83.5 231t95.5 181q53 15 82 15q14 0 21.5 -3.5t6.5 -11.5q-54 -306 -54 -469q0 -183 64 -183q16 0 37 12q-2 24 -2 40q0 75 35 231l-14 40q0 9 29.5 22.5t51.5 13.5q20 0 20 -13q-29 -177 -29 -243q0 -56 22 -56q12 0 28 29.5t36 105.5t34 185q22 8 42 8
q37 0 37 -37q0 -8 -8 -75t-8 -116q0 -91 27 -91q34 0 89 123z" />
    <glyph glyph-name="M_y" unicode="My" horiz-adv-x="1047" 
d="M929 -88q41 8 78 18q-4 -46 -26 -63q-23 -17 -68 -30q-32 -129 -91 -198t-159 -69q-83 0 -163.5 62.5t-80.5 122.5q0 19 7 35t22 28t32.5 21.5t44.5 16.5t51 12t59.5 9.5t62 7l67 6.5t66.5 7q18 80 39 224q0 4 -1 4q-3 0 -3 -3q-23 -82 -61 -126t-73 -44q-33 0 -49 28
q-14 -32 -55 -61t-80 -29q-101 0 -101 191q0 150 77 498q-3 -1 -4 -4q-47 -100 -112.5 -285.5t-70.5 -264.5q-12 -1 -28 -1q-49 0 -69 30q-15 20 -24 90t-16.5 175.5t-12.5 145.5q0 4 -4 6q-62 -207 -78 -401q23 -2 23 -43q0 -26 -9 -78q-12 -3 -30 -3q-68 0 -68 87
q0 83 31.5 204t75.5 232h-4q-28 0 -28 32q0 17 8 54q89 27 124 27q33 0 57 -65t33 -140.5t9 -142.5q0 -4 1 -5q2 -1 3 3q1 1 1 2q30 105 83.5 231t95.5 181q53 15 82 15q14 0 21.5 -3.5t6.5 -11.5q-54 -306 -54 -469q0 -183 64 -183q20 0 42 15q-5 19 -5 52q0 76 36 211
q-2 8 -6.5 20l-8 21t-3.5 11q0 8 33 22t55 14q20 0 20 -13q-30 -167 -30 -230q0 -56 21 -56q12 0 30 31.5t42 110.5t44 189q24 6 39 6q22 0 30.5 -11.5t8.5 -39.5q-4 -39 -11 -113t-11.5 -117.5t-12 -102t-15.5 -103.5zM634 -346q65 0 106.5 41t68.5 121q-20 -3 -58.5 -8
t-60 -8.5l-53 -9t-49.5 -11t-36.5 -13.5t-27 -18t-8.5 -22q0 -27 33.5 -49.5t84.5 -22.5z" />
    <glyph glyph-name="O_m" unicode="Om" horiz-adv-x="1182" 
d="M1187 176q18 -4 18 -36q0 -56 -45.5 -122t-106.5 -66q-78 0 -78 119q0 53 17 138t17 89q0 5 -2 5q-15 0 -54.5 -112t-60.5 -214q0 -5 -27.5 -12.5t-49.5 -7.5q-27 0 -27 13q0 2 13.5 114t13.5 158q0 37 -8 37q-16 0 -53 -115t-53 -206q-52 -12 -72 -12q-31 0 -31 25
q0 8 7.5 55t17.5 116.5t15 119.5q-51 -18 -94 -30q-26 -155 -114.5 -242t-189.5 -87q-90 0 -151.5 71.5t-61.5 202.5q0 87 25.5 172t61 135.5t67.5 54.5q48 88 134 88q131 0 184.5 -68t53.5 -215v-24q33 8 88 25q33 0 64 -18t30 -39q-5 -36 -23.5 -109t-18.5 -82q0 -2 2 -4
q30 114 70.5 198.5t83.5 84.5q54 0 54 -103q0 -56 -20 -156q-1 -4 1 -4t3 4q9 36 23 76.5t35 88.5t49 79t57 31q44 0 44 -83q0 -32 -8 -102.5t-8 -96.5q0 -56 26 -56q34 0 82 122zM335 564q-46 0 -81 -51.5t-35 -109.5q0 -65 30 -88.5t112 -23.5q40 0 90 8q1 10 1 33
q0 115 -34 173.5t-83 58.5zM285 -20q54 0 98.5 60t60.5 174q-28 -2 -43 -2q-122 0 -184 62.5t-63 151.5q-24 -76 -24 -168q0 -115 40 -196.5t115 -81.5z" />
    <glyph glyph-name="O_n" unicode="On" horiz-adv-x="997" 
d="M1002 176q18 -4 18 -36q0 -56 -45.5 -122t-106.5 -66q-78 0 -78 119q0 53 17 144t17 95q0 5 -2 5q-16 0 -57 -123t-65 -240q-52 -12 -72 -12q-31 0 -31 25q0 8 8 58t18 119t13 119q-51 -19 -92 -29q-26 -155 -114.5 -242t-189.5 -87q-90 0 -151.5 71.5t-61.5 202.5
q0 87 25.5 172t61 135.5t67.5 54.5q48 88 134 88q131 0 184.5 -68t53.5 -215v-24q33 8 88 25q30 0 61 -20t31 -36q0 -28 -20 -105.5t-20 -86.5q0 -2 2 -4q13 52 29 100.5t38 99t49 81t55 30.5q44 0 44 -86q0 -30 -8 -106.5t-8 -101.5q0 -56 26 -56q34 0 82 122zM335 564
q-46 0 -81 -51.5t-35 -109.5q0 -65 30 -88.5t112 -23.5q40 0 90 8q1 10 1 33q0 115 -34 173.5t-83 58.5zM285 -20q54 0 98.5 60t60.5 174q-28 -2 -43 -2q-122 0 -184 62.5t-63 151.5q-24 -76 -24 -168q0 -115 40 -196.5t115 -81.5z" />
    <glyph glyph-name="O_p" unicode="Op" horiz-adv-x="973" 
d="M854 388q33 0 53 -32.5t20 -94.5q0 -50 -15 -103t-43 -101t-74.5 -78.5t-102.5 -30.5h-2q-9 -102 -8 -221q-12 -5 -26 -5q-44 0 -63 18t-19 55q0 34 34 173q0 7 1 10q-20 19 -24.5 43.5t8.5 44.5q9 -8 22 -17q1 13 8.5 95t10.5 123q-58 -23 -90 -32q-25 -156 -113.5 -244
t-190.5 -88q-90 0 -151.5 71.5t-61.5 202.5q0 87 25.5 172t61 135.5t67.5 54.5q48 88 134 88q131 0 184.5 -68t53.5 -215v-20q13 3 37.5 11t32.5 10q31 0 63 -16t32 -32q0 -1 -3.5 -16.5t-4.5 -22.5q-1 -5 1 -5t3 4q18 50 55.5 90.5t84.5 40.5zM335 564q-46 0 -81 -51.5
t-35 -109.5q0 -65 30 -88.5t112 -23.5q42 0 90 8q1 11 1 33q0 115 -34 173.5t-83 58.5zM285 -20q54 0 98.5 60t60.5 174q-28 -2 -43 -2q-122 0 -184 62.5t-63 151.5q-24 -76 -24 -168q0 -115 40 -196.5t115 -81.5zM756 16q35 51 58 130.5t23 134.5q0 49 -18 49
q-19 0 -41.5 -33.5t-45 -107.5t-35.5 -172q28 -4 59 -1z" />
    <glyph glyph-name="O_u" unicode="Ou" horiz-adv-x="987" 
d="M990 174q15 -7 15 -32q0 -55 -56 -131t-113 -76q-50 0 -50 67q0 20 6 59.5t6 40.5q1 4 -3 6q-22 -84 -58.5 -129.5t-72.5 -45.5q-66 0 -66 114q0 74 32 215q-60 -21 -86 -29q-26 -155 -114.5 -242.5t-189.5 -87.5q-90 0 -151.5 71.5t-61.5 202.5q0 87 25.5 172t61 135.5
t67.5 54.5q48 88 134 88q131 0 184.5 -68t53.5 -215v-27q44 11 94 26q19 0 42.5 -16t23.5 -30q-22 -141 -22 -199q0 -56 22 -56q12 0 28 29.5t36 105.5t34 185q22 8 42 8q37 0 37 -37q0 -8 -8 -75t-8 -116q0 -91 27 -91q34 0 89 123zM335 564q-46 0 -81 -51.5t-35 -109.5
q0 -65 30 -88.5t112 -23.5q47 0 90 7q1 11 1 34q0 115 -34 173.5t-83 58.5zM285 -20q54 0 98.5 60t60.5 174q-28 -2 -43 -2q-122 0 -184 62.5t-63 151.5q-24 -76 -24 -168q0 -115 40 -196.5t115 -81.5z" />
    <glyph glyph-name="O_v" unicode="Ov" horiz-adv-x="953" 
d="M972 237q9 0 15.5 -10.5t6.5 -27.5q0 -46 -34.5 -81t-75.5 -35q-16 0 -29 6q-25 -72 -65.5 -112.5t-80.5 -40.5q-98 0 -98 155q0 75 26 172q-54 -19 -93 -30q-26 -155 -114.5 -242.5t-189.5 -87.5q-90 0 -151.5 71.5t-61.5 202.5q0 87 25.5 172t61 135.5t67.5 54.5
q48 88 134 88q131 0 184.5 -68t53.5 -215q0 -20 -1 -29q51 11 108 28q21 0 43 -16t22 -32q-19 -86 -19 -159q0 -100 42 -100q18 0 36.5 22.5t31.5 62.5q-30 42 -30 116q0 69 18.5 114.5t40.5 45.5q17 0 28 -30t11 -89q0 -68 -13 -131q8 -7 21 -7q23 0 46 25t34 72zM335 564
q-46 0 -81 -51.5t-35 -109.5q0 -65 30 -88.5t112 -23.5q42 0 90 6q1 12 1 35q0 115 -34 173.5t-83 58.5zM285 -20q54 0 98.5 60t60.5 174q-28 -2 -43 -2q-122 0 -184 62.5t-63 151.5q-24 -76 -24 -168q0 -115 40 -196.5t115 -81.5z" />
    <glyph glyph-name="O_w" unicode="Ow" horiz-adv-x="1108" 
d="M1125 237q10 0 16 -10.5t6 -27.5q0 -45 -34 -80.5t-75 -35.5q-14 0 -28 6q-48 -134 -126 -134q-74 0 -74 113q0 32 8 93q1 4 -1 5l-3 -5q-55 -216 -133 -216q-77 0 -77 119q0 69 32 201q-41 -16 -92 -32q-26 -155 -114.5 -242.5t-189.5 -87.5q-90 0 -151.5 71.5
t-61.5 202.5q0 87 25.5 172t61 135.5t67.5 54.5q48 88 134 88q131 0 184.5 -68t53.5 -215q0 -19 -1 -28q57 13 103 27q19 0 42.5 -16t23.5 -30q-24 -98 -24 -185q0 -61 19 -61q14 0 31 31t36 103.5t31 172.5q1 7 27.5 15t44.5 8q10 0 10 -4q0 -5 -5 -30t-10 -65t-5 -81
q0 -69 12.5 -107t31.5 -38q26 0 50 69q-27 42 -27 117q0 69 18.5 112t41.5 43q19 0 29.5 -31.5t10.5 -81.5q0 -69 -16 -136q9 -7 20 -7q22 0 44.5 25.5t33.5 70.5zM335 564q-46 0 -81 -51.5t-35 -109.5q0 -65 30 -88.5t112 -23.5q45 0 90 7q1 11 1 34q0 115 -34 173.5
t-83 58.5zM285 -20q54 0 98.5 60t60.5 174q-28 -2 -43 -2q-122 0 -184 62.5t-63 151.5q-24 -76 -24 -168q0 -115 40 -196.5t115 -81.5z" />
    <glyph glyph-name="O_y" unicode="Oy" horiz-adv-x="984" 
d="M866 -88q40 8 78 18q-4 -46 -26 -63q-23 -17 -68 -30q-32 -129 -91 -198t-159 -69q-83 0 -163.5 62.5t-80.5 122.5q0 19 7 35t22 28t32.5 21.5t44.5 16.5t51 12t59.5 9.5t62 7l67 6.5t66.5 7q18 80 39 224q0 4 -1 4q-3 0 -3 -3q-23 -82 -61 -126t-73 -44q-69 0 -69 98
q0 68 40 215q-59 -22 -96 -33q-26 -155 -114.5 -242.5t-189.5 -87.5q-90 0 -151.5 71.5t-61.5 202.5q0 87 25.5 172t61 135.5t67.5 54.5q48 88 134 88q131 0 184.5 -68t53.5 -215q0 -19 -1 -28q47 9 104 27q19 0 42.5 -17t23.5 -31q-21 -120 -21 -177q0 -56 21 -56
q12 0 30 31.5t42 110.5t44 189q24 6 39 6q22 0 30.5 -11.5t8.5 -39.5q-4 -39 -11 -113t-11.5 -117.5t-12 -102t-15.5 -103.5zM335 564q-46 0 -81 -51.5t-35 -109.5q0 -65 30 -88.5t112 -23.5q45 0 90 7q1 11 1 34q0 115 -34 173.5t-83 58.5zM285 -20q54 0 98.5 60t60.5 174
q-28 -2 -43 -2q-122 0 -184 62.5t-63 151.5q-24 -76 -24 -168q0 -115 40 -196.5t115 -81.5zM571 -346q65 0 106.5 41t68.5 121q-20 -3 -58.5 -8t-60 -8.5l-53 -9t-49.5 -11t-36.5 -13.5t-27 -18t-8.5 -22q0 -27 33.5 -49.5t84.5 -22.5z" />
    <glyph glyph-name="S_t" unicode="St" horiz-adv-x="935" 
d="M943 192q21 -11 21 -37q0 -62 -66.5 -144t-134.5 -82q-65 0 -65 106q0 27 1 41q-35 -24 -79 -40q-19 -75 -77.5 -118t-123.5 -43q-74 0 -145.5 35t-118.5 84.5t-75.5 100.5t-28.5 87q-2 14 10.5 31.5t26.5 28.5l13 10q73 -75 181.5 -121t216.5 -46q16 0 24 1v6
q0 24 -33 53t-80 59t-94 63.5t-80 77t-33 87.5q0 55 51.5 97t120.5 60.5t137 18.5q78 0 107 -15.5t29 -54.5q0 -35 -11 -74q-41 8 -89 8q-31 0 -61 -3t-45 -7l-14 -3q-4 0 0 18t11 36q-164 -26 -164 -74q0 -21 36 -48t87.5 -56.5t103 -62.5t88.5 -77.5t38 -90.5q42 14 77 36
q3 27 25 142q-20 3 -30.5 18t-27.5 57q28 12 76 24q17 99 17 184q1 0 12 3.5t26.5 6.5t26.5 3q32 0 32 -43q0 -19 -10 -55t-20 -62l-9 -27q29 -1 44 -21.5t40 -84.5q-5 0 -14.5 0.5t-14.5 0.5q-9 0 -72 -3q-10 -80 -10 -138q0 -104 38 -104q26 0 58.5 46t50.5 105zM407 -11
q48 0 79 22h-8q-174 0 -318 117q39 -62 110 -100.5t137 -38.5z" />
    <glyph glyph-name="T_h" unicode="Th" horiz-adv-x="740" 
d="M744 176q18 -4 18 -36q0 -56 -45.5 -122t-106.5 -66q-77 0 -77 117q0 44 16.5 125.5t16.5 88.5q0 6 -2 6q-16 0 -57.5 -112t-64.5 -225q-57 -12 -73 -12q-30 0 -30 28q0 29 24 196.5t48 300.5q-81 -12 -146 -18l-60 -487q-2 -15 -45.5 -38t-67.5 -23q-13 0 -13 11
q0 3 17 82l48 219l50 229q-105 -10 -165 -10q-37 0 -60.5 25.5t-51.5 108.5q31 11 311 32l2.5 10.5t1.5 9.5q4 2 6 2q12 0 27 -19l151 9q21 0 60 -48t39 -72q0 -14 -40 -191.5t-40 -199.5q0 -2 2 -4q12 48 29 95t39.5 91t50 71.5t55.5 27.5q39 0 39 -78q0 -30 -7 -96t-7 -91
q0 -59 26 -59q34 0 82 122z" />
    <glyph glyph-name="T_i" unicode="Ti" horiz-adv-x="572" 
d="M517 480q-32 -12 -252 -34l-60 -486q-2 -15 -45.5 -38t-67.5 -23q-13 0 -13 11q0 3 17 81l48 220.5l50 227.5q-115 -9 -165 -9q-37 0 -60.5 25.5t-51.5 108.5q34 11 311 32l2.5 10.5t1.5 9.5q4 2 6 2q12 0 27 -20q298 21 326 14q-38 -120 -74 -132zM576 174q16 -9 16 -30
q0 -52 -55.5 -127t-110.5 -75q-26 0 -42.5 15t-20.5 45.5t-4.5 60.5t8 77.5t15 78.5t18.5 80q-2 11 -5.5 23l-5.5 18.5t-2 7.5q0 10 30.5 21.5t52.5 11.5q15 0 15 -7q-12 -38 -21.5 -110.5t-5.5 -139t30 -66.5q19 0 45.5 35t42.5 81z" />
    <glyph glyph-name="V_a" unicode="Va" horiz-adv-x="985" 
d="M987 174q15 -8 15 -34q0 -52 -50 -121t-97 -69q-30 0 -46 21.5t-16 57.5q0 15 4 36t4 25q0 6 -3 7q-19 -72 -53.5 -110t-71.5 -38t-56 33.5t-19 88.5q0 76 31 157q-4 -1 -14 -1q-37 0 -71 19q-24 -153 -69 -263t-96 -110q-124 0 -175 56.5t-51 162.5q0 149 57 348
q-92 -70 -153 -70q-37 0 -77 49t-40 77q0 7 4 11q35 0 157 30t124 30q17 0 47.5 -37t30.5 -57q0 -3 -12.5 -125t-12.5 -196q0 -182 72 -182q8 0 20 11t27 36.5t30.5 62t32.5 93t31 124.5q-40 63 -40 164q0 61 16.5 104t44.5 43q50 0 50 -159q0 -55 -8 -127h1q0 -14 26 -14
q25 0 61 11.5t57 24.5q43 45 93 45q33 0 51.5 -25t18.5 -59q0 -37 -19.5 -64.5t-53.5 -27.5q-1 0 -3.5 0.5t-4.5 0.5q17 36 17 82q0 34 -14 34q-33 0 -61.5 -82t-28.5 -150q0 -55 21 -55q19 0 43.5 47t36.5 118q45 -9 60.5 -30.5t16.5 -79.5q0 -40 22 -40q18 0 45 33t48 83z
" />
    <glyph glyph-name="V_e" unicode="Ve" horiz-adv-x="911" 
d="M919 199q21 0 21 -33q0 -27 -14 -63t-38.5 -71t-64.5 -59.5t-86 -24.5q-65 0 -95 43.5t-30 110.5q0 61 22 127q-12 -2 -19 -2q-37 0 -71 19q-24 -153 -69 -263t-96 -110q-124 0 -175 56.5t-51 162.5q0 149 57 348q-92 -70 -153 -70q-37 0 -77 49t-40 77q0 7 4 11
q35 0 157 30t124 30q17 0 47.5 -37t30.5 -57q0 -3 -12.5 -125t-12.5 -196q0 -182 72 -182q8 0 20 11t27 36.5t30.5 62t32.5 93t31 124.5q-40 63 -40 164q0 61 16.5 104t44.5 43q50 0 50 -159q0 -55 -8 -127h1q0 -14 26 -14q53 0 109 31q46 59 98 59q32 0 50 -28t18 -70
q0 -64 -36.5 -116.5t-100.5 -52.5h-12v-15q0 -93 58 -93q41 0 88.5 53t65.5 123zM778 339q-17 0 -35.5 -44t-28.5 -102q14 -2 21 -2q25 0 31 8q5 6 16.5 45.5t11.5 65.5q0 29 -16 29z" />
    <glyph glyph-name="V_i" unicode="Vi" horiz-adv-x="849" 
d="M853 174q16 -9 16 -30q0 -52 -55.5 -127t-110.5 -75q-68 0 -68 114q0 68 25 178q-20 -7 -45 -7q-37 0 -71 19q-24 -153 -69 -263t-96 -110q-124 0 -175 56.5t-51 162.5q0 149 57 348q-92 -70 -153 -70q-37 0 -77 49t-40 77q0 7 4 11q35 0 157 30t124 30q17 0 47.5 -37
t30.5 -57q0 -3 -12.5 -125t-12.5 -196q0 -182 72 -182q8 0 20 11t27 36.5t30.5 62t32.5 93t31 124.5q-40 63 -40 164q0 61 16.5 104t44.5 43q50 0 50 -159q0 -55 -8 -127h1q0 -14 26 -14q22 0 88 26.5t72 26.5q15 0 15 -7q-2 -7 -7 -38.5t-10 -81t-5 -87.5q0 -89 31 -89
q19 0 45.5 35t42.5 81zM706 405q-44 0 -44 72q0 41 12 94q54 17 88 17q44 0 44 -45q0 -50 -31.5 -94t-68.5 -44z" />
    <glyph glyph-name="V_o" unicode="Vo" horiz-adv-x="930" 
d="M949 237q9 0 15.5 -10.5t6.5 -27.5q0 -57 -34.5 -92.5t-79.5 -35.5q-16 0 -27 4q-23 -63 -60 -97.5t-75 -34.5q-47 0 -69 39t-22 102q0 69 24 143h-5q-41 0 -78 22q-24 -153 -69.5 -264.5t-96.5 -111.5q-124 0 -175 56.5t-51 162.5q0 149 57 348q-92 -70 -153 -70
q-37 0 -77 49t-40 77q0 7 4 11q35 0 157 30t124 30q17 0 47.5 -37t30.5 -57q0 -3 -12.5 -125t-12.5 -196q0 -182 72 -182q15 0 37 31t52 110t53 190q-41 61 -41 160q0 61 16.5 104t44.5 43q50 0 50 -159q0 -55 -8 -127h1q0 -14 26 -14q52 0 106 31q23 25 48 25q16 0 24 -11
q16 39 40 39q23 0 40 -39.5t17 -112.5q0 -54 -10 -106q10 -8 21 -8q26 0 49.5 29.5t32.5 81.5zM727 31q18 0 36 20t29 51q-47 54 -47 164q0 38 9 74q-18 -24 -39 -103t-21 -137q0 -69 33 -69z" />
    <glyph glyph-name="V_u" unicode="Vu" horiz-adv-x="1020" 
d="M1023 174q15 -7 15 -32q0 -55 -56 -131t-113 -76q-50 0 -50 67q0 20 6 59.5t6 40.5v2q0 2 -3 4q-22 -85 -58.5 -130t-72.5 -45q-66 0 -66 114q0 76 25 186q-20 -6 -41 -6q-37 0 -71 19q-24 -153 -69 -263t-96 -110q-124 0 -175 56.5t-51 162.5q0 149 57 348
q-92 -70 -153 -70q-37 0 -77 49t-40 77q0 7 4 11q35 0 157 30t124 30q17 0 47.5 -37t30.5 -57q0 -3 -12.5 -125t-12.5 -196q0 -182 72 -182q8 0 20 11t27 36.5t30.5 62t32.5 93t31 124.5q-40 63 -40 164q0 61 16.5 104t44.5 43q50 0 50 -159q0 -55 -8 -127h1q0 -14 26 -14
q37 0 95 22t66 22q11 0 11 -11q-29 -177 -29 -243q0 -56 22 -56q12 0 28 29.5t36 105.5t34 185q22 8 42 8q37 0 37 -37q0 -8 -8 -75t-8 -116q0 -91 27 -91q34 0 89 123z" />
    <glyph glyph-name="W_a" unicode="Wa" horiz-adv-x="1147" 
d="M1149 174q15 -8 15 -34q0 -52 -50 -121t-97 -69q-30 0 -46 21.5t-16 57.5q0 15 4 36t4 25q0 6 -3 7q-19 -72 -53.5 -110t-71.5 -38t-56 33.5t-19 88.5q0 76 31 157q-5 -1 -16 -1q-35 0 -66 16q-14 -98 -39 -178.5t-64.5 -136t-86.5 -55.5q-148 0 -148 185q0 55 14 132
t14 79q0 5 -2 5q-30 -96 -63.5 -176.5t-51.5 -113.5l-19 -33q-82 0 -120 26.5t-38 82.5q0 112 115 394q-60 -52 -112 -52q-32 0 -68 39t-36 65q0 7 4 11q35 0 121 23.5t88 23.5q13 0 44.5 -42t31.5 -74q0 -25 -36 -172t-36 -200q0 -47 23 -47q9 0 45 84.5t78.5 207.5
t64.5 215q30 6 47 6q19 0 26 -11t7 -40q0 -7 -18 -168t-18 -246q0 -128 38 -128t82 112t56 235q-41 61 -41 165q0 61 16.5 104t44.5 43q25 0 38 -50t13 -132q0 -48 -5 -111q4 -7 23 -7q27 0 66 13t58 27q43 41 89 41q33 0 51.5 -25t18.5 -59q0 -37 -19.5 -64.5t-53.5 -27.5
q-1 0 -3.5 0.5t-4.5 0.5q17 36 17 82q0 34 -14 34q-33 0 -61.5 -82t-28.5 -150q0 -55 21 -55q19 0 43.5 47t36.5 118q45 -9 60.5 -30.5t16.5 -79.5q0 -40 22 -40q18 0 45 33t48 83z" />
    <glyph glyph-name="W_e" unicode="We" horiz-adv-x="1069" 
d="M1077 199q21 0 21 -33q0 -27 -14 -63t-38.5 -71t-64.5 -59.5t-86 -24.5q-65 0 -95 43.5t-30 110.5q0 60 22 126q-6 -1 -17 -1q-35 0 -66 16q-14 -98 -39 -178.5t-64.5 -136t-86.5 -55.5q-148 0 -148 185q0 55 14 132t14 79q0 5 -2 5q-30 -96 -63.5 -176.5t-51.5 -113.5
l-19 -33q-82 0 -120 26.5t-38 82.5q0 112 115 394q-60 -52 -112 -52q-32 0 -68 39t-36 65q0 7 4 11q35 0 121 23.5t88 23.5q13 0 44.5 -42t31.5 -74q0 -25 -36 -172t-36 -200q0 -47 23 -47q9 0 45 84.5t78.5 207.5t64.5 215q30 6 47 6q19 0 26 -11t7 -40q0 -7 -18 -168
t-18 -246q0 -128 38 -128t82 112t56 235q-41 61 -41 165q0 61 16.5 104t44.5 43q25 0 38 -50t13 -132q0 -48 -5 -111q4 -7 23 -7q50 0 106 29q46 61 99 61q32 0 50 -28t18 -70q0 -64 -36.5 -116.5t-100.5 -52.5h-12v-15q0 -93 58 -93q41 0 88.5 53t65.5 123zM936 339
q-17 0 -35.5 -44t-28.5 -102q14 -2 21 -2q25 0 31 8q5 6 16.5 45.5t11.5 65.5q0 29 -16 29z" />
    <glyph glyph-name="W_h" unicode="Wh" horiz-adv-x="1161" 
d="M1165 176q18 -4 18 -36q0 -56 -45.5 -122t-106.5 -66q-77 0 -77 117q0 44 16.5 125.5t16.5 88.5q0 6 -2 6q-16 0 -57.5 -112t-64.5 -225q-57 -12 -73 -12q-30 0 -30 28q0 11 6 47l18 103.5t20 117.5q-16 -9 -36 -9q-30 0 -59 15q-23 -154 -72.5 -261.5t-117.5 -107.5
q-148 0 -148 185q0 55 14 132t14 79q0 5 -2 5q-30 -96 -63.5 -176.5t-51.5 -113.5l-19 -33q-82 0 -120 26.5t-38 82.5q0 112 115 394q-60 -52 -112 -52q-32 0 -68 39t-36 65q0 7 4 11q35 0 121 23.5t88 23.5q13 0 44.5 -42t31.5 -74q0 -25 -36 -172t-36 -200q0 -47 23 -47
q9 0 45 84.5t78.5 207.5t64.5 215q30 6 47 6q19 0 26 -11t7 -40q0 -7 -18 -168t-18 -246q0 -128 38 -128t82 112t56 234q-41 62 -41 166q0 61 16.5 104t44.5 43q25 0 38 -50t13 -132q0 -54 -6 -114q10 -11 29.5 -10.5t43.5 18.5t33 43q15 112 15 184q30 7 44 7q28 0 41 -20
t13 -66q0 -70 -40 -215t-40 -156q0 -2 2 -4q12 48 29 95t39.5 91t50 71.5t55.5 27.5q39 0 39 -78q0 -30 -7 -96t-7 -91q0 -59 26 -59q34 0 82 122z" />
    <glyph glyph-name="W_i" unicode="Wi" horiz-adv-x="992" 
d="M996 174q16 -9 16 -30q0 -52 -55.5 -127t-110.5 -75q-68 0 -68 114q0 71 26 179q-24 -8 -47 -8q-27 0 -50 10q-10 -73 -26 -135t-38.5 -115t-54.5 -83.5t-69 -30.5q-148 0 -148 185q0 55 14 132t14 79q0 5 -2 5q-30 -96 -63.5 -176.5t-51.5 -113.5l-19 -33
q-82 0 -120 26.5t-38 82.5q0 112 115 394q-60 -52 -112 -52q-32 0 -68 39t-36 65q0 7 4 11q35 0 121 23.5t88 23.5q13 0 44.5 -42t31.5 -74q0 -25 -36 -172t-36 -200q0 -47 23 -47q9 0 45 84.5t78.5 207.5t64.5 215q30 6 47 6q19 0 26 -11t7 -40q0 -7 -18 -168t-18 -246
q0 -128 38 -128q31 0 71.5 92t65.5 245q-40 61 -40 175q0 61 16.5 104t44.5 43q50 0 50 -159q0 -62 -6 -134q3 -13 18 -13t36 9.5t42.5 20.5t41.5 20t29 9q16 0 16 -7q0 -1 -5.5 -36t-11 -84.5t-5.5 -86.5q0 -89 31 -89q19 0 45.5 35t42.5 81zM849 405q-44 0 -44 72
q0 41 12 94q54 17 88 17q44 0 44 -45q0 -50 -31.5 -94t-68.5 -44z" />
    <glyph glyph-name="W_o" unicode="Wo" horiz-adv-x="1090" 
d="M1109 237q9 0 15.5 -10.5t6.5 -27.5q0 -57 -34.5 -92.5t-79.5 -35.5q-16 0 -27 4q-23 -63 -60 -97.5t-75 -34.5q-47 0 -69 39t-22 102q0 70 24 144q-4 -1 -13 -1q-35 0 -66 16q-14 -98 -39 -178.5t-64.5 -136t-86.5 -55.5q-148 0 -148 185q0 55 14 132t14 79q0 5 -2 5
q-30 -96 -63.5 -176.5t-51.5 -113.5l-19 -33q-82 0 -120 26.5t-38 82.5q0 112 115 394q-60 -52 -112 -52q-32 0 -68 39t-36 65q0 7 4 11q35 0 121 23.5t88 23.5q13 0 44.5 -42t31.5 -74q0 -25 -36 -172t-36 -200q0 -47 23 -47q9 0 45 84.5t78.5 207.5t64.5 215q30 6 47 6
q19 0 26 -11t7 -40q0 -7 -18 -168t-18 -246q0 -128 38 -128t82 112t56 235q-41 61 -41 165q0 61 16.5 104t44.5 43q25 0 38 -50t13 -132q0 -48 -5 -111q4 -7 23 -7q49 0 103 28q26 28 51 28q16 0 24 -11q16 39 40 39q23 0 40 -39.5t17 -112.5q0 -54 -10 -106q10 -8 21 -8
q26 0 49.5 29.5t32.5 81.5zM887 31q18 0 36 20t29 51q-47 54 -47 164q0 38 9 74q-18 -24 -39 -103t-21 -137q0 -69 33 -69z" />
    <glyph glyph-name="W_u" unicode="Wu" horiz-adv-x="1162" 
d="M1165 174q15 -7 15 -32q0 -55 -56 -131t-113 -76q-50 0 -50 67q0 20 6 59.5t6 40.5v2q0 2 -3 4q-22 -85 -58.5 -130t-72.5 -45q-66 0 -66 114q0 73 25 185q-17 -7 -35 -7q-29 0 -55 17q-15 -100 -38 -179t-63 -134.5t-88 -55.5q-148 0 -148 185q0 55 14 132t14 79
q0 5 -2 5q-30 -96 -63.5 -176.5t-51.5 -113.5l-19 -33q-82 0 -120 26.5t-38 82.5q0 112 115 394q-60 -52 -112 -52q-32 0 -68 39t-36 65q0 7 4 11q35 0 121 23.5t88 23.5q13 0 44.5 -42t31.5 -74q0 -25 -36 -172t-36 -200q0 -47 23 -47q9 0 45 84.5t78.5 207.5t64.5 215
q30 6 47 6q19 0 26 -11t7 -40q0 -7 -18 -168t-18 -246q0 -128 38 -128q29 0 73.5 108t66.5 242q-42 69 -42 162q0 61 16.5 104t44.5 43q50 0 50 -159q0 -61 -6 -131q3 -10 25 -10q37 0 85.5 22t56.5 22q11 0 11 -11q-29 -177 -29 -243q0 -56 22 -56q12 0 28 29.5t36 105.5
t34 185q22 8 42 8q37 0 37 -37q0 -8 -8 -75t-8 -116q0 -91 27 -91q34 0 89 123z" />
    <glyph glyph-name="A_l_l" unicode="All" horiz-adv-x="1104" 
d="M1107 174q17 -10 17 -36q0 -54 -53 -134.5t-99 -80.5q-68 0 -77 148q-22 -48 -59.5 -86.5t-68.5 -38.5q-52 0 -71 66q-39 -69 -89 -115t-95 -46q-87 0 -101 207q-198 -9 -242 -10q-23 -53 -28 -66q11 -7 11 -20q0 -33 -52 -115q-40 0 -40 48q0 43 46 156q-31 6 -49.5 42
t-18.5 66q0 17 7 17q17 -9 58 -9q13 0 55 2q113 248 231 443q37 10 64 10q34 0 46 -54t25 -229q2 -21 4 -138h13q15 0 24.5 -7t13.5 -23.5t5.5 -28.5t2 -39t1.5 -38q-30 0 -49 -1q12 -69 44 -69q22 0 49 30t52 77v24q0 56 10 182.5t20 225.5l9 98q22 2 29 2q52 0 70.5 -25.5
t18.5 -81.5q0 -137 -73 -388q3 -82 38 -82q20 0 44 30t45 82q3 65 13.5 170.5t19.5 178.5l8 73q60 -4 83.5 -28.5t23.5 -73.5q0 -69 -64 -295q-2 -32 -2 -48q0 -100 34 -100q20 0 47.5 36.5t48.5 91.5zM401 518q-78 -138 -174 -342q128 14 181 18q2 106 2 179q0 109 -1 152
q-5 0 -8 -7z" />
    <glyph glyph-name="A_m_s" unicode="Ams" horiz-adv-x="1499" 
d="M1398 325q0 -46 22 -125.5t22 -111.5q0 -68 -50 -116t-101 -48q-28 0 -43 15t-15 37q0 15 8 31q7 -19 30 -19q34 0 51 32t17 80q0 50 -16 146q-23 -135 -76 -214.5t-117 -79.5q-78 0 -78 119q0 53 17 138t17 89q0 5 -2 5q-15 0 -54.5 -112t-60.5 -214q0 -5 -27.5 -12.5
t-49.5 -7.5q-27 0 -27 13q0 2 13.5 114t13.5 158q0 37 -8 37q-16 0 -53 -115t-53 -206q-52 -12 -72 -12q-31 0 -31 25q0 6 4 44q-31 -70 -74 -117t-85 -47q-95 0 -109 207q-198 -9 -242 -10q-23 -53 -28 -66q11 -7 11 -20q0 -33 -52 -115q-40 0 -40 48q0 43 46 156
q-31 6 -49.5 42t-18.5 66q0 17 7 17q17 -9 58 -9q13 0 55 2q113 248 231 443q40 10 59 10q10 0 17.5 -2.5t14 -9.5t11 -16t9 -27t7.5 -36.5t6 -50t5.5 -62.5t5.5 -79q2 -23 3 -74t2 -64h12q15 0 24.5 -7t13.5 -23.5t5.5 -28.5t2 -39t1.5 -38q-30 0 -50 -1q12 -79 45 -79
q35 0 67.5 65.5t46.5 149t3 134.5q105 44 105 -49q0 -43 -17.5 -112.5t-17.5 -75.5q0 -2 2 -4q30 114 70.5 198.5t83.5 84.5q54 0 54 -103q0 -56 -20 -156q-1 -4 1 -4t3 4q9 36 23 76.5t35 88.5t49 79t57 31q44 0 44 -83q0 -32 -8 -102.5t-8 -96.5q0 -56 26 -56
q31 0 71 89.5t56 201.5q-1 6 -1 17q1 10 31 21t52 11q16 0 16 -8q-9 -31 -9 -61zM401 518q-78 -138 -174 -342q128 14 181 18q2 106 2 179q0 109 -1 152q-4 0 -8 -7z" />
    <glyph glyph-name="A_n_s" unicode="Ans" horiz-adv-x="1312" 
d="M1211 325q0 -46 22 -125.5t22 -111.5q0 -68 -50 -116t-101 -48q-28 0 -43 15t-15 37q0 15 8 31q7 -19 30 -19q34 0 51 32t17 80q0 50 -16 146q-23 -135 -76 -214.5t-117 -79.5q-78 0 -78 119q0 53 17 144t17 95q0 5 -2 5q-16 0 -57 -123t-65 -240q-52 -12 -72 -12
q-31 0 -31 25q0 6 9 67q-29 -76 -72.5 -128.5t-88.5 -52.5q-95 0 -109 207q-198 -9 -242 -10q-23 -53 -28 -66q11 -7 11 -20q0 -33 -52 -115q-40 0 -40 48q0 43 46 156q-31 6 -49.5 42t-18.5 66q0 17 7 17q17 -9 58 -9q13 0 55 2q113 248 231 443q40 10 59 10
q10 0 17.5 -2.5t14 -9.5t11 -16t9 -27t7.5 -36.5t6 -50t5.5 -62.5t5.5 -79q2 -23 3 -74t2 -64h12q15 0 24.5 -7t13.5 -23.5t5.5 -28.5t2 -39t1.5 -38q-30 0 -50 -1q12 -79 45 -79q35 0 74.5 98.5t39.5 193.5q0 33 -6 60q36 19 62 19q46 0 46 -67q0 -28 -15.5 -105.5
t-15.5 -86.5q0 -2 2 -4q13 52 29 100.5t38 99t49 81t55 30.5q44 0 44 -86q0 -32 -8 -108.5t-8 -99.5q0 -56 26 -56q31 0 71 91t56 200q-1 6 -1 17q1 10 31 21t52 11q16 0 16 -8q-9 -31 -9 -61zM401 518q-78 -138 -174 -342q128 14 181 18q2 106 2 179q0 109 -1 152
q-4 0 -8 -7z" />
    <glyph glyph-name="E_m_s" unicode="Ems" horiz-adv-x="1454" 
d="M499 75q15 0 26 -4t19.5 -16t13 -21t13.5 -31.5t15 -35.5q-19 0 -71.5 -22t-120.5 -44t-124 -22q-96 0 -160.5 65t-64.5 130q0 37 11 87q-6 24 -6 38q0 13 23 28q29 96 85 222q-31 14 -63 36t-32 34q0 18 158 60t241 42q30 0 70.5 -36t40.5 -58q-51 -10 -185 -41.5
t-168 -38.5q-25 -86 -43 -186q80 15 134 15q9 0 16 -1t12 -2.5t9 -6.5l6.5 -8t6 -13l5.5 -15.5t6.5 -21l7.5 -25.5q-140 -25 -222 -58q-3 -33 -3 -61q0 -108 56 -108q38 0 144 59.5t144 59.5zM1353 325q0 -46 22 -125.5t22 -111.5q0 -68 -50 -116t-101 -48q-28 0 -43 15
t-15 37q0 15 8 31q7 -19 30 -19q34 0 51 32t17 80q0 50 -16 146q-23 -135 -76 -214.5t-117 -79.5q-78 0 -78 119q0 53 17 138t17 89q0 5 -2 5q-15 0 -54.5 -112t-60.5 -214q0 -5 -27.5 -12.5t-49.5 -7.5q-27 0 -27 13q0 2 13.5 114t13.5 158q0 37 -8 37q-16 0 -53 -115
t-53 -206q-52 -12 -72 -12q-31 0 -31 25q0 10 4 37t16 97.5t23 145.5q-42 -5 -59 -5q-26 0 -39.5 6.5t-17 14.5t-6.5 25q23 6 55.5 16.5l55 18t26.5 7.5q9 0 36 -19.5t34 -41.5q0 -22 -6.5 -57.5t-11.5 -59.5t-3 -27q13 47 28.5 88t34 78.5t39.5 59t42 21.5q54 0 54 -103
q0 -56 -20 -156q-1 -4 1 -4t3 4q9 36 23 76.5t35 88.5t49 79t57 31q44 0 44 -83q0 -32 -8 -102.5t-8 -96.5q0 -56 26 -56q31 0 71 89.5t56 201.5q-1 6 -1 17q1 10 31 21t52 11q16 0 16 -8q-9 -31 -9 -61z" />
    <glyph glyph-name="E_u_s" unicode="Eus" horiz-adv-x="1259" 
d="M499 75q15 0 26 -4t19.5 -16t13 -21t13.5 -31.5t15 -35.5q-19 0 -71.5 -22t-120.5 -44t-124 -22q-96 0 -160.5 65t-64.5 130q0 37 11 87q-6 24 -6 38q0 13 23 28q29 96 85 222q-31 14 -63 36t-32 34q0 18 158 60t241 42q30 0 70.5 -36t40.5 -58q-51 -10 -185 -41.5
t-168 -38.5q-25 -86 -43 -186q80 15 134 15q9 0 16 -1t12 -2.5t9 -6.5l6.5 -8t6 -13l5.5 -15.5t6.5 -21l7.5 -25.5q-140 -25 -222 -58q-3 -33 -3 -61q0 -108 56 -108q38 0 144 59.5t144 59.5zM1158 325q0 -46 22 -125.5t22 -111.5q0 -68 -50 -116t-101 -48q-28 0 -43 15
t-15 37q0 15 8 31q7 -19 30 -19q34 0 51 32t17 80q0 46 -17 152q-27 -138 -90.5 -227.5t-123.5 -89.5q-50 0 -50 67q0 20 6 59.5t6 40.5v2q0 2 -3 4q-22 -85 -58.5 -130t-72.5 -45q-66 0 -66 114q0 75 29 205q-36 -7 -63 -7q-34 0 -47.5 12.5t-16.5 37.5q132 39 137 39
q13 0 42.5 -22.5t29.5 -39.5q-18 -124 -18 -174q0 -56 22 -56q12 0 28 29.5t36 105.5t34 185q22 8 42 8q37 0 37 -37q0 -8 -8 -75t-8 -116q0 -91 27 -91q31 0 75.5 93.5t60.5 200.5q-1 6 -1 17q1 10 31 21t52 11q16 0 16 -8q-9 -31 -9 -61z" />
    <glyph glyph-name="E_n_s" unicode="Ens" horiz-adv-x="1269" 
d="M499 75q15 0 26 -4t19.5 -16t13 -21t13.5 -31.5t15 -35.5q-19 0 -71.5 -22t-120.5 -44t-124 -22q-96 0 -160.5 65t-64.5 130q0 37 11 87q-6 24 -6 38q0 13 23 28q29 96 85 222q-31 14 -63 36t-32 34q0 18 158 60t241 42q30 0 70.5 -36t40.5 -58q-51 -10 -185 -41.5
t-168 -38.5q-25 -86 -43 -186q80 15 134 15q9 0 16 -1t12 -2.5t9 -6.5l6.5 -8t6 -13l5.5 -15.5t6.5 -21l7.5 -25.5q-140 -25 -222 -58q-3 -33 -3 -61q0 -108 56 -108q38 0 144 59.5t144 59.5zM1168 325q0 -46 22 -125.5t22 -111.5q0 -68 -50 -116t-101 -48q-28 0 -43 15
t-15 37q0 15 8 31q7 -19 30 -19q34 0 51 32t17 80q0 50 -16 146q-23 -135 -76 -214.5t-117 -79.5q-78 0 -78 119q0 53 17 144t17 95q0 5 -2 5q-16 0 -57 -123t-65 -240q-52 -12 -72 -12q-31 0 -31 25q0 11 4 38.5t16 101.5l23 146q-42 -5 -62 -5q-28 0 -42 10.5t-18 38.5
q17 4 50.5 14.5t58 17.5t28.5 7q9 0 36 -19.5t34 -41.5q0 -24 -7 -61t-12 -60.5t-2 -23.5q19 69 41 126t55 103.5t66 46.5q44 0 44 -86q0 -30 -8 -106.5t-8 -101.5q0 -56 26 -56q31 0 71 91t56 200q-1 6 -1 17q1 10 31 21t52 11q16 0 16 -8q-9 -31 -9 -61z" />
    <glyph glyph-name="M_a_s" unicode="Mas" horiz-adv-x="1293" 
d="M1192 325q0 -46 22 -125.5t22 -111.5q0 -68 -50 -116t-101 -48q-28 0 -43 15t-15 37q0 15 8 31q7 -19 30 -19q34 0 51 32t17 80q0 46 -17 150q-25 -132 -82 -216t-108 -84q-30 0 -46 21.5t-16 57.5q0 15 4 36t4 25q0 6 -3 7q-19 -72 -53.5 -110t-71.5 -38q-40 0 -59 39
q-9 -33 -52 -65t-85 -32q-101 0 -101 191q0 150 77 498q-3 -1 -4 -4q-47 -100 -112.5 -285.5t-70.5 -264.5q-12 -1 -28 -1q-49 0 -69 30q-15 20 -24 90t-16.5 175.5t-12.5 145.5q0 4 -4 6q-62 -207 -78 -401q23 -2 23 -43q0 -26 -9 -78q-12 -3 -30 -3q-68 0 -68 87
q0 83 31.5 204t75.5 232h-4q-28 0 -28 32q0 17 8 54q89 27 124 27q33 0 57 -65t33 -140.5t9 -142.5q0 -4 1 -5q2 -1 3 3q1 1 1 2q30 105 83.5 231t95.5 181q53 15 82 15q14 0 21.5 -3.5t6.5 -11.5q-54 -306 -54 -469q0 -183 64 -183q21 0 45 17q-7 24 -7 59q0 67 24 139.5
t70.5 125.5t99.5 53q33 0 51.5 -25t18.5 -59q0 -37 -19.5 -64.5t-53.5 -27.5q-1 0 -3.5 0.5t-4.5 0.5q17 36 17 82q0 34 -14 34q-33 0 -61.5 -82t-28.5 -150q0 -55 21 -55q19 0 43.5 47t36.5 118q45 -9 60.5 -30.5t16.5 -79.5q0 -40 22 -40q33 0 77.5 88.5t60.5 198.5
q-1 6 -1 17q1 10 31 21t52 11q16 0 16 -8q-9 -31 -9 -61z" />
    <glyph glyph-name="M_e_s" unicode="Mes" horiz-adv-x="1197" 
d="M1096 325q0 -46 22 -125.5t22 -111.5q0 -68 -50 -116t-101 -48q-28 0 -43 15t-15 37q0 15 8 31q7 -19 30 -19q34 0 51 32t17 80q0 52 -19 162q-8 -53 -26.5 -106t-47.5 -100.5t-72 -77.5t-92 -30q-61 0 -94 43q-8 -33 -51.5 -66.5t-86.5 -33.5q-101 0 -101 191
q0 150 77 498q-3 -1 -4 -4q-47 -100 -112.5 -285.5t-70.5 -264.5q-12 -1 -28 -1q-49 0 -69 30q-15 20 -24 90t-16.5 175.5t-12.5 145.5q0 4 -4 6q-62 -207 -78 -401q23 -2 23 -43q0 -26 -9 -78q-12 -3 -30 -3q-68 0 -68 87q0 83 31.5 204t75.5 232h-4q-28 0 -28 32
q0 17 8 54q89 27 124 27q33 0 57 -65t33 -140.5t9 -142.5q0 -4 1 -5q2 -1 3 3q1 1 1 2q30 105 83.5 231t95.5 181q53 15 82 15q14 0 21.5 -3.5t6.5 -11.5q-54 -306 -54 -469q0 -183 64 -183q20 0 43 15q-19 38 -19 92q0 101 53.5 198.5t122.5 97.5q32 0 50 -28t18 -70
q0 -64 -36.5 -116.5t-100.5 -52.5h-12v-15q0 -93 58 -93q57 0 115 100.5t83 230.5v8q1 10 31 21t52 11q16 0 16 -8q-9 -32 -9 -61zM821 339q-17 0 -35.5 -44t-28.5 -102q14 -2 21 -2q25 0 31 8q5 6 16.5 45.5t11.5 65.5q0 29 -16 29z" />
    <glyph glyph-name="M_i_s" unicode="Mis" horiz-adv-x="1114" 
d="M1013 325q0 -46 22 -125.5t22 -111.5q0 -68 -50 -116t-101 -48q-28 0 -43 15t-15 37q0 15 8 31q7 -19 30 -19q34 0 51 32t17 80q0 42 -15 141q-26 -132 -84 -215.5t-114 -83.5q-41 0 -57 42q-12 -32 -54 -62.5t-82 -30.5q-101 0 -101 191q0 150 77 498q-3 -1 -4 -4
q-47 -100 -112.5 -285.5t-70.5 -264.5q-12 -1 -28 -1q-49 0 -69 30q-15 20 -24 90t-16.5 175.5t-12.5 145.5q0 4 -4 6q-62 -207 -78 -401q23 -2 23 -43q0 -26 -9 -78q-12 -3 -30 -3q-68 0 -68 87q0 83 31.5 204t75.5 232h-4q-28 0 -28 32q0 17 8 54q89 27 124 27
q33 0 57 -65t33 -140.5t9 -142.5q0 -4 1 -5q2 -1 3 3q1 1 1 2q30 105 83.5 231t95.5 181q53 15 82 15q14 0 21.5 -3.5t6.5 -11.5q-54 -306 -54 -469q0 -183 64 -183q21 0 45 17q-3 19 -3 44q0 82 36 223q-2 11 -5.5 23l-5.5 18.5t-2 7.5q0 10 30.5 21.5t52.5 11.5
q15 0 15 -7q-2 -7 -7 -38.5t-10 -81t-5 -87.5q0 -89 28 -89q30 0 71.5 93t52.5 192q-1 7 -1 19q1 10 31 21t52 11q16 0 16 -8q-9 -32 -9 -61zM744 405q-44 0 -44 72q0 41 12 94q54 17 88 17q44 0 44 -45q0 -50 -31.5 -94t-68.5 -44z" />
    <glyph glyph-name="M_o_r" unicode="Mor" horiz-adv-x="1277" 
d="M1282 176q15 -12 15 -37q0 -55 -57 -120.5t-117 -65.5q-70 0 -70 82q0 63 33.5 152.5t51.5 110.5q-10 0 -82 -28q-17 -119 -56 -170.5t-83 -51.5q-19 0 -34 9q-24 -55 -58.5 -84.5t-69.5 -29.5q-47 0 -71 42q-11 -33 -53 -63.5t-83 -30.5q-101 0 -101 191q0 150 77 498
q-3 -1 -4 -4q-47 -100 -112.5 -285.5t-70.5 -264.5q-12 -1 -28 -1q-49 0 -69 30q-15 20 -24 90t-16.5 175.5t-12.5 145.5q0 4 -4 6q-62 -207 -78 -401q23 -2 23 -43q0 -26 -9 -78q-12 -3 -30 -3q-68 0 -68 87q0 83 31.5 204t75.5 232h-4q-28 0 -28 32q0 17 8 54
q89 27 124 27q33 0 57 -65t33 -140.5t9 -142.5q0 -4 1 -5q2 -1 3 3q1 1 1 2q30 105 83.5 231t95.5 181q53 15 82 15q14 0 21.5 -3.5t6.5 -11.5q-54 -306 -54 -469q0 -183 64 -183q20 0 43 15q-10 31 -10 74q0 95 41 187.5t90 92.5q16 0 24 -11q16 39 40 39q23 0 40 -39.5
t17 -112.5q0 -64 -13 -122q6 -8 15 -8q22 0 48 40.5t43 111.5q-23 17 -49 105q29 8 95.5 21.5t90.5 13.5q11 0 31.5 -32.5t20.5 -52.5q-9 -12 -20 -68.5t-11 -104.5q0 -80 30 -80q17 0 40 30t45 82zM787 31q16 0 32.5 16.5t27.5 43.5q-42 63 -42 175q0 38 9 74
q-18 -24 -39 -103t-21 -137q0 -69 33 -69z" />
    <glyph glyph-name="M_o_s" unicode="Mos" horiz-adv-x="1230" 
d="M1129 325q0 -46 22 -125.5t22 -111.5q0 -68 -50 -116t-101 -48q-28 0 -43 15t-15 37q0 15 8 31q7 -19 30 -19q34 0 51 32t17 80q0 52 -16 146q-19 -106 -57.5 -152t-79.5 -46q-19 0 -34 9q-24 -55 -58.5 -84.5t-69.5 -29.5q-47 0 -71 42q-11 -33 -53 -63.5t-83 -30.5
q-101 0 -101 191q0 150 77 498q-3 -1 -4 -4q-47 -100 -112.5 -285.5t-70.5 -264.5q-12 -1 -28 -1q-49 0 -69 30q-15 20 -24 90t-16.5 175.5t-12.5 145.5q0 4 -4 6q-62 -207 -78 -401q23 -2 23 -43q0 -26 -9 -78q-12 -3 -30 -3q-68 0 -68 87q0 83 31.5 204t75.5 232h-4
q-28 0 -28 32q0 17 8 54q89 27 124 27q33 0 57 -65t33 -140.5t9 -142.5q0 -4 1 -5q2 -1 3 3q1 1 1 2q30 105 83.5 231t95.5 181q53 15 82 15q14 0 21.5 -3.5t6.5 -11.5q-54 -306 -54 -469q0 -183 64 -183q20 0 43 15q-10 31 -10 74q0 95 41 187.5t90 92.5q16 0 24 -11
q16 39 40 39q23 0 40 -39.5t17 -112.5q0 -64 -13 -122q6 -8 15 -8q30 0 68.5 65.5t53.5 169.5q-1 6 -1 17q1 10 31 21t52 11q16 0 16 -8q-9 -31 -9 -61zM787 31q16 0 32.5 16.5t27.5 43.5q-42 63 -42 175q0 38 9 74q-18 -24 -39 -103t-21 -137q0 -69 33 -69z" />
    <glyph glyph-name="M_u_s" unicode="Mus" horiz-adv-x="1295" 
d="M1194 325q0 -46 22 -125.5t22 -111.5q0 -68 -50 -116t-101 -48q-28 0 -43 15t-15 37q0 15 8 31q7 -19 30 -19q34 0 51 32t17 80q0 46 -17 152q-27 -138 -90.5 -227.5t-123.5 -89.5q-50 0 -50 67q0 20 6 59.5t6 40.5q1 4 -3 6q-22 -84 -58.5 -129.5t-72.5 -45.5
q-38 0 -54 38q-18 -30 -56 -55t-74 -25q-101 0 -101 191q0 150 77 498q-3 -1 -4 -4q-47 -100 -112.5 -285.5t-70.5 -264.5q-12 -1 -28 -1q-49 0 -69 30q-15 20 -24 90t-16.5 175.5t-12.5 145.5q0 4 -4 6q-62 -207 -78 -401q23 -2 23 -43q0 -26 -9 -78q-12 -3 -30 -3
q-68 0 -68 87q0 83 31.5 204t75.5 232h-4q-28 0 -28 32q0 17 8 54q89 27 124 27q33 0 57 -65t33 -140.5t9 -142.5q0 -4 1 -5q2 -1 3 3q1 1 1 2q30 105 83.5 231t95.5 181q53 15 82 15q14 0 21.5 -3.5t6.5 -11.5q-54 -306 -54 -469q0 -183 64 -183q16 0 37 12q-2 24 -2 40
q0 75 35 231l-14 40q0 9 29.5 22.5t51.5 13.5q20 0 20 -13q-29 -177 -29 -243q0 -56 22 -56q12 0 28 29.5t36 105.5t34 185q22 8 42 8q37 0 37 -37q0 -8 -8 -75t-8 -116q0 -91 27 -91q31 0 75.5 93.5t60.5 200.5q-1 6 -1 17q1 10 31 21t52 11q16 0 16 -8q-9 -31 -9 -61z" />
    <glyph glyph-name="O_v_e" unicode="Ove" horiz-adv-x="1242" 
d="M1250 199q21 0 21 -33q0 -27 -14 -63t-38.5 -71t-64.5 -59.5t-86 -24.5q-58 0 -89 37t-36 98q-20 -2 -31 -2q-30 0 -56 12q-25 -74 -65.5 -115.5t-81.5 -41.5q-98 0 -98 155q0 75 26 172q-54 -19 -93 -30q-26 -155 -114.5 -242.5t-189.5 -87.5q-90 0 -151.5 71.5
t-61.5 202.5q0 87 25.5 172t61 135.5t67.5 54.5q48 88 134 88q131 0 184.5 -68t53.5 -215q0 -20 -1 -29q51 11 108 28q21 0 43 -16t22 -32q-19 -86 -19 -159q0 -100 42 -100q18 0 37.5 24t31.5 66q-29 42 -29 116q0 69 17.5 112t39.5 43q17 0 28 -30t11 -89q0 -74 -14 -135
q10 -14 35 -14q14 0 38 4q8 103 65 188.5t122 85.5q60 0 60 -60q0 -52 -44 -119t-109 -108q4 -97 59 -97q41 0 88.5 53t65.5 123zM335 564q-46 0 -81 -51.5t-35 -109.5q0 -65 30 -88.5t112 -23.5q42 0 90 6q1 12 1 35q0 115 -34 173.5t-83 58.5zM285 -20q54 0 98.5 60
t60.5 174q-28 -2 -43 -2q-122 0 -184 62.5t-63 151.5q-24 -76 -24 -168q0 -115 40 -196.5t115 -81.5zM1114 346q-22 0 -43 -47.5t-30 -109.5q37 34 60.5 75.5t23.5 65.5q0 16 -11 16z" />
    <glyph glyph-name="O_w_e" unicode="Owe" horiz-adv-x="1403" 
d="M1405 199q21 0 21 -33q0 -27 -14 -63t-38.5 -71t-64.5 -59.5t-86 -24.5q-58 0 -88.5 37t-36.5 98q-20 -2 -31 -2q-31 0 -56 12q-47 -138 -127 -138q-74 0 -74 113q0 32 8 93q1 4 -1 5l-3 -5q-55 -216 -133 -216q-77 0 -77 119q0 69 32 201q-41 -16 -92 -32
q-26 -155 -114.5 -242.5t-189.5 -87.5q-90 0 -151.5 71.5t-61.5 202.5q0 87 25.5 172t61 135.5t67.5 54.5q48 88 134 88q131 0 184.5 -68t53.5 -215q0 -19 -1 -28q57 13 103 27q19 0 42.5 -16t23.5 -30q-24 -98 -24 -185q0 -61 19 -61q14 0 31 31t36 103.5t31 172.5
q1 7 27.5 15t44.5 8q10 0 10 -4q0 -5 -5 -30t-10 -65t-5 -81q0 -69 12.5 -107t31.5 -38q27 0 51 72q-28 43 -28 114q0 69 18.5 112t41.5 43q19 0 29.5 -31.5t10.5 -81.5q0 -67 -17 -141q10 -14 34 -14q14 0 38 4q8 103 65 188.5t122 85.5q60 0 60 -60q0 -52 -44 -119
t-109 -108q4 -97 59 -97q41 0 88.5 53t65.5 123zM335 564q-46 0 -81 -51.5t-35 -109.5q0 -65 30 -88.5t112 -23.5q45 0 90 7q1 11 1 34q0 115 -34 173.5t-83 58.5zM285 -20q54 0 98.5 60t60.5 174q-28 -2 -43 -2q-122 0 -184 62.5t-63 151.5q-24 -76 -24 -168
q0 -115 40 -196.5t115 -81.5zM1269 346q-22 0 -43 -47.5t-30 -109.5q37 34 60.5 75.5t23.5 65.5q0 16 -11 16z" />
    <glyph glyph-name="T_i_s" unicode="Tis" horiz-adv-x="799" 
d="M499 480q-36 -13 -234 -33l-60 -487q-2 -15 -45.5 -38t-67.5 -23q-13 0 -13 11q0 3 17 82l48 219l50 229q-105 -10 -165 -10q-37 0 -60.5 25.5t-51.5 108.5q35 13 311 32l2.5 10.5t1.5 9.5q4 2 6 2q11 0 26 -19q285 19 309 13q-38 -120 -74 -132zM698 325
q0 -46 22 -125.5t22 -111.5q0 -68 -50 -116t-101 -48q-28 0 -43 15t-15 37q0 15 8 31q7 -19 30 -19q34 0 51 32t17 80q0 42 -15 141q-26 -132 -84 -215.5t-114 -83.5q-68 0 -68 114q0 82 36 223q-2 11 -5.5 23l-5.5 18.5t-2 7.5q0 10 30.5 21.5t52.5 11.5q15 0 15 -7
q-2 -7 -7 -38.5t-10 -81t-5 -87.5q0 -89 28 -89q30 0 71.5 93t52.5 192q-1 7 -1 19q1 10 31 21t52 11q16 0 16 -8q-9 -32 -9 -61z" />
    <glyph glyph-name="V_a_s" unicode="Vas" horiz-adv-x="1220" 
d="M1121 325q0 -46 22 -125.5t22 -111.5q0 -68 -50 -116t-101 -48q-28 0 -43 15t-15 37q0 15 8 31q7 -19 30 -19q34 0 51 32t17 80q0 46 -17 150q-25 -132 -82 -216t-108 -84q-30 0 -46 21.5t-16 57.5q0 15 4 36t4 25q0 6 -3 7q-19 -72 -53.5 -110t-71.5 -38t-56 33.5
t-19 88.5q0 76 31 157q-4 -1 -14 -1q-37 0 -71 19q-24 -153 -69 -263t-96 -110q-124 0 -175 56.5t-51 162.5q0 149 57 348q-92 -70 -153 -70q-37 0 -77 49t-40 77q0 7 4 11q35 0 157 30t124 30q17 0 47.5 -37t30.5 -57q0 -3 -12.5 -125t-12.5 -196q0 -182 72 -182q8 0 20 11
t27 36.5t30.5 62t32.5 93t31 124.5q-40 63 -40 164q0 61 16.5 104t44.5 43q50 0 50 -159q0 -55 -8 -127h1q0 -14 26 -14q25 0 61 11.5t57 24.5q43 45 93 45q33 0 51.5 -25t18.5 -59q0 -37 -19.5 -64.5t-53.5 -27.5q-1 0 -3.5 0.5t-4.5 0.5q17 36 17 82q0 34 -14 34
q-33 0 -61.5 -82t-28.5 -150q0 -55 21 -55q19 0 43.5 47t36.5 118q45 -9 60.5 -30.5t16.5 -79.5q0 -40 22 -40q33 0 77.5 88.5t60.5 198.5q-1 6 -1 17q1 10 31 21t52 11q16 0 16 -8q-9 -32 -9 -61z" />
    <glyph glyph-name="V_e_s" unicode="Ves" horiz-adv-x="1152" 
d="M1053 325q0 -46 22 -125.5t22 -111.5q0 -68 -50 -116t-101 -48q-28 0 -43 15t-15 37q0 15 8 31q7 -19 30 -19q34 0 51 32t17 80q0 52 -19 162q-8 -53 -26.5 -106t-47.5 -100.5t-72 -77.5t-92 -30q-65 0 -95 43.5t-30 110.5q0 61 22 127q-12 -2 -19 -2q-37 0 -71 19
q-24 -153 -69 -263t-96 -110q-124 0 -175 56.5t-51 162.5q0 149 57 348q-92 -70 -153 -70q-37 0 -77 49t-40 77q0 7 4 11q35 0 157 30t124 30q17 0 47.5 -37t30.5 -57q0 -3 -12.5 -125t-12.5 -196q0 -182 72 -182q8 0 20 11t27 36.5t30.5 62t32.5 93t31 124.5
q-40 63 -40 164q0 61 16.5 104t44.5 43q50 0 50 -159q0 -55 -8 -127h1q0 -14 26 -14q53 0 109 31q46 59 98 59q32 0 50 -28t18 -70q0 -64 -36.5 -116.5t-100.5 -52.5h-12v-15q0 -93 58 -93q57 0 115 100.5t83 230.5v8q1 10 31 21t52 11q16 0 16 -8q-9 -32 -9 -61zM778 339
q-17 0 -35.5 -44t-28.5 -102q14 -2 21 -2q25 0 31 8q5 6 16.5 45.5t11.5 65.5q0 29 -16 29z" />
    <glyph glyph-name="V_i_s" unicode="Vis" horiz-adv-x="1074" 
d="M975 325q0 -46 22 -125.5t22 -111.5q0 -68 -50 -116t-101 -48q-28 0 -43 15t-15 37q0 15 8 31q7 -19 30 -19q34 0 51 32t17 80q0 42 -15 141q-26 -132 -84 -215.5t-114 -83.5q-68 0 -68 114q0 76 25 178q-20 -7 -45 -7q-37 0 -71 19q-24 -153 -69 -263t-96 -110
q-124 0 -175 56.5t-51 162.5q0 149 57 348q-92 -70 -153 -70q-37 0 -77 49t-40 77q0 7 4 11q35 0 157 30t124 30q17 0 47.5 -37t30.5 -57q0 -3 -12.5 -125t-12.5 -196q0 -182 72 -182q8 0 20 11t27 36.5t30.5 62t32.5 93t31 124.5q-40 63 -40 164q0 61 16.5 104t44.5 43
q50 0 50 -159q0 -55 -8 -127h1q0 -14 26 -14q22 0 88 26.5t72 26.5q15 0 15 -7q-2 -7 -7 -38.5t-10 -81t-5 -87.5q0 -89 28 -89q30 0 71.5 93t52.5 192q-1 7 -1 19q1 10 31 21t52 11q16 0 16 -8q-9 -32 -9 -61zM706 405q-44 0 -44 72q0 41 12 94q54 17 88 17q44 0 44 -45
q0 -50 -31.5 -94t-68.5 -44z" />
    <glyph glyph-name="V_o_r" unicode="Vor" horiz-adv-x="1217" 
d="M1222 176q15 -12 15 -37q0 -55 -57 -120.5t-117 -65.5q-70 0 -70 82q0 63 33.5 152.5t51.5 110.5q-10 0 -82 -28q-17 -119 -56 -170.5t-83 -51.5q-19 0 -34 9q-24 -55 -58.5 -84.5t-69.5 -29.5q-47 0 -69 39t-22 102q0 69 24 143h-5q-41 0 -78 22q-24 -153 -69.5 -264.5
t-96.5 -111.5q-124 0 -175 56.5t-51 162.5q0 149 57 348q-92 -70 -153 -70q-37 0 -77 49t-40 77q0 7 4 11q35 0 157 30t124 30q17 0 47.5 -37t30.5 -57q0 -3 -12.5 -125t-12.5 -196q0 -182 72 -182q15 0 37 31t52 110t53 190q-41 61 -41 160q0 61 16.5 104t44.5 43
q50 0 50 -159q0 -55 -8 -127h1q0 -14 26 -14q52 0 106 31q23 25 48 25q16 0 24 -11q16 39 40 39q23 0 40 -39.5t17 -112.5q0 -64 -13 -122q6 -8 15 -8q22 0 48 40.5t43 111.5q-23 17 -49 105q29 8 95.5 21.5t90.5 13.5q11 0 31.5 -32.5t20.5 -52.5q-9 -12 -20 -68.5
t-11 -104.5q0 -80 30 -80q17 0 40 30t45 82zM727 31q16 0 32.5 16.5t27.5 43.5q-42 63 -42 175q0 38 9 74q-18 -24 -39 -103t-21 -137q0 -69 33 -69z" />
    <glyph glyph-name="V_o_s" unicode="Vos" horiz-adv-x="1168" 
d="M1069 325q0 -46 22 -125.5t22 -111.5q0 -68 -50 -116t-101 -48q-28 0 -43 15t-15 37q0 15 8 31q7 -19 30 -19q34 0 51 32t17 80q0 52 -16 146q-19 -106 -57.5 -152t-79.5 -46q-19 0 -34 9q-24 -55 -58.5 -84.5t-69.5 -29.5q-47 0 -69 39t-22 102q0 69 24 143h-5
q-41 0 -78 22q-24 -153 -69.5 -264.5t-96.5 -111.5q-124 0 -175 56.5t-51 162.5q0 149 57 348q-92 -70 -153 -70q-37 0 -77 49t-40 77q0 7 4 11q35 0 157 30t124 30q17 0 47.5 -37t30.5 -57q0 -3 -12.5 -125t-12.5 -196q0 -182 72 -182q15 0 37 31t52 110t53 190
q-41 61 -41 160q0 61 16.5 104t44.5 43q50 0 50 -159q0 -55 -8 -127h1q0 -14 26 -14q52 0 106 31q23 25 48 25q16 0 24 -11q16 39 40 39q23 0 40 -39.5t17 -112.5q0 -64 -13 -122q6 -8 15 -8q30 0 68.5 65.5t53.5 169.5q-1 6 -1 17q1 10 31 21t52 11q16 0 16 -8
q-9 -32 -9 -61zM727 31q16 0 32.5 16.5t27.5 43.5q-42 63 -42 175q0 38 9 74q-18 -24 -39 -103t-21 -137q0 -69 33 -69z" />
    <glyph glyph-name="V_u_s" unicode="Vus" horiz-adv-x="1260" 
d="M1159 325q0 -46 22 -125.5t22 -111.5q0 -68 -50 -116t-101 -48q-28 0 -43 15t-15 37q0 15 8 31q7 -19 30 -19q34 0 51 32t17 80q0 46 -17 152q-27 -138 -90.5 -227.5t-123.5 -89.5q-50 0 -50 67q0 20 6 59.5t6 40.5v2q0 2 -3 4q-22 -85 -58.5 -130t-72.5 -45
q-66 0 -66 114q0 76 25 186q-20 -6 -41 -6q-37 0 -71 19q-24 -153 -69 -263t-96 -110q-124 0 -175 56.5t-51 162.5q0 149 57 348q-92 -70 -153 -70q-37 0 -77 49t-40 77q0 7 4 11q35 0 157 30t124 30q17 0 47.5 -37t30.5 -57q0 -3 -12.5 -125t-12.5 -196q0 -182 72 -182
q8 0 20 11t27 36.5t30.5 62t32.5 93t31 124.5q-40 63 -40 164q0 61 16.5 104t44.5 43q50 0 50 -159q0 -55 -8 -127h1q0 -14 26 -14q37 0 95 22t66 22q11 0 11 -11q-29 -177 -29 -243q0 -56 22 -56q12 0 28 29.5t36 105.5t34 185q22 8 42 8q37 0 37 -37q0 -8 -8 -75t-8 -116
q0 -91 27 -91q31 0 75.5 93.5t60.5 200.5q-1 6 -1 17q1 10 31 21t52 11q16 0 16 -8q-9 -31 -9 -61z" />
    <glyph glyph-name="W_a_s" unicode="Was" horiz-adv-x="1384" 
d="M1283 325q0 -46 22 -125.5t22 -111.5q0 -68 -50 -116t-101 -48q-28 0 -43 15t-15 37q0 15 8 31q7 -19 30 -19q34 0 51 32t17 80q0 46 -17 150q-25 -132 -82 -216t-108 -84q-30 0 -46 21.5t-16 57.5q0 15 4 36t4 25q0 6 -3 7q-19 -72 -53.5 -110t-71.5 -38t-56 33.5
t-19 88.5q0 76 31 157q-5 -1 -16 -1q-35 0 -66 16q-14 -98 -39 -178.5t-64.5 -136t-86.5 -55.5q-148 0 -148 185q0 55 14 132t14 79q0 5 -2 5q-30 -96 -63.5 -176.5t-51.5 -113.5l-19 -33q-82 0 -120 26.5t-38 82.5q0 112 115 394q-60 -52 -112 -52q-32 0 -68 39t-36 65
q0 7 4 11q35 0 121 23.5t88 23.5q13 0 44.5 -42t31.5 -74q0 -25 -36 -172t-36 -200q0 -47 23 -47q9 0 45 84.5t78.5 207.5t64.5 215q30 6 47 6q19 0 26 -11t7 -40q0 -7 -18 -168t-18 -246q0 -128 38 -128t82 112t56 235q-41 61 -41 165q0 61 16.5 104t44.5 43q25 0 38 -50
t13 -132q0 -48 -5 -111q4 -7 23 -7q27 0 66 13t58 27q43 41 89 41q33 0 51.5 -25t18.5 -59q0 -37 -19.5 -64.5t-53.5 -27.5q-1 0 -3.5 0.5t-4.5 0.5q17 36 17 82q0 34 -14 34q-33 0 -61.5 -82t-28.5 -150q0 -55 21 -55q19 0 43.5 47t36.5 118q45 -9 60.5 -30.5t16.5 -79.5
q0 -40 22 -40q33 0 77.5 88.5t60.5 198.5q-1 6 -1 17q1 10 31 21t52 11q16 0 16 -8q-9 -31 -9 -61z" />
    <glyph glyph-name="W_e_s" unicode="Wes" horiz-adv-x="1310" 
d="M1211 325q0 -46 22 -125.5t22 -111.5q0 -68 -50 -116t-101 -48q-28 0 -43 15t-15 37q0 15 8 31q7 -19 30 -19q34 0 51 32t17 80q0 52 -19 162q-8 -53 -26.5 -106t-47.5 -100.5t-72 -77.5t-92 -30q-65 0 -95 43.5t-30 110.5q0 60 22 126q-6 -1 -17 -1q-35 0 -66 16
q-14 -98 -39 -178.5t-64.5 -136t-86.5 -55.5q-148 0 -148 185q0 55 14 132t14 79q0 5 -2 5q-30 -96 -63.5 -176.5t-51.5 -113.5l-19 -33q-82 0 -120 26.5t-38 82.5q0 112 115 394q-60 -52 -112 -52q-32 0 -68 39t-36 65q0 7 4 11q35 0 121 23.5t88 23.5q13 0 44.5 -42
t31.5 -74q0 -25 -36 -172t-36 -200q0 -47 23 -47q9 0 45 84.5t78.5 207.5t64.5 215q30 6 47 6q19 0 26 -11t7 -40q0 -7 -18 -168t-18 -246q0 -128 38 -128t82 112t56 235q-41 61 -41 165q0 61 16.5 104t44.5 43q25 0 38 -50t13 -132q0 -48 -5 -111q4 -7 23 -7q50 0 106 29
q46 61 99 61q32 0 50 -28t18 -70q0 -64 -36.5 -116.5t-100.5 -52.5h-12v-15q0 -93 58 -93q57 0 115 100.5t83 230.5v8q1 10 31 21t52 11q16 0 16 -8q-9 -31 -9 -61zM936 339q-17 0 -35.5 -44t-28.5 -102q14 -2 21 -2q25 0 31 8q5 6 16.5 45.5t11.5 65.5q0 29 -16 29z" />
    <glyph glyph-name="W_i_s" unicode="Wis" horiz-adv-x="1219" 
d="M1118 325q0 -46 22 -125.5t22 -111.5q0 -68 -50 -116t-101 -48q-28 0 -43 15t-15 37q0 15 8 31q7 -19 30 -19q34 0 51 32t17 80q0 42 -15 141q-26 -132 -84 -215.5t-114 -83.5q-68 0 -68 114q0 71 26 179q-24 -8 -47 -8q-27 0 -50 10q-10 -73 -26 -135t-38.5 -115
t-54.5 -83.5t-69 -30.5q-148 0 -148 185q0 55 14 132t14 79q0 5 -2 5q-30 -96 -63.5 -176.5t-51.5 -113.5l-19 -33q-82 0 -120 26.5t-38 82.5q0 112 115 394q-60 -52 -112 -52q-32 0 -68 39t-36 65q0 7 4 11q35 0 121 23.5t88 23.5q13 0 44.5 -42t31.5 -74q0 -25 -36 -172
t-36 -200q0 -47 23 -47q9 0 45 84.5t78.5 207.5t64.5 215q30 6 47 6q19 0 26 -11t7 -40q0 -7 -18 -168t-18 -246q0 -128 38 -128q31 0 71.5 92t65.5 245q-40 61 -40 175q0 61 16.5 104t44.5 43q50 0 50 -159q0 -62 -6 -134q3 -13 18 -13t36 9.5t42.5 20.5t41.5 20t29 9
q16 0 16 -7q0 -1 -5.5 -36t-11 -84.5t-5.5 -86.5q0 -89 28 -89q30 0 71.5 93t52.5 192q-1 7 -1 19q1 10 31 21t52 11q16 0 16 -8q-9 -32 -9 -61zM849 405q-44 0 -44 72q0 41 12 94q54 17 88 17q44 0 44 -45q0 -50 -31.5 -94t-68.5 -44z" />
    <glyph glyph-name="W_o_r" unicode="Wor" horiz-adv-x="1377" 
d="M1382 176q15 -12 15 -37q0 -55 -57 -120.5t-117 -65.5q-70 0 -70 82q0 63 33.5 152.5t51.5 110.5q-10 0 -82 -28q-17 -119 -56 -170.5t-83 -51.5q-19 0 -34 9q-24 -55 -58.5 -84.5t-69.5 -29.5q-47 0 -69 39t-22 102q0 70 24 144q-4 -1 -13 -1q-35 0 -66 16
q-14 -98 -39 -178.5t-64.5 -136t-86.5 -55.5q-148 0 -148 185q0 55 14 132t14 79q0 5 -2 5q-30 -96 -63.5 -176.5t-51.5 -113.5l-19 -33q-82 0 -120 26.5t-38 82.5q0 112 115 394q-60 -52 -112 -52q-32 0 -68 39t-36 65q0 7 4 11q35 0 121 23.5t88 23.5q13 0 44.5 -42
t31.5 -74q0 -25 -36 -172t-36 -200q0 -47 23 -47q9 0 45 84.5t78.5 207.5t64.5 215q30 6 47 6q19 0 26 -11t7 -40q0 -7 -18 -168t-18 -246q0 -128 38 -128t82 112t56 235q-41 61 -41 165q0 61 16.5 104t44.5 43q25 0 38 -50t13 -132q0 -48 -5 -111q4 -7 23 -7q49 0 103 28
q26 28 51 28q16 0 24 -11q16 39 40 39q23 0 40 -39.5t17 -112.5q0 -64 -13 -122q6 -8 15 -8q22 0 48 40.5t43 111.5q-23 17 -49 105q29 8 95.5 21.5t90.5 13.5q11 0 31.5 -32.5t20.5 -52.5q-9 -12 -20 -68.5t-11 -104.5q0 -80 30 -80q17 0 40 30t45 82zM887 31
q16 0 32.5 16.5t27.5 43.5q-42 63 -42 175q0 38 9 74q-18 -24 -39 -103t-21 -137q0 -69 33 -69z" />
    <glyph glyph-name="W_o_s" unicode="Wos" horiz-adv-x="1330" 
d="M1229 325q0 -46 22 -125.5t22 -111.5q0 -68 -50 -116t-101 -48q-28 0 -43 15t-15 37q0 15 8 31q7 -19 30 -19q34 0 51 32t17 80q0 52 -16 146q-19 -106 -57.5 -152t-79.5 -46q-19 0 -34 9q-24 -55 -58.5 -84.5t-69.5 -29.5q-47 0 -69 39t-22 102q0 70 24 144
q-4 -1 -13 -1q-35 0 -66 16q-14 -98 -39 -178.5t-64.5 -136t-86.5 -55.5q-148 0 -148 185q0 55 14 132t14 79q0 5 -2 5q-30 -96 -63.5 -176.5t-51.5 -113.5l-19 -33q-82 0 -120 26.5t-38 82.5q0 112 115 394q-60 -52 -112 -52q-32 0 -68 39t-36 65q0 7 4 11q35 0 121 23.5
t88 23.5q13 0 44.5 -42t31.5 -74q0 -25 -36 -172t-36 -200q0 -47 23 -47q9 0 45 84.5t78.5 207.5t64.5 215q30 6 47 6q19 0 26 -11t7 -40q0 -7 -18 -168t-18 -246q0 -128 38 -128t82 112t56 235q-41 61 -41 165q0 61 16.5 104t44.5 43q25 0 38 -50t13 -132q0 -48 -5 -111
q4 -7 23 -7q49 0 103 28q26 28 51 28q16 0 24 -11q16 39 40 39q23 0 40 -39.5t17 -112.5q0 -64 -13 -122q6 -8 15 -8q30 0 68.5 65.5t53.5 169.5q-1 6 -1 17q1 10 31 21t52 11q16 0 16 -8q-9 -31 -9 -61zM887 31q16 0 32.5 16.5t27.5 43.5q-42 63 -42 175q0 38 9 74
q-18 -24 -39 -103t-21 -137q0 -69 33 -69z" />
    <glyph glyph-name="W_u_s" unicode="Wus" horiz-adv-x="1402" 
d="M1301 325q0 -46 22 -125.5t22 -111.5q0 -68 -50 -116t-101 -48q-28 0 -43 15t-15 37q0 15 8 31q7 -19 30 -19q34 0 51 32t17 80q0 46 -17 152q-27 -138 -90.5 -227.5t-123.5 -89.5q-50 0 -50 67q0 20 6 59.5t6 40.5q1 4 -3 6q-22 -84 -58.5 -129.5t-72.5 -45.5
q-66 0 -66 114q0 73 25 185q-17 -7 -35 -7q-29 0 -55 17q-15 -100 -38 -179t-63 -134.5t-88 -55.5q-148 0 -148 185q0 55 14 132t14 79q0 5 -2 5q-30 -96 -63.5 -176.5t-51.5 -113.5l-19 -33q-82 0 -120 26.5t-38 82.5q0 112 115 394q-60 -52 -112 -52q-32 0 -68 39t-36 65
q0 7 4 11q35 0 121 23.5t88 23.5q13 0 44.5 -42t31.5 -74q0 -25 -36 -172t-36 -200q0 -47 23 -47q9 0 45 84.5t78.5 207.5t64.5 215q30 6 47 6q19 0 26 -11t7 -40q0 -7 -18 -168t-18 -246q0 -128 38 -128q29 0 73.5 108t66.5 242q-42 69 -42 162q0 61 16.5 104t44.5 43
q50 0 50 -159q0 -61 -6 -131q3 -10 25 -10q37 0 85.5 22t56.5 22q11 0 11 -11q-29 -177 -29 -243q0 -56 22 -56q12 0 28 29.5t36 105.5t34 185q22 8 42 8q37 0 37 -37q0 -8 -8 -75t-8 -116q0 -91 27 -91q31 0 75.5 93.5t60.5 200.5q-1 6 -1 17q1 10 31 21t52 11q16 0 16 -8
q-9 -31 -9 -61z" />
    <glyph glyph-name="as" unicode="a&#x2019;s" horiz-adv-x="695" 
d="M408 394q-11 -34 -60 -34q-7 121 -7 162q0 74 14.5 99t54.5 25q15 0 48 -7q-29 -182 -50 -245zM594 325q0 -46 22 -125.5t22 -111.5q0 -68 -50 -116t-101 -48q-28 0 -43 15t-15 37q0 15 8 31q7 -19 30 -19q34 0 51 32t17 80q0 42 -18 159q-31 -152 -102.5 -251
t-139.5 -99q-32 0 -52.5 28t-28 66.5t-7.5 86.5q0 6 -3 7q-19 -72 -53.5 -110t-71.5 -38t-56 33.5t-19 88.5q0 67 24 139.5t70.5 125.5t99.5 53q33 0 51.5 -25t18.5 -59q0 -37 -19.5 -64.5t-53.5 -27.5q-1 0 -3.5 0.5t-4.5 0.5q17 36 17 82q0 34 -14 34q-33 0 -61.5 -82
t-28.5 -150q0 -55 21 -55q19 0 43.5 47t36.5 118q35 -3 53.5 -23.5t23 -47.5t7 -53t12 -44t31.5 -18q52 0 115 103.5t81 236.5q1 10 31 21t52 11q16 0 16 -8q-9 -32 -9 -61z" />
    <glyph glyph-name="bs" unicode="b&#x2019;s" horiz-adv-x="654" 
d="M394 394q-11 -34 -60 -34q-7 121 -7 162q0 74 14.5 99t54.5 25q15 0 48 -7q-29 -182 -50 -245zM204 388q37 0 57 -43.5t20 -109.5q0 -70 -21 -136.5t-69 -115.5t-113 -49q-44 0 -76 35t-32 83q0 5 17 104t34.5 231t18.5 215q22 6 42 6q60 0 60 -81q0 -80 -48 -224
q-2 -5 0 -5l4 4q16 39 46 62.5t60 23.5zM628 137q-15 -11 -30 -29v-9q0 -47 -63.5 -108.5t-101.5 -61.5q-44 0 3 63q25 33 65 70v1q0 26 -14.5 114.5t-18.5 88.5q-1 0 -3 -5q-22 -77 -51 -210.5t-29 -155.5q-33 12 -41.5 23.5t-4.5 44.5q11 82 50.5 213.5t67.5 186.5
q5 9 32.5 20t47.5 11q16 0 16 -8q-8 -25 -8 -64q0 -42 23.5 -109.5t26.5 -83.5q24 9 33 8zM96 2q34 0 64 94t30 177q0 53 -22 53q-29 0 -65 -104.5t-36 -184.5q0 -10 6 -19q10 -16 23 -16z" />
    <glyph glyph-name="cs" unicode="c&#x2019;s" horiz-adv-x="607" 
d="M359 394q-11 -34 -60 -34q-7 121 -7 162q0 74 14.5 99t54.5 25q15 0 48 -7q-29 -182 -50 -245zM506 325q0 -46 22 -125.5t22 -111.5q0 -68 -50 -116t-101 -48q-28 0 -43 15t-15 37q0 15 8 31q7 -19 30 -19q34 0 51 32t17 80q0 44 -18 159q-35 -163 -120 -261t-171 -98
q-78 0 -115.5 52t-37.5 134q0 108 54.5 205t124.5 97q32 0 49 -23t17 -55q0 -38 -18 -67.5t-52 -29.5q-7 0 -10 1q18 34 18 84q0 32 -14 32q-23 0 -49 -68.5t-26 -137.5q0 -129 99 -129q70 0 142.5 103t95.5 264q1 10 31 21t52 11q16 0 16 -8q-9 -32 -9 -61z" />
    <glyph glyph-name="ds" unicode="d&#x2019;s" horiz-adv-x="706" 
d="M474 394q-11 -34 -60 -34q-7 121 -7 162q0 74 14.5 99t54.5 25q15 0 48 -7q-29 -182 -50 -245zM607 325q0 -46 22 -125.5t22 -111.5q0 -68 -50 -116t-101 -48q-28 0 -43 15t-15 37q0 15 8 31q7 -19 30 -19q34 0 51 32t17 80q0 42 -18 159q-31 -152 -102.5 -251
t-139.5 -99q-28 0 -48.5 20.5t-30.5 51t-14.5 57t-4.5 47.5q0 4 -2 4l-2 -3q-17 -61 -54.5 -99t-74.5 -38q-32 0 -52.5 31t-20.5 92q0 67 24.5 139.5t70.5 125t99 52.5q26 0 43 -17q16 111 26 241q28 7 47 7q51 0 51 -81q0 -33 -5.5 -75t-17 -91.5l-19 -80t-21.5 -79
t-14 -49.5q0 -141 59 -141q50 0 109.5 102t80.5 237q1 10 31 21t52 11q16 0 16 -8q-9 -32 -9 -61zM105 45q30 0 64 93q-4 1 -12 7q11 18 21.5 62.5t10.5 77.5q0 44 -22 44q-26 0 -56.5 -72.5t-30.5 -158.5q0 -53 25 -53z" />
    <glyph glyph-name="es" unicode="e&#x2019;s" horiz-adv-x="605" 
d="M353 394q-11 -34 -60 -34q-7 121 -7 162q0 74 14.5 99t54.5 25q15 0 48 -7q-29 -182 -50 -245zM506 325q0 -46 22 -125.5t22 -111.5q0 -68 -50 -116t-101 -48q-28 0 -43 15t-15 37q0 15 8 31q7 -19 30 -19q34 0 51 32t17 80q0 44 -18 159q-35 -163 -120 -261t-171 -98
q-76 0 -112 58.5t-36 143.5q0 101 53.5 198.5t122.5 97.5q32 0 50 -28t18 -70q0 -64 -36.5 -116.5t-100.5 -52.5h-12v-15q0 -58 20.5 -89.5t72.5 -31.5q70 0 142.5 103t95.5 264q1 10 31 21t52 11q16 0 16 -8q-9 -32 -9 -61zM156 339q-17 0 -35.5 -44t-28.5 -102
q14 -2 21 -2q25 0 31 8q5 6 16.5 45.5t11.5 65.5q0 29 -16 29z" />
    <glyph glyph-name="fs" unicode="f&#x2019;s" horiz-adv-x="467" 
d="M368 323q0 -41 22 -117t22 -118q0 -67 -53 -117.5t-100 -50.5q-45 0 -45 52t34 111q-5 -28 -5 -48q0 -59 26 -59q40 0 40 124q0 54 -23 185q-21 -76 -91 -133.5t-139 -68.5q0 -198 13 -306q-32 4 -47 7.5t-29.5 14t-19 30.5t-4.5 54q0 86 10 213q-23 18 -23 56l5 23
q9 -9 23 -14q30 330 60 476q14 9 52 9q52 0 52 -92q0 -81 -32 -203.5t-60 -183.5v-11q73 12 139 67t83 139q1 10 31 21t52 11q16 0 16 -8q-9 -33 -9 -63zM256 394q-11 -34 -60 -34q-7 121 -7 162q0 74 14.5 99t54.5 25q15 0 48 -7q-29 -182 -50 -245z" />
    <glyph glyph-name="gs" unicode="g&#x2019;s" horiz-adv-x="684" 
d="M406 394q-11 -34 -60 -34q-7 121 -7 162q0 74 14.5 99t54.5 25q15 0 48 -7q-29 -182 -50 -245zM272 120q0 -109 -15 -208q43 8 79 18q-4 -46 -26 -63q-23 -17 -68 -30q-30 -123 -92 -195t-158 -72q-83 0 -163.5 62.5t-80.5 122.5q0 20 7 36t22.5 28t32.5 21.5t44.5 16.5
t51.5 11.5t59.5 9t62.5 7l67 6.5t67 7q16 74 28 175q0 4 -1.5 4t-2.5 -3q-13 -55 -47 -90t-70 -35q-34 0 -56.5 34.5t-22.5 103.5q0 70 27 143t74 123.5t99 50.5q33 0 51.5 -25t18.5 -59q0 -60 -41 -84q29 -9 41 -33.5t12 -82.5zM658 137q-15 -11 -30 -29v-9
q0 -47 -63.5 -108.5t-101.5 -61.5q-44 0 3 63q25 33 65 70v1q0 26 -14.5 114.5t-18.5 88.5q-1 0 -3 -5q-22 -77 -51 -210.5t-29 -155.5q-33 12 -41.5 23.5t-4.5 44.5q11 82 50.5 213.5t67.5 186.5q5 9 32.5 20t47.5 11q16 0 16 -8q-8 -25 -8 -64q0 -42 23.5 -109.5
t26.5 -83.5q24 9 33 8zM116 40q14 0 28.5 18.5t29 63t21.5 106.5h-8q-1 0 -3.5 0.5t-4.5 0.5q17 36 17 82q0 33 -17 33q-31 0 -61 -74t-30 -163q0 -67 28 -67zM-37 -346q118 0 176 162q-20 -3 -58.5 -8t-60 -8.5l-53.5 -9t-50 -11t-36.5 -13.5t-27 -18t-8.5 -22
q0 -27 33.5 -49.5t84.5 -22.5z" />
    <glyph glyph-name="hs" unicode="h&#x2019;s" horiz-adv-x="697" 
d="M436 394q-11 -34 -60 -34q-7 121 -7 162q0 74 14.5 99t54.5 25q15 0 48 -7q-29 -182 -50 -245zM598 325q0 -46 22 -125.5t22 -111.5q0 -68 -50 -116t-101 -48q-28 0 -43 15t-15 37q0 15 8 31q7 -19 30 -19q34 0 51 32t17 80q0 42 -18 159q-31 -152 -102.5 -251
t-139.5 -99q-110 0 -110 174q0 83 27 204q2 5 -2 5q-16 0 -57.5 -113t-64.5 -227q-57 -12 -73 -12q-30 0 -30 28q0 4 39 235t39 344q30 7 44 7q28 0 41 -20t13 -66q0 -70 -40 -215t-40 -156q0 -2 2 -4q12 49 28.5 96t38.5 92t49 72.5t55 27.5q21 0 34.5 -16.5t13.5 -41.5
q0 -15 -11.5 -88.5t-11.5 -113.5q0 -94 56 -94q52 0 111.5 100.5t77.5 234.5q1 10 31 21t52 11q16 0 16 -8q-9 -32 -9 -61z" />
    <glyph glyph-name="ks" unicode="k&#x2019;s" horiz-adv-x="679" 
d="M248 25q66 0 113 81q-35 -91 -74.5 -142t-76.5 -51q-38 0 -69.5 53t-50.5 148v3l-1 2q0 15 16 18q41 9 70 56t29 84q0 26 -16 26q-11 0 -26 -15.5t-31.5 -46.5t-31 -72t-25.5 -98.5t-14 -120.5q-50 -10 -67 -10q-16 0 -22.5 7t-6.5 24l21 123l47 316q38 257 40 265
q26 22 50 22q12 0 12 -10q-12 -75 -51 -465q33 82 75 122t78 40q24 0 38.5 -17.5t14.5 -49.5q0 -60 -42 -124.5t-96 -87.5q15 -39 40.5 -59.5t56.5 -20.5zM416 394q-11 -34 -60 -34q-7 121 -7 162q0 74 14.5 99t54.5 25q15 0 48 -7q-29 -182 -50 -245zM653 137
q-15 -11 -30 -29v-9q0 -47 -63.5 -108.5t-101.5 -61.5q-44 0 3 63q25 33 65 70v1q0 26 -14.5 114.5t-18.5 88.5q-1 0 -3 -5q-22 -77 -51 -210.5t-29 -155.5q-33 12 -41.5 23.5t-4.5 44.5q11 82 50.5 213.5t67.5 186.5q5 9 32.5 20t47.5 11q16 0 16 -8q-8 -25 -8 -64
q0 -42 23.5 -109.5t26.5 -83.5q24 9 33 8z" />
    <glyph glyph-name="ls" unicode="l&#x2019;s" horiz-adv-x="516" 
d="M281 394q-11 -34 -60 -34q-7 121 -7 162q0 74 14.5 99t54.5 25q15 0 48 -7q-29 -182 -50 -245zM417 325q0 -46 22 -125.5t22 -111.5q0 -68 -50 -116t-101 -48q-28 0 -43 15t-15 37q0 15 8 31q7 -19 30 -19q34 0 51 32t17 80q0 42 -18 159q-31 -152 -102.5 -251
t-139.5 -99q-98 0 -98 200q0 139 56 471q28 7 47 7q24 0 38 -18.5t14 -70.5q0 -89 -69 -299q-2 -34 -2 -47q0 -129 57 -129q49 0 105.5 98.5t80.5 240.5q1 10 31 21t52 11q16 0 16 -8q-9 -32 -9 -61z" />
    <glyph glyph-name="ms" unicode="m&#x2019;s" horiz-adv-x="899" 
d="M629 394q-11 -34 -60 -34q-7 121 -7 162q0 74 14.5 99t54.5 25q15 0 48 -7q-29 -182 -50 -245zM800 325q0 -46 22 -125.5t22 -111.5q0 -68 -50 -116t-101 -48q-28 0 -43 15t-15 37q0 15 8 31q7 -19 30 -19q34 0 51 32t17 80q0 42 -18 159q-31 -152 -102.5 -251
t-139.5 -99q-114 0 -114 185q0 99 31 216q2 5 -2 5q-15 0 -52.5 -110.5t-63.5 -227.5q0 -5 -27.5 -12.5t-49.5 -7.5q-27 0 -27 13q0 2 13.5 114t13.5 158q0 37 -8 37q-16 0 -53 -115t-53 -206q-52 -12 -72 -12q-31 0 -31 25q0 5 3 25l8.5 56.5t9.5 65.5q-21 8 -21 17l4 11
q4 10 10 29t12 43.5t10 60.5t4 74v21q33 11 50 11q49 0 49 -68q0 -35 -22 -124t-22 -96q0 -2 2 -4q30 114 70.5 198.5t83.5 84.5q54 0 54 -103q0 -56 -20 -156q-1 -4 1 -4t3 4q13 50 29.5 96.5t38 91.5t47 72t50.5 27q37 0 37 -80q0 -27 -5.5 -93.5t-5.5 -97.5
q0 -106 55 -106q52 0 111.5 100.5t77.5 234.5q1 10 31 21t52 11q16 0 16 -8q-9 -32 -9 -61z" />
    <glyph glyph-name="ns" unicode="n&#x2019;s" horiz-adv-x="713" 
d="M445 394q-11 -34 -60 -34q-7 121 -7 162q0 74 14.5 99t54.5 25q15 0 48 -7q-29 -182 -50 -245zM614 325q0 -46 22 -125.5t22 -111.5q0 -68 -50 -116t-101 -48q-28 0 -43 15t-15 37q0 15 8 31q7 -19 30 -19q34 0 51 32t17 80q0 42 -18 159q-31 -152 -102.5 -251
t-139.5 -99q-52 0 -80.5 39.5t-32 103t4.5 129t25 129.5q2 5 -2 5q-16 0 -57 -123t-65 -240q-52 -12 -72 -12q-31 0 -31 25q0 6 3 27t9 58t10 68q-21 8 -21 17q0 1 3.5 11t9 27.5t11 39.5t9 52.5t3.5 60.5v20q33 11 50 11q49 0 49 -68q0 -28 -20 -105.5t-20 -86.5q0 -2 2 -4
q13 52 29 100.5t38 99t49 81t55 30.5q27 0 33.5 -39t1.5 -94t-9 -110.5t8 -94.5t47 -39q52 0 111.5 100.5t77.5 234.5q1 10 31 21t52 11q16 0 16 -8q-9 -32 -9 -61z" />
    <glyph glyph-name="os" unicode="o&#x2019;s" horiz-adv-x="628" 
d="M366 394q-11 -34 -60 -34q-7 121 -7 162q0 74 14.5 99t54.5 25q15 0 48 -7q-29 -182 -50 -245zM529 323q0 -41 22 -117t22 -118q0 -67 -53 -117.5t-100 -50.5q-45 0 -45 52t34 111q-5 -28 -5 -48q0 -59 26 -59q40 0 40 124q0 47 -21 175q-27 -105 -85.5 -169.5
t-117.5 -64.5q-24 0 -45 12q-23 -53 -57.5 -81.5t-68.5 -28.5q-47 0 -69 39t-22 102q0 95 41 187.5t90 92.5q16 0 24 -11q16 39 40 39q23 0 40 -39.5t17 -112.5q0 -63 -13 -120q9 -12 27 -12q45 0 103.5 69.5t85.5 184.5q1 10 31 21t52 11q16 0 16 -8q-9 -33 -9 -63zM107 31
q32 0 59 56q-41 59 -41 179q0 38 9 74q-18 -24 -39 -103t-21 -137q0 -69 33 -69z" />
    <glyph glyph-name="ps" unicode="p&#x2019;s" horiz-adv-x="661" 
d="M415 394q-11 -34 -60 -34q-7 121 -7 162q0 74 14.5 99t54.5 25q15 0 48 -7q-29 -182 -50 -245zM241 388q33 0 53 -32.5t20 -94.5q0 -50 -15 -103t-43 -101t-74.5 -78.5t-102.5 -30.5h-2q-9 -102 -8 -221q-12 -5 -26 -5q-44 0 -63 18t-19 55q0 34 34 173v6q-13 16 -13 33
q0 27 19 46l4 -2q11 88 44 326q16 14 40.5 21t27.5 -7q0 -3 -11.5 -72.5t-11.5 -76.5q0 -5 1 -5t3 4q24 65 60 106t83 41zM635 137q-15 -11 -30 -29v-9q0 -47 -63.5 -108.5t-101.5 -61.5q-44 0 3 63q25 33 65 70v1q0 26 -14.5 114.5t-18.5 88.5q-1 0 -3 -5
q-22 -77 -51 -210.5t-29 -155.5q-33 12 -41.5 23.5t-4.5 44.5q11 82 50.5 213.5t67.5 186.5q5 9 32.5 20t47.5 11q16 0 16 -8q-8 -25 -8 -64q0 -42 23.5 -109.5t26.5 -83.5q24 9 33 8zM144 17q35 52 57.5 130.5t22.5 133.5q0 49 -18 49q-31 0 -66.5 -82.5t-54.5 -225.5
q32 -5 56 -5h3z" />
    <glyph glyph-name="rs" unicode="r&#x2019;s" horiz-adv-x="594" 
d="M345 394q-11 -34 -60 -34q-7 121 -7 162q0 74 14.5 99t54.5 25q15 0 48 -7q-29 -182 -50 -245zM495 325q0 -46 22 -125.5t22 -111.5q0 -68 -50 -116t-101 -48q-28 0 -43 15t-15 37q0 15 8 31q7 -19 30 -19q34 0 51 32t17 80q0 52 -19 164q-32 -152 -118 -262t-157 -110
q-77 0 -77 113q0 62 23 142t60 151q-11 0 -81 -27q-16 -85 -45.5 -153t-58.5 -68q-6 0 -13.5 5t-7.5 11q52 68 77 196q-23 17 -49 105q29 8 95.5 21.5t90.5 13.5q11 0 31.5 -32.5t20.5 -52.5q-39 -92 -39 -183q0 -49 14.5 -79t40.5 -30q46 0 104.5 104.5t76.5 232.5
q1 10 31 21t52 11q16 0 16 -8q-9 -32 -9 -61z" />
    <glyph glyph-name="us" unicode="u&#x2019;s" horiz-adv-x="687" 
d="M428 394q-11 -34 -60 -34q-7 121 -7 162q0 74 14.5 99t54.5 25q15 0 48 -7q-29 -182 -50 -245zM588 325q0 -46 22 -125.5t22 -111.5q0 -68 -50 -116t-101 -48q-28 0 -43 15t-15 37q0 15 8 31q7 -19 30 -19q34 0 51 32t17 80q0 52 -19 162q-28 -145 -98.5 -249
t-130.5 -104q-50 0 -77 59t-18 134q1 4 -3 6q-22 -84 -58.5 -129.5t-72.5 -45.5q-66 0 -66 114q0 75 35 231l-14 40q0 9 29.5 22.5t51.5 13.5q20 0 20 -13q-29 -177 -29 -243q0 -56 22 -56q12 0 28 29.5t36 105.5t34 185q22 8 42 8q37 0 37 -37q0 -7 -4.5 -45.5t-7.5 -79
t-2 -83t13 -69.5t36 -27q30 0 70 51.5t72.5 130t42.5 151.5q1 10 31 21t52 11q16 0 16 -8q-9 -32 -9 -61z" />
    <glyph glyph-name="vs" unicode="v&#x2019;s" horiz-adv-x="651" 
d="M403 394q-11 -34 -60 -34q-7 121 -7 162q0 74 14.5 99t54.5 25q15 0 48 -7q-29 -182 -50 -245zM552 323q0 -41 22 -117t22 -118q0 -67 -53 -117.5t-100 -50.5q-45 0 -45 52t34 111q-5 -28 -5 -48q0 -59 26 -59q40 0 40 124q0 46 -21 174q-26 -106 -83.5 -172.5
t-113.5 -66.5q-27 0 -50 18q-26 -56 -61.5 -86.5t-70.5 -30.5q-42 0 -69 44.5t-27 128.5q0 65 18.5 134.5t40.5 98.5q4 5 29 16t37 11q6 0 6 -4q-13 -38 -25.5 -105.5t-12.5 -130.5q0 -46 12 -69.5t30 -23.5q34 0 60 64q-22 50 -22 137q0 69 18.5 114.5t40.5 45.5
q17 0 28 -30t11 -89q0 -82 -18 -152q9 -22 31 -22q46 0 107 80.5t74 177.5q1 10 31 21t52 11q16 0 16 -8q-9 -33 -9 -63z" />
    <glyph glyph-name="ws" unicode="w&#x2019;s" horiz-adv-x="807" 
d="M546 394q-11 -34 -60 -34q-7 121 -7 162q0 74 14.5 99t54.5 25q15 0 48 -7q-29 -182 -50 -245zM708 323q0 -41 22 -117t22 -118q0 -67 -53 -117.5t-100 -50.5q-45 0 -45 52t34 111q-5 -28 -5 -48q0 -59 26 -59q40 0 40 124q0 46 -21 174q-26 -107 -82.5 -172.5
t-112.5 -65.5q-30 0 -53 20q-46 -101 -112 -101q-74 0 -74 113q0 32 8 93q1 4 -1 5l-3 -5q-55 -216 -133 -216q-77 0 -77 141q0 67 18 135.5t43 107.5q5 8 29 18t37 10q7 0 7 -4q-16 -44 -28.5 -116.5t-12.5 -124.5q0 -61 19 -61q14 0 31 31t36 103.5t31 172.5q1 7 27.5 15
t44.5 8q10 0 10 -4q0 -5 -5 -30t-10 -65t-5 -81q0 -69 12.5 -107t31.5 -38q22 0 43 49q-20 49 -20 128q0 66 16.5 115t43.5 49q40 0 40 -112q0 -73 -20 -151q10 -30 34 -30q45 0 104.5 83t72.5 175q1 10 31 21t52 11q16 0 16 -8q-9 -33 -9 -63z" />
    <glyph glyph-name="ys" unicode="y&#x2019;s" horiz-adv-x="674" 
d="M417 394q-11 -34 -60 -34q-7 121 -7 162q0 74 14.5 99t54.5 25q15 0 48 -7q-29 -182 -50 -245zM294 348q-4 -39 -11 -113t-11.5 -117.5t-12 -102t-15.5 -103.5q40 8 78 18q-4 -46 -26 -63q-23 -17 -68 -30q-32 -129 -91 -198t-159 -69q-83 0 -163.5 62.5t-80.5 122.5
q0 19 7 35t22 28t32.5 21.5t44.5 16.5t51 12t59.5 9.5t62 7l67 6.5t66.5 7q18 80 39 224q0 4 -1 4q-3 0 -3 -3q-23 -82 -61 -126t-73 -44q-64 0 -64 109q0 76 36 211q-2 8 -6.5 20l-8 21t-3.5 11q0 8 33 22t55 14q20 0 20 -13q-30 -167 -30 -230q0 -56 21 -56q12 0 30 31.5
t42 110.5t44 189q24 6 39 6q22 0 30.5 -11.5t8.5 -39.5zM648 137q-15 -11 -30 -29v-9q0 -47 -63.5 -108.5t-101.5 -61.5q-44 0 3 63q25 33 65 70v1q0 26 -14.5 114.5t-18.5 88.5q-1 0 -3 -5q-22 -77 -51 -210.5t-29 -155.5q-33 12 -41.5 23.5t-4.5 44.5q11 82 50.5 213.5
t67.5 186.5q5 9 32.5 20t47.5 11q16 0 16 -8q-8 -25 -8 -64q0 -42 23.5 -109.5t26.5 -83.5q24 9 33 8zM-51 -346q65 0 106.5 41t68.5 121q-20 -3 -58.5 -8t-60 -8.5l-53 -9t-49.5 -11t-36.5 -13.5t-27 -18t-8.5 -22q0 -27 33.5 -49.5t84.5 -22.5z" />
    <glyph glyph-name="nt" unicode="n&#x2019;t" horiz-adv-x="715" 
d="M417 394q-11 -34 -60 -34q-7 121 -7 162q0 74 14.5 99t54.5 25q15 0 48 -7q-29 -182 -50 -245zM612 31q22 0 52 43.5t59 117.5q-29 -122 -84.5 -202t-101.5 -80q-27 0 -43 31t-16 94q0 18 2 52q-39 -82 -89.5 -130t-95.5 -48q-52 0 -80.5 39.5t-32 103t4.5 129t25 129.5
q2 5 -2 5q-16 0 -57 -123t-65 -240q-52 -12 -72 -12q-31 0 -31 25q0 6 3 27t9 58t10 68q-21 8 -21 17q0 1 3.5 11t9 27.5t11 39.5t9 52.5t3.5 60.5v20q33 11 50 11q49 0 49 -68q0 -28 -20 -105.5t-20 -86.5q0 -2 2 -4q13 52 29 100.5t38 99t49 81t55 30.5q27 0 33.5 -39
t1.5 -94t-9 -110.5t8 -94.5t47 -39q43 0 94.5 74t78.5 181q-14 3 -23.5 12.5t-15 21t-17.5 41.5q28 12 76 24q17 99 17 184q1 0 12 3.5t26.5 6.5t26.5 3q32 0 32 -43q0 -19 -10 -55t-20 -62l-9 -27q29 -1 44 -21.5t40 -84.5q-5 0 -14.5 0.5t-14.5 0.5q-9 0 -72 -3
q-10 -80 -10 -138q0 -114 36 -114z" />
    <glyph glyph-name=".notdef" horiz-adv-x="842" 
d="M490 350q-16 11 -50 11q-27 0 -93.5 -25t-118.5 -25q-84 0 -136 58t-52 148q0 53 19 91t51.5 57t67 27t74.5 8q215 0 215 -180q0 -24 -5.5 -58.5t-5.5 -45.5q0 -40 37 -58q3 -2 3 -4t-2 -3.5t-4 -0.5zM201 409q15 0 25.5 21t14.5 54t5.5 57.5t1.5 47.5q0 33 -10 33
q-5 0 -8 -1q-10 -33 -10 -63q0 -12 11 -12q-13 -99 -26 -99q-5 0 -10 9t-10 25.5l-9 30.5t-9 34.5t-7 26.5q0 2 -1 6t-1.5 5t-1.5 3.5t-2 3.5t-2.5 2t-3 1.5t-4.5 0.5q-8 0 -30 -6q0 -24 2 -33t11 -10q-3 -47 -11 -82.5t-13 -39.5q6 -4 11 -4q26 0 26 96v16q26 -123 61 -123
zM391 473q0 18 7.5 68.5t13.5 67.5q-10 5 -15 5q-28 0 -28 -81q0 -27 3 -45l-2 -5q0 -12 14 -12q3 0 7 2zM325 456q12 0 21.5 9.5t9.5 25.5q0 10 -6 10q-4 -30 -22 -30q-2 0 -6 2q3 13 3 29q0 41 -16 41q-7 0 -10 -10q-3 3 -7 3q-13 0 -24.5 -25t-11.5 -51q0 -39 25 -39
q23 0 37 36q2 -1 7 -1zM298 529q-3 -7 -3 -20q0 -30 12 -45q-5 -19 -17 -19q-9 0 -9 19q0 16 6 37.5t11 27.5zM375 424q15 0 15 19q0 6 -2 18q-3 1 -8 1q-18 0 -18 -22q0 -16 13 -16zM628 394q-39 0 -78 -17q-2 2 -1 4.5t6.5 6t14.5 5.5q0 14 59 21q5 9 22 9q41 0 55 -25
q5 -9 0 -9q-20 26 -61 23q30 -4 30 -15q-22 7 -47 7q-12 0 -26 -2h7q42 0 43 -10q-16 2 -24 2zM739 402q-4 11 -15 18q1 1 2 1q13 0 18 -17q0 -4 -2 -4q-2 -1 -3 2zM723 373q-3 18 -9.5 26t-20.5 17q13 1 22.5 -9.5t9.5 -23.5q0 -4 -2 -10zM750 389q0 11 -2 18q-1 4 3 4
q10 -1 16 -9q1 -1 1 -2t-2 -3q-4 -3 -4 -7t11 -6l11 -2q0 -1 -2 -2q-18 -7 -26 -15q25 -6 25 -12q0 -3 -9 -3h-4q12 -10 12 -15q0 -1 -1.5 -1.5t-4 -1t-4.5 -1.5q15 -8 15 -15q0 -4 -12 -5q9 -4 9 -10q0 -3 4.5 -5.5t4.5 -4.5q0 -4 -31 6q8 -3 12 -5t9.5 -5t7 -5.5t0.5 -4.5
l-7 3q8 -7 8 -11q-7 5 -24 15q13 -8 8 -14q-16 9 -25 10q4 -3 13.5 -8.5t13 -10t2.5 -9.5l-19 4q20 -10 20 -13q0 -7 -10 -7h-6h-3q16 -13 16 -14q0 -2 -10 -2q-2 0 -2 -4t-1.5 -10t-5.5 -11q2 8 2 11q0 4 -1 9l-1 5q0 5 5 5h1q-14 8 -14 14q0 2 8 2h7q-19 14 -19 18
q0 2 6 2q2 0 7.5 -0.5t9.5 -0.5q-3 2 -12 6.5t-13.5 8.5t-6.5 9q0 1 2.5 1t2.5 2t4 2q9 0 17 -4q-8 4 -17 7l-13.5 4.5t-4.5 2.5q0 5 18 5h3q-2 1 -12.5 4.5t-14.5 6t-4 6.5q0 3 7 3q3 0 12 -1t14 -1q4 0 6 1q-2 2 -6.5 4.5t-7.5 4t-6 3.5t-4.5 4t-1.5 4q0 3 5 3q8 0 30 -6
l-39 28l2 3l12 -3q-5 11 -8 21.5t0 12.5q9 0 16 -29q2 10 2 16zM803 187q19 0 19 -22q0 -26 -21.5 -54t-48.5 -28q-7 0 -10 1v-2q-8 -45 -49.5 -93t-92.5 -54q-13 -51 -27 -51q-4 0 -21.5 17.5t-22.5 17.5q-6 0 -21.5 -15t-22.5 -15q-6 0 -11.5 25.5t-6.5 51.5
q-67 28 -67 125q0 66 34.5 137.5t96.5 123.5v1q0 5 1 6q11 11 34.5 19.5t45.5 8.5q24 0 28 -7q-6 1 -18 1q-48 0 -71 -15q0 -7 -3 -10q-140 -140 -140 -268q0 -88 59 -115q0 21 5 21q6 0 29 -25.5t31 -25.5q7 0 34 15t34 15q5 0 5 -5q0 -9 -3 -24q45 7 87.5 54t45.5 97
q6 -2 16 -2q25 0 44 25.5t19 46.5q0 14 -10 14q-14 0 -29 -16t-16 -16t4 8t12 37t7 70q4 -24 4 -38q0 -27 -5 -43q14 6 22 6zM693 344q0 -3 -3 -4q-1 -1 -2 1q0 1 -2.5 9.5t-4 12.5t-6.5 8t-12 4l-1 1q0 1 2 1.5t4 -0.5q25 -14 25 -33zM592 371q10 0 10 -15q0 -8 -4 -8
q-18 0 -42 -16q-3 -2 -5 0q-7 7 -7 13v2q5 8 22 16t26 8zM678 320q0 -3 -5 -6t-10 -3q-3 0 -4 2q-17 31 -25 37q-2 2 -0.5 6t6.5 8t9 4q6 0 17.5 -19t11.5 -29zM784 343v4q6 0 9 -5.5t2 -8.5q-5 8 -11 10zM469 179q-3 11 30 13q-27 8 -27 29q0 12 17 22.5l40 24.5t33 33
q-10 -19 -28 -19q-14 0 -24 9q12 -4 17 -4t8 1q-16 4 -13 26q5 -19 19 -19q15 0 26 17q0 -19 -13.5 -34t-29.5 -22.5t-29.5 -17t-13.5 -18.5q0 -24 44 -24q23 0 41 8t18 21q0 11 -10 11q-5 0 -5 -4q0 -3 1 -4q-8 0 -8 7q0 9 13 9q17 0 17 -20q0 -23 -42 -33q32 -4 32 -10
q0 -4 -14 -6q17 -2 17 -10q-1 -4 -4 -5q-4 4 -25 4q-7 0 -9.5 -2t-8.5 -2q-24 0 -29.5 4t-6.5 4h-4q-4 0 -4 1q1 1 -3 1q-14 0 -22 -2q-1 6 7 8.5t19 2.5h-5h-21zM638 285q-9 -16 -26 -16q-7 0 -14 5q9 -14 33 -14q-12 -3 -14 -3q-25 0 -25 25q0 12 4 19v-3q0 -21 18 -21
q14 0 24 8zM659 181q-20 -28 -55 -43.5t-69 -15.5q-35 0 -62.5 20t-26.5 54q5 -32 30 -48.5t60 -16.5q34 0 67 14.5t54 39.5q-3 6 -3 13q0 2 1 4t1 4q2 1 5 2q0 -26 15 -42q0 -1 -2 -1t-3 1q-7 8 -12 15zM446 196v1v-1h-3q-5 0 -6 4q2 -2 8 0t8 5q1 -5 -7 -9zM773 136
q-9 -4 -9 -13q0 -7 10 4q7 9 7 16q0 12 -17 -8q-2 -1 -3 -3q4 21 18 21q9 0 9 -11q0 -10 -8 -18.5t-14 -8.5q-7 0 -7 5q0 10 14 16zM455 54q2 -24 17.5 -38.5t37.5 -13.5q-9 -3 -18 -3q-17 0 -28 12.5t-11 29.5q0 5 2 13z" />
    <glyph glyph-name=".null" horiz-adv-x="0" 
 />
    <glyph glyph-name="nonmarkingreturn" horiz-adv-x="333" 
 />
    <glyph glyph-name="space" unicode=" " horiz-adv-x="146" 
 />
    <glyph glyph-name="exclam" unicode="!" horiz-adv-x="250" 
d="M92 189q-12 68 -12 165q0 297 105 297q24 0 54 -17q-22 -61 -50 -246.5t-28 -253.5q-11 -9 -25 -9q-19 0 -35.5 13t-16.5 31zM152 88q-18 6 -31 6q-30 0 -48.5 -24.5t-18.5 -58.5q0 -27 14.5 -42t34.5 -15q56 0 56 68q0 28 -7 66z" />
    <glyph glyph-name="quotedbl" unicode="&#x22;" horiz-adv-x="289" 
d="M37 360q-7 121 -7 162q0 74 14.5 99t54.5 25q15 0 48 -7q-29 -182 -50 -245q-11 -34 -60 -34zM170 375q-6 92 -6 145q0 67 13 89t49 22q9 0 43 -6q-24 -155 -45 -220q-10 -30 -54 -30z" />
    <glyph glyph-name="numbersign" unicode="#" horiz-adv-x="600" 
d="M457 203q18 0 29 -3t25 -13.5t26 -35t23 -63.5q-41 10 -147 12q-17 -140 -19 -195q-53 25 -71 43t-18 46q0 19 14 105q-72 -2 -106 -4q-21 -134 -26 -199q-49 25 -67.5 42t-18.5 41q0 20 20 112q-48 -2 -57 -2q-26 0 -37.5 16t-20.5 69q35 8 139 17q11 48 24 99
q-51 -3 -87 -3q-15 0 -25 16t-27 71q47 12 165 24q31 127 47 201q25 -11 33.5 -22t8.5 -29q0 -35 -18 -143q76 6 117 8q22 111 37 195q25 -12 34.5 -25t9.5 -34q0 -31 -12 -134q17 1 47 1q36 0 48.5 -19.5t39.5 -102.5q-80 5 -146 5h-3q-9 -73 -13 -96h32zM230 197
q18 1 54.5 2t54.5 2q4 17 10.5 51t9.5 46q-21 -1 -58.5 -2.5t-53.5 -1.5q-3 -16 -8.5 -48.5t-8.5 -48.5z" />
    <glyph glyph-name="dollar" unicode="$" horiz-adv-x="378" 
d="M127 340q0 -26 21 -43t50.5 -26.5t59 -20.5t50.5 -32t21 -53q0 -55 -36.5 -94.5t-90.5 -50.5q-3 -38 -8 -93t-6 -69q-39 10 -49.5 20.5t-10.5 42.5q0 34 5 98q-41 8 -67 34.5t-26 69.5q0 23 9.5 40.5t20.5 17.5q3 0 9 -4q-2 -10 -2 -14q0 -29 26 -43t64 -14q42 0 71 14
t29 34q0 15 -36 28.5t-78.5 24.5t-78.5 42t-36 77q0 63 40.5 114.5t104.5 73.5q1 23 2.5 85t2.5 86q50 -7 64 -16t14 -34q0 -7 -9 -108h6q19 0 46.5 -25t27.5 -42q0 -2 -16 -74t-16 -88q-3 0 -8.5 0.5t-18.5 3.5t-23 8t-18.5 16.5t-8.5 26.5q0 33 30 100q-41 11 -86 -25
t-45 -88z" />
    <glyph glyph-name="percent" unicode="%" horiz-adv-x="898" 
d="M689 498q-4 0 -6 1q-119 -147 -240.5 -337.5t-145.5 -281.5q-21 0 -38.5 29.5t-17.5 63.5q0 38 68 144.5t164 227.5q-46 -19 -97 -24q-18 -78 -60 -128.5t-102 -50.5q-69 0 -101.5 52t-32.5 131q0 67 21.5 129.5t52.5 87.5q11 39 39 64.5t66 25.5q53 0 91 -53.5
t38 -157.5q0 -15 -2 -43q110 8 187 87q141 158 178 158q10 0 35 -15q-36 -58 -57.5 -84t-39.5 -26zM252 581q-20 0 -33.5 -21.5t-13.5 -51.5q0 -48 28.5 -80t75.5 -44q3 32 3 64q0 66 -18 99.5t-42 33.5zM224 206q50 0 75 119q-94 18 -131 86q-2 -34 -2 -55q0 -66 14.5 -108
t43.5 -42zM727 394q49 0 85 -56.5t36 -159.5q0 -108 -47.5 -193.5t-126.5 -85.5q-69 0 -101.5 52t-32.5 131q0 73 24.5 139t58.5 84q18 38 45.5 63.5t58.5 25.5zM684 -37q39 0 63.5 75.5t24.5 166.5q0 65 -13.5 97t-34.5 32q-25 0 -45 -43.5t-20 -90.5q0 -18 5 -36
q-22 0 -36 8q-2 -36 -2 -59q0 -66 14.5 -108t43.5 -42z" />
    <glyph glyph-name="ampersand" unicode="&#x26;" horiz-adv-x="848" 
d="M664 267q66 0 100.5 -27t34.5 -72q0 -44 -33 -92.5t-91.5 -91.5t-153 -71t-204.5 -28q-130 0 -203 54.5t-73 135.5q0 94 99.5 181t285.5 124q-108 0 -155.5 14t-47.5 61q0 43 59 79.5t140 55.5t156 19q135 0 135 -58q0 -38 -62.5 -61t-129.5 -23q-63 0 -63 19q0 5 6 11
q7 -3 23 -3q44 0 111 18.5t67 30.5q0 15 -60 15q-97 0 -220 -30.5t-123 -67.5q0 -44 291 -44q22 0 29.5 -5.5t8.5 -23.5q-209 -29 -359.5 -131.5t-150.5 -195.5q0 -52 59 -84t179 -32q90 0 176 23.5t144 59t93 75t35 72.5q0 51 -103 51q-106 0 -245 -47t-171 -98q-8 8 -8 16
q0 29 64 69.5t166 71t194 30.5z" />
    <glyph glyph-name="quotesingle" unicode="'" horiz-adv-x="167" 
d="M37 360q-7 121 -7 162q0 74 14.5 99t54.5 25q15 0 48 -7q-29 -182 -50 -245q-11 -34 -60 -34z" />
    <glyph glyph-name="parenleft" unicode="(" horiz-adv-x="333" 
d="M249 -104q-26 -28 -44 -28q-61 0 -106 94t-45 237q0 115 25.5 226.5t73.5 187t106 75.5q20 0 52 -26q-67 -62 -106 -206t-39 -296q0 -217 83 -264z" />
    <glyph glyph-name="parenright" unicode=")" horiz-adv-x="337" 
d="M84 680q26 28 44 28q61 0 106 -94t45 -237q0 -115 -25.5 -226.5t-73.5 -187t-106 -75.5q-20 0 -52 26q67 62 106 206t39 296q0 217 -83 264z" />
    <glyph glyph-name="asterisk" unicode="*" horiz-adv-x="279" 
d="M257 581q0 -25 -87 -114q61 -70 61 -93q0 -4 -0.5 -7.5t-1 -6t-3 -6.5l-3.5 -5.5t-5 -6t-5.5 -6t-7 -7.5t-7.5 -8q-17 23 -63 77l-17 -89q-3 -15 -9.5 -21t-21.5 -8l19 125q-54 -49 -72 -60q-13 7 -13 20q0 29 64 96q-36 50 -36 72q0 15 17 44l58 -60q3 23 8 54.5l6 37.5
q3 21 10.5 28.5t31.5 8.5l-21 -117q65 53 95 60q3 -3 3 -8z" />
    <glyph glyph-name="plus" unicode="+" horiz-adv-x="279" 
d="M255 210q-22 0 -86 -4q0 -5 -0.5 -14.5t-1.5 -13.5q-2 -23 -11 -30t-48 -11q0 23 -3 65h-24q-23 0 -31.5 12t-17.5 65q10 0 68 13q-2 36 -2 46q0 21 15 28t62 9l-3 -68q25 5 35 5q21 0 30 -19t18 -83z" />
    <glyph glyph-name="comma" unicode="," horiz-adv-x="203" 
d="M100 94q18 0 42 -6q1 -16 1 -44q0 -70 -19.5 -116.5t-51.5 -46.5q-13 0 -27 10q-10 63 -10 95q0 108 65 108z" />
    <glyph glyph-name="hyphen" unicode="-" horiz-adv-x="349" 
d="M32 279q11 0 105 16.5t110 16.5q21 0 30 -19t18 -83q-21 0 -105 -4t-109 -4q-23 0 -31.5 12t-17.5 65z" />
    <glyph glyph-name="period" unicode="." horiz-adv-x="203" 
d="M136 88q7 -38 7 -66q0 -68 -56 -68q-20 0 -34.5 15t-14.5 42q0 34 18.5 58.5t48.5 24.5q13 0 31 -6z" />
    <glyph glyph-name="slash" unicode="/" horiz-adv-x="311" 
d="M254 636q35 -16 35 -43q0 -25 -41 -162.5l-92 -307t-67 -243.5q-43 23 -58.5 39.5t-15.5 39.5q0 45 239 677z" />
    <glyph glyph-name="zero" unicode="0" horiz-adv-x="480" 
d="M242 627q199 0 199 -304q0 -192 -75 -299.5t-173 -107.5q-96 0 -141.5 75t-45.5 189q0 106 36.5 210.5t88.5 116.5q1 45 30.5 82.5t80.5 37.5zM205 9q40 0 72.5 54t49 133t16.5 160q0 107 -28 161.5t-70 54.5q-24 0 -41 -24.5t-17 -65.5q0 -16 5 -43q-4 -1 -11 -1
q-19 0 -32 13q-33 -94 -33 -228q0 -93 22.5 -153.5t66.5 -60.5z" />
    <glyph glyph-name="one" unicode="1" horiz-adv-x="239" 
d="M160 621q28 0 36 -25t8 -81q0 -28 -21 -275.5t-21 -313.5q-18 -3 -34 -3q-77 0 -77 74q0 53 49 259q-8 7 -17 19.5l-15 21.5l-5 9q24 63 43.5 141.5t27.5 124.5l8 47q14 2 18 2z" />
    <glyph glyph-name="two" unicode="2" horiz-adv-x="428" 
d="M281 70q55 0 76 -19.5t34 -93.5q1 -5 1 -13q-3 -8 -11 -10q0 17 -78 17q-65 0 -156 -10.5t-141 -23.5q-32 83 -32 113q0 28 61.5 96t136 136t136 135.5t61.5 94.5q0 16 -56 16q-62 0 -144.5 -17t-82.5 -30t38 -13q49 0 71 11q2 -8 2 -11q0 -25 -47 -41.5t-89 -16.5
q-30 0 -30 37q0 41 19.5 92t42.5 65q32 19 89 31t106 12q32 0 51 -6q33 -10 55 -62.5t22 -88.5q0 -51 -57.5 -129.5t-126.5 -142l-126.5 -114.5t-57.5 -55q0 -2 1 -2q123 43 232 43z" />
    <glyph glyph-name="three" unicode="3" horiz-adv-x="426" 
d="M156 302q63 20 109 20q133 0 133 -165q0 -66 -53 -124t-130.5 -90.5t-153.5 -32.5q-27 0 -41.5 23t-23.5 101q4 -1 20 -1q149 8 238.5 60t89.5 106q0 27 -26 43.5t-76 16.5q-68 0 -167 -33q-13 32 -13 60t48 59t105.5 53.5t105.5 48.5t48 45q0 16 -57 16
q-64 0 -145 -16.5t-81 -30.5q0 -11 36 -11q1 -3 1 -7q0 -13 -17.5 -20.5t-39.5 -7.5q-32 0 -32 35q0 33 21.5 78.5t37.5 55.5q31 18 87.5 30.5t106.5 12.5q15 0 35 -2q32 -4 51.5 -29.5t37.5 -86.5q5 -19 5 -41q0 -59 -79 -98q-36 -17 -183 -65q-6 -3 -2 -4q1 0 4 1z" />
    <glyph glyph-name="four" unicode="4" horiz-adv-x="461" 
d="M380 119q27 -37 27 -96q-3 -8 -11 -10q0 7 -20 10q-2 -78 -2 -106q-27 -5 -35 -5q-77 0 -77 74q0 5 0.5 16.5t0.5 18.5q-203 -13 -243 -24q-31 80 -31 118q0 35 71.5 147l143 223t71.5 145q15 0 30 -12t15 -32q0 -36 -39.5 -115.5t-85.5 -151.5l-88 -134t-42 -63
q-1 -2 -1 -4v-2q116 31 214 39q18 130 54 348q35 -1 49.5 -19t14.5 -56q0 -10 -2.5 -54.5l-6.5 -121.5z" />
    <glyph glyph-name="five" unicode="5" horiz-adv-x="426" 
d="M225 354q77 0 125 -47t48 -148q0 -67 -52.5 -125.5t-130 -91.5t-154.5 -33q-27 0 -41.5 23t-23.5 101q159 3 253.5 57t94.5 109q0 60 -103 60q-69 0 -151 -28q-13 0 -35.5 26t-23.5 42q0 2 -0.5 8t-0.5 9q0 67 22.5 172.5t34.5 107.5q11 2 96.5 8.5t152.5 15.5t67 20
q11 0 11 -13q0 -59 -17.5 -92.5t-43.5 -40.5q-66 -18 -234 -26q-18 -76 -24 -137q69 23 130 23z" />
    <glyph glyph-name="six" unicode="6" horiz-adv-x="464" 
d="M271 431q66 0 109 -48t43 -150q0 -71 -26.5 -143.5t-77 -123.5t-111.5 -51q-101 0 -152.5 68.5t-51.5 175.5q0 110 41.5 220t110.5 180.5t142 70.5q55 0 62 -54q-78 0 -138 -75t-91 -185q25 53 62.5 84t77.5 31zM191 0q50 0 92 69.5t42 176.5q0 53 -16 85.5t-47 32.5
q-38 0 -83 -45t-68 -112q-2 -30 -2 -43q0 -82 23 -123t59 -41z" />
    <glyph glyph-name="seven" unicode="7" horiz-adv-x="405" 
d="M405 512q-28 -15 -137 -247q30 -3 38.5 -26.5t13.5 -96.5q-32 0 -108 -2q-68 -161 -83 -222q-21 0 -50.5 32.5t-29.5 71.5q0 34 42 116q-27 4 -34.5 21t-9.5 68q25 8 110 25q50 78 103.5 151t76.5 96q-42 -4 -98 -11.5t-89 -11t-55 -3.5q-32 0 -47 9t-15 30q0 38 9 70.5
t22 32.5q0 -14 61 -14q41 0 123 9t90 9q22 0 35.5 -22.5t31.5 -84.5z" />
    <glyph glyph-name="eight" unicode="8" horiz-adv-x="454" 
d="M408 579q-12 -45 -35 -59q9 -9 9 -29q0 -51 -105 -161q128 -111 128 -211q0 -95 -66 -150t-146 -55t-126 42t-46 111q0 131 150 267l-50.5 55t-33.5 50t-16 56q0 10 3 22q13 58 50 76.5t131 20.5q117 2 137 9q9 4 12 9q11 0 11 -16q0 -14 -7 -37zM347 507q0 2 -1 3
q-15 -2 -48 -4q-18 -1 -41.5 -2t-38 -1.5t-32 -2t-27.5 -3t-19.5 -4.5t-13.5 -7.5t-4 -10.5q0 -9 6.5 -19t24.5 -25.5l28 -24t39 -30.5q127 108 127 131zM201 4q39 0 71 31.5t32 78.5q0 74 -78 163q-99 -109 -99 -197q0 -33 22 -54.5t52 -21.5z" />
    <glyph glyph-name="nine" unicode="9" horiz-adv-x="436" 
d="M355 621q28 -4 37 -17.5t9 -50.5q0 -39 -22 -300.5t-22 -326.5q-18 -3 -34 -3q-77 0 -77 74q0 51 44 237q-27 -62 -67 -105t-84 -43q-63 0 -95.5 51.5t-32.5 121.5q0 84 28 167.5t82 142.5t120 59q82 0 105 -75q1 8 9 68zM167 175q28 0 64.5 42t66.5 129v1l6 18
q18 55 18 107q0 46 -16 73.5t-42 27.5q-38 0 -72 -51.5t-53 -121.5t-19 -130q0 -95 47 -95z" />
    <glyph glyph-name="colon" unicode=":" horiz-adv-x="203" 
d="M149 220q-18 -6 -32 -6q-26 0 -41 19t-15 49q0 34 18 53t41 19q47 0 47 -50q0 -28 -18 -84zM136 88q7 -38 7 -66q0 -68 -56 -68q-20 0 -34.5 15t-14.5 42q0 34 18.5 58.5t48.5 24.5q13 0 31 -6z" />
    <glyph glyph-name="semicolon" unicode=";" horiz-adv-x="203" 
d="M149 220q-18 -6 -32 -6q-26 0 -41 19t-15 49q0 34 18 53t41 19q47 0 47 -50q0 -28 -18 -84zM100 94q18 0 42 -6q1 -16 1 -44q0 -70 -19.5 -116.5t-51.5 -46.5q-13 0 -27 10q-10 63 -10 95q0 108 65 108z" />
    <glyph glyph-name="less" unicode="&#x3c;" horiz-adv-x="281" 
d="M246 336q0 -37 -37 -60t-79 -30q26 -10 40 -16t31 -20.5t17 -29.5q0 -36 -50 -71q0 15 -18.5 33t-40.5 31.5t-40.5 29t-18.5 26.5q0 27 13 55q39 11 80.5 40.5t64.5 60.5q38 -35 38 -49z" />
    <glyph glyph-name="equal" unicode="=" horiz-adv-x="282" 
d="M32 339q11 0 85 16.5t90 16.5q21 0 30 -19t18 -83q-21 0 -85 -4t-89 -4q-23 0 -31.5 12t-17.5 65zM33 231q103 14 174 14q26 0 35.5 -14.5t15.5 -69.5q-20 1 -86 2.5t-93 3.5q-23 2 -31 12t-15 52z" />
    <glyph glyph-name="greater" unicode="&#x3e;" horiz-adv-x="288" 
d="M117 389q0 -51 121 -110q0 -40 -6 -54t-20 -18q-45 -15 -85.5 -46t-49.5 -52q-42 26 -42 53q0 25 22.5 45t47.5 28.5t50 12.5q-26 10 -40 16t-31 20.5t-17 29.5q0 40 50 75z" />
    <glyph glyph-name="question" unicode="?" horiz-adv-x="438" 
d="M292 500q8 -5 8 -13q0 -28 -66.5 -73.5t-113.5 -45.5q-27 0 -47 47t-20 103q0 39 53.5 77t121.5 59.5t119 21.5q42 0 76 -62t34 -102q0 -46 -41.5 -100t-91.5 -93l-91.5 -74t-41.5 -47q0 -19 38 -19q36 0 98 14q2 -4 2 -12q0 -24 -35.5 -42t-76.5 -18q-34 0 -55.5 14.5
t-21.5 44.5q0 38 42.5 92.5t94 100.5t94 92.5t42.5 70.5q0 36 -48 36q-73 0 -166.5 -45t-93.5 -80q0 -13 18 -13q29 0 88 25t81 41zM232 -39q31 33 31 72q0 50 -58 50q-27 0 -49.5 -18.5t-22.5 -49.5q0 -26 16.5 -42.5t45.5 -16.5q12 0 37 5z" />
    <glyph glyph-name="at" unicode="@" horiz-adv-x="638" 
d="M401 10q-65 0 -65 100q0 12 2.5 29.5t2.5 21.5q0 5 -3 6q-15 -65 -45.5 -99.5t-64.5 -34.5q-35 0 -53 33t-18 85q0 61 20.5 125t60.5 110.5t88 46.5q31 0 48 -23.5t17 -55.5q0 -33 -17 -58q33 -17 33 -73q0 -7 -0.5 -23t-0.5 -22q0 -86 35 -86q28 0 52.5 53t24.5 143
q0 61 -17 113t-59 89.5t-103 37.5q-76 0 -138 -57t-93.5 -140.5t-31.5 -170.5q0 -103 49 -171t145 -68q82 0 126 57q15 -15 15 -35q0 -41 -52.5 -77t-125.5 -36q-117 0 -176.5 84.5t-59.5 213.5q0 84 25.5 169t70.5 155.5t114 114.5t149 44q76 0 129.5 -44.5t77 -110
t23.5 -144.5q0 -132 -60.5 -217t-124.5 -85zM262 120q18 0 38.5 42t31.5 111h-5q-1 0 -3.5 0.5t-3.5 0.5q13 28 13 75q0 31 -13 31q-31 0 -54 -73.5t-23 -138.5q0 -48 19 -48z" />
    <glyph glyph-name="A" unicode="A" horiz-adv-x="658" 
d="M588 65q-31 0 -51 -1q5 -100 13 -165q-27 -9 -50 -9q-46 0 -66 40.5t-24 127.5q-195 -9 -241 -10q-23 -53 -28 -66q11 -7 11 -20q0 -33 -52 -115q-40 0 -40 48q0 43 46 156q-31 6 -49.5 42t-18.5 66q0 17 7 17q17 -9 58 -9q13 0 55 2q113 248 231 443q40 10 59 10
q10 0 17.5 -2.5t14 -9.5t11 -16t9 -27t7.5 -36.5t6 -50t5.5 -62.5t5.5 -79q3 -44 7 -138h10q15 0 24.5 -7t13.5 -23.5t5.5 -28.5t2 -39t1.5 -38zM401 518q-78 -138 -174 -342q128 14 181 18q2 106 2 179q0 109 -1 152q-4 0 -8 -7z" />
    <glyph glyph-name="B" unicode="B" horiz-adv-x="752" 
d="M525 267q168 0 168 -150q0 -99 -84 -166.5t-180 -67.5q-51 0 -89.5 23t-54.5 68q-1 -2 -1.5 -7t-0.5 -7q-2 -15 -38 -38t-60 -23q-14 0 -14 11t45 290q-15 12 -15 37q0 18 7 40q12 -2 20 -2l32 190q-175 -36 -272 -98q-4 0 -4 7q0 22 14 60t20 42q59 46 186.5 91
t242.5 45q84 0 133.5 -56t49.5 -131q0 -58 -68.5 -102.5t-158.5 -64.5q-3 0 -3 -2t4 -2q64 13 121 13zM438 486q-48 0 -96 -7q-16 -130 -23 -196q87 20 161 69.5t74 87.5q0 46 -116 46zM427 16q78 0 139.5 33t61.5 89q0 32 -38 50.5t-112 18.5q-28 0 -169 -15l-15 -129
q34 -47 133 -47z" />
    <glyph glyph-name="C" unicode="C" horiz-adv-x="602" 
d="M321 217q25 49 40.5 120.5t15.5 132.5q0 104 -41 104q-35 0 -80.5 -72.5t-79 -182t-33.5 -203.5q0 -69 21 -112t64 -43q34 0 80 30l88.5 60t68.5 30q27 0 46 -24t41 -85q-13 0 -58.5 -21t-104 -42.5t-102.5 -21.5q-126 0 -191.5 80.5t-65.5 194.5q0 105 41 213t108 179.5
t136 71.5q15 0 23 -3q81 -32 106.5 -64.5t25.5 -113.5q0 -87 -39 -165.5t-81 -78.5q-13 0 -29 16z" />
    <glyph glyph-name="D" unicode="D" horiz-adv-x="742" 
d="M418 612q55 0 101 -16t85 -50t61 -94.5t22 -142.5q0 -91 -44 -171t-114.5 -133t-157 -83.5t-172.5 -30.5q-50 0 -99.5 44.5t-49.5 79.5q0 15 6 25t12 12l5 3q0 -44 89 -44q47 0 95 8q-50 40 -50 90q0 89 55 356q-175 -36 -274 -98q-4 0 -4 9q0 18 13 56.5t21 43.5
q76 50 187.5 93t212.5 43zM297 28q141 37 236.5 133t95.5 186q0 61 -51 99t-154 38q-42 0 -85 -6q-41 -419 -42 -450z" />
    <glyph glyph-name="E" unicode="E" horiz-adv-x="624" 
d="M499 75q15 0 26 -4t19.5 -16t13 -21t13.5 -31.5t15 -35.5q-19 0 -71.5 -22t-120.5 -44t-124 -22q-96 0 -160.5 65t-64.5 130q0 37 11 87q-6 24 -6 38q0 13 23 28q29 96 85 222q-31 14 -63 36t-32 34q0 18 158 60t241 42q46 0 83 -47q41 -32 41 -79q0 -27 -33.5 -81
t-51.5 -54q-6 0 -19 19.5t-13 32.5q0 15 11.5 49.5t26.5 62.5q-52 -11 -160 -40.5l-127 -34.5q-25 -90 -43 -188q80 15 134 15q9 0 16 -1t12 -2.5t9 -6.5l6.5 -8t6 -13l5.5 -15.5t6.5 -21l7.5 -25.5q-140 -25 -222 -58q-3 -33 -3 -61q0 -108 56 -108q38 0 144 59.5t144 59.5
z" />
    <glyph glyph-name="F" unicode="F" horiz-adv-x="520" 
d="M514 625q23 0 51 -38.5t28 -58.5q0 -14 -19 -54t-27 -40t-23.5 15.5t-15.5 27.5q0 8 7 45q-35 -4 -146 -31t-166 -43q-9 -81 -18 -186q72 14 126 14q9 0 16 -1t12 -2.5t9 -6.5l6.5 -8t6 -13l5.5 -15.5t6.5 -21l7.5 -25.5q-124 -22 -207 -53q-7 -71 -18 -170
q-1 -15 -43.5 -38t-66.5 -23q-14 0 -14 11q0 3 38 217q-19 38 -19 72q0 18 38 35q4 23 16 87.5l18 96.5q-36 22 -72.5 55.5t-36.5 47.5q0 22 208 63t293 41z" />
    <glyph glyph-name="G" unicode="G" horiz-adv-x="604" 
d="M474 353q41 -9 52 -20t9 -38q-27 -347 -43 -470q-2 -16 -5 -27.5t-11 -19.5l-12.5 -12.5t-20.5 -8.5t-23 -5t-31.5 -4t-36.5 -4q12 57 31 186q0 6 7 12.5t23 7.5q5 30 17 91.5t17 89.5v2q-1 3 -3 -2q-76 -239 -195 -239q-34 0 -70.5 15.5t-70.5 46.5t-56 86.5t-22 125.5
q0 107 44 217.5t114 183t139 72.5q15 0 23 -3q68 -22 93 -57.5t25 -83.5q0 -64 -34.5 -140.5t-64.5 -76.5q-9 0 -32 18q17 40 29 100.5t12 109.5q0 81 -33 81q-40 0 -87.5 -83t-80 -198t-32.5 -202q0 -126 65 -126q58 0 134.5 103t129.5 272z" />
    <glyph glyph-name="H" unicode="H" horiz-adv-x="631" 
d="M575 172q-20 0 -47 -3q-16 -185 -16 -292q-106 0 -107 83q0 83 14 192q-204 -38 -227 -41l-3 -45q12 -12 12 -44q0 -27 -10 -85h-7q-41 0 -55.5 30t-14.5 90q0 14 2 46h-10q-42 0 -71.5 52t-29.5 113q0 17 7 20q18 -14 87 -14h37l13.5 85.5t14 90t9 70.5t4.5 66v9
q2 0 6 0.5t6 0.5q44 0 44 -76q0 -57 -22 -243q37 2 226 17q4 26 14.5 102.5l15 109t9 78.5t4.5 73q14 2 37 2q45 0 45 -79q0 -45 -23 -283q25 -5 30.5 -31t5.5 -94z" />
    <glyph glyph-name="I" unicode="I" horiz-adv-x="380" 
d="M360 505q-5 0 -14.5 0.5t-14.5 0.5q-15 0 -56.5 -1.5t-56.5 -1.5q12 -11 12 -30q0 -56 -26 -414q13 1 32 1q34 0 46 -29.5t23 -103.5q-5 0 -14.5 0.5t-14.5 0.5q-28 0 -113 -3t-101 -3q-18 0 -30.5 8t-20 25t-10.5 31.5t-7 39.5q48 14 139 25q-29 16 -29 45
q0 34 30 209.5t33 195.5q-13 0 -30 -0.5t-20 -0.5q-35 0 -46.5 18t-23.5 74q20 8 113.5 21t129.5 13q30 0 43 -26.5t27 -94.5z" />
    <glyph glyph-name="J" unicode="J" horiz-adv-x="470" 
d="M420 508q-38 0 -51 -48t-13 -139q0 -26 1 -83t1 -85q0 -60 -4 -103.5t-15.5 -84.5t-36 -62t-60.5 -21q-50 0 -100.5 18t-89 59t-38.5 96q0 39 29.5 84.5t50.5 45.5q4 0 6 -1q-2 -8 -2 -30q0 -67 23.5 -133.5t67.5 -66.5q30 0 44 76.5t16.5 172t20 188t53.5 116.5
q-112 -4 -146 -4q-36 0 -48 18.5t-24 77.5q22 8 108.5 21t133.5 13q31 0 46.5 -30t26.5 -95z" />
    <glyph glyph-name="K" unicode="K" horiz-adv-x="698" 
d="M664 588q0 -23 -80.5 -85t-191.5 -138.5t-145 -104.5q-4 -29 -5 -41q12 -4 58.5 -16.5l83.5 -23t87 -28.5t84 -35t58 -40.5t24 -46.5q0 -38 -18.5 -83.5t-34.5 -45.5q-5 0 -5 3q0 26 -111 85t-240 110q-8 -64 -15 -138q-2 -15 -38 -38t-60 -23q-14 0 -14 11q0 6 43 219
q-51 17 -72 17q0 53 12.5 76t55.5 54l39 28q35 183 35 186q-24 -18 -62 -35.5t-66 -17.5q-32 0 -68 39t-36 65q0 7 4 11q35 0 121 23.5t88 23.5q13 0 45 -42.5t32 -80.5l-14 -118l286 187q-6 8 -6 16q0 36 109 60q17 -19 17 -33z" />
    <glyph glyph-name="L" unicode="L" horiz-adv-x="577" 
d="M534 -50q1 -4 1 -10q0 -19 -12.5 -31t-31.5 -12q0 56 -106 56q-65 0 -205 -31t-145 -31q-30 0 -41.5 23t-18.5 89q44 0 69.5 49t36.5 124.5t21 154t32 150t59 101.5q14 12 52.5 22t64.5 10q47 0 69.5 -48.5t22.5 -122.5q0 -96 -32 -179.5t-75 -83.5q-21 0 -38 21
q12 140 50 140h8q3 21 3 49q0 59 -13.5 106.5t-38.5 48.5q-22 0 -35.5 -40.5t-21 -104l-15.5 -131t-26.5 -133t-47.5 -98.5q206 62 275 62q64 0 94.5 -29t44.5 -121z" />
    <glyph glyph-name="M" unicode="M" horiz-adv-x="687" 
d="M608 527q0 -56 -14 -244t-14 -248q0 -102 26 -136q-33 -8 -58 -8q-58 0 -78.5 35t-20.5 111q0 75 34.5 273.5t42.5 270.5q-5 -2 -6 -5q-47 -100 -112.5 -285.5t-70.5 -264.5q-12 -1 -28 -1q-49 0 -69 30q-15 20 -24 90t-16.5 175.5t-12.5 145.5q0 4 -4 6
q-62 -207 -78 -401q23 -2 23 -43q0 -26 -9 -78q-12 -3 -30 -3q-68 0 -68 87q0 83 31.5 204t75.5 232h-4q-28 0 -28 32q0 17 8 54q89 27 124 27q33 0 57 -65t33 -140.5t9 -142.5q0 -4 1 -5q2 -1 3 3q1 1 1 2q30 105 83.5 231t95.5 181q27 7 52 7q45 0 45 -127z" />
    <glyph glyph-name="N" unicode="N" horiz-adv-x="582" 
d="M486 682q24 0 30.5 -25t6.5 -96q0 -53 -2 -107t-7 -136.5t-17 -151t-30 -132.5t-48 -100.5t-68 -36.5q-30 0 -56.5 20t-48 59t-38 78.5t-32.5 99t-25 98t-21 95.5q-1 3 -1.5 4t-1.5 0v-59q0 -77 -3.5 -134t-13.5 -110t-30 -81t-49 -28q-25 0 -42 15q11 9 28 65.5
t35 161.5t26 222q-17 2 -26.5 9t-14 29t-5 42t-0.5 70v7q79 23 111 23q28 0 38.5 -17t20.5 -65q100 -462 164 -462q52 0 93 363h-2q-37 0 -37 42q0 110 38 233q18 5 28 5z" />
    <glyph glyph-name="O" unicode="O" horiz-adv-x="624" 
d="M315 627q131 0 184.5 -68t53.5 -215q0 -105 -28.5 -191t-74 -139.5t-100 -82t-110.5 -28.5q-90 0 -151.5 71.5t-61.5 202.5q0 89 26.5 175.5t63 136.5t68.5 50q8 0 13 -4q37 92 117 92zM285 -20q68 0 117.5 90.5t49.5 261.5q0 102 -25.5 171t-71.5 69q-51 0 -78.5 -70
t-27.5 -168q0 -150 49 -216q-12 -8 -25 -8q-41 0 -70.5 82.5t-29.5 185.5q0 69 14 121q-57 -89 -57 -241q0 -115 40 -196.5t115 -81.5z" />
    <glyph glyph-name="P" unicode="P" horiz-adv-x="741" 
d="M687 399q0 -60 -20 -105.5t-53.5 -75.5t-85 -50.5t-107.5 -31t-128 -16.5q-3 -36 -16 -160q-2 -15 -38 -38t-60 -23q-14 0 -14 11q0 6 75 454q-95 19 -247 19q-6 3 -3 20.5t13.5 41t20.5 30.5q78 54 201.5 97t229.5 43q105 0 168.5 -51t63.5 -165zM299 190
q138 28 237.5 89t99.5 129q0 83 -167 83q-82 0 -182 -18.5t-176 -44.5q109 0 143 -12q16 -6 38 -33t22 -46q-8 -66 -15 -147z" />
    <glyph glyph-name="Q" unicode="Q" horiz-adv-x="622" 
d="M463 31q99 -118 99 -153q0 -30 -16.5 -53t-60.5 -56q-7 14 -106 179q-67 -45 -139 -45q-90 0 -151.5 71.5t-61.5 202.5q0 89 26.5 175.5t63 136.5t68.5 50q7 0 11 -2q43 90 113 90q136 0 190 -68t54 -215q0 -191 -90 -313zM285 -20q33 0 62 22q-57 100 -57 125q0 21 9 35
t34 36q19 -33 79 -106q40 90 40 240q0 102 -25.5 171t-71.5 69q-44 0 -75 -36.5t-43 -80.5t-12 -87q0 -18 3 -32q-16 -4 -20 -4q-43 0 -43 80q0 30 7 59q-42 -90 -42 -213q0 -115 40 -196.5t115 -81.5z" />
    <glyph glyph-name="R" unicode="R" horiz-adv-x="763" 
d="M303 141q224 -14 273 -23q86 -16 100 -60q3 -11 3 -25q0 -36 -9.5 -71.5t-24.5 -35.5q-13 45 -352 122q-1 -10 -4.5 -40.5l-5.5 -47.5q-2 -15 -38 -38t-60 -23q-14 0 -14 11q0 9 25 161q-3 1 -10.5 2.5t-10.5 2.5q-26 8 -26 47q0 24 11 68q2 -1 8 -1q16 1 48 5l44 271
q-183 -40 -272 -99q-6 4 -2 26t15 50.5t18 33.5q66 48 196 93.5t242 45.5q217 0 240 -221q1 -6 1 -18q0 -185 -394 -226zM342 482l-31 -272q147 31 234 90t87 113q0 35 -42 57t-123 22q-52 0 -125 -10z" />
    <glyph glyph-name="S" unicode="S" horiz-adv-x="710" 
d="M428 459q-4 0 0 18t11 36q-164 -26 -164 -74q0 -21 36.5 -48.5t88 -57t103.5 -63t88.5 -78t36.5 -91.5q0 -103 -64 -159.5t-145 -56.5q-83 0 -173.5 42t-146 96.5t-55.5 92.5q0 8 4.5 19.5t9.5 18.5l4 7q36 -47 148.5 -88t208.5 -41q104 0 104 60q0 24 -33 53t-80 59
t-94 63.5t-80 77t-33 87.5q0 55 51.5 97t120.5 60.5t137 18.5q78 0 107 -15.5t29 -54.5q0 -35 -11 -74q-41 8 -89 8q-31 0 -61 -3t-45 -7z" />
    <glyph glyph-name="T" unicode="T" horiz-adv-x="373" 
d="M264 599q285 19 309 13q-38 -120 -74 -132q-36 -13 -234 -33l-60 -487q-2 -15 -45.5 -38t-67.5 -23q-13 0 -13 11q0 3 17 82l48 219l50 229q-105 -10 -165 -10q-37 0 -60.5 25.5t-51.5 108.5q35 13 311 32l2.5 10.5t1.5 9.5q4 2 6 2q11 0 26 -19z" />
    <glyph glyph-name="U" unicode="U" horiz-adv-x="676" 
d="M564 662q27 0 41.5 -64.5t14.5 -165.5q0 -56 -4.5 -116.5t-20 -142t-40.5 -143t-72.5 -105t-109.5 -43.5q-231 0 -231 234q0 124 69 317q-53 -39 -94 -39q-32 0 -68 39t-36 65q0 7 4 11q35 0 121 23.5t88 23.5q14 0 49 -29t35 -56q0 -4 -13 -68t-26 -151t-13 -147
q0 -140 89 -140q72 0 136.5 125t79.5 365q-48 5 -48 68q0 45 17 133q14 6 32 6z" />
    <glyph glyph-name="V" unicode="V" horiz-adv-x="625" 
d="M534 661q52 0 52 -144q0 -115 -30.5 -266t-80 -264.5t-96.5 -113.5q-124 0 -175 56.5t-51 162.5q0 149 57 348q-92 -70 -153 -70q-37 0 -77 49t-40 77q0 7 4 11q35 0 157 30t124 30q17 0 47.5 -37t30.5 -57q0 -3 -12.5 -125t-12.5 -196q0 -182 72 -182q17 0 49 63
t67.5 180.5t54.5 244.5q-28 8 -28 54q0 31 12.5 86t12.5 60q9 3 16 3z" />
    <glyph glyph-name="W" unicode="W" horiz-adv-x="780" 
d="M667 661q57 0 57 -169q0 -42 -3 -95.5t-10.5 -127t-23 -140.5t-36.5 -126t-55.5 -94.5t-76.5 -35.5q-148 0 -148 185q0 55 14 132t14 79q0 5 -2 5q-30 -96 -63.5 -176.5t-51.5 -113.5l-19 -33q-82 0 -120 26.5t-38 82.5q0 112 115 394q-60 -52 -112 -52q-32 0 -68 39
t-36 65q0 7 4 11q35 0 121 23.5t88 23.5q13 0 44.5 -42t31.5 -74q0 -25 -36 -172t-36 -200q0 -47 23 -47q9 0 45 84.5t78.5 207.5t64.5 215q30 6 47 6q19 0 26 -11t7 -40q0 -7 -18 -168t-18 -246q0 -128 38 -128q32 0 66.5 96t55.5 213.5t24 199.5q-32 7 -32 63q0 45 23 137
q9 3 16 3z" />
    <glyph glyph-name="X" unicode="X" horiz-adv-x="656" 
d="M707 621q0 -53 -58.5 -147t-145.5 -197q64 -192 64 -324q0 -80 -54 -80q-2 0 -6.5 0.5t-5.5 0.5q0 83 -78 311q-55 -60 -101 -100q9 -7 9 -17q0 -29 -62.5 -97t-86.5 -68q-9 0 -15 5.5t-27 30t-46 49.5q138 82 307 261q-54 153 -88 209q-103 -93 -158 -93q-32 0 -76 50
t-44 76q0 5 3 8q35 0 147 41t114 41q14 0 57.5 -21t53.5 -44q42 -92 71 -175q62 73 105 144q-11 11 -11 28q0 47 96 154q36 -6 36 -46z" />
    <glyph glyph-name="Y" unicode="Y" horiz-adv-x="604" 
d="M489 618q64 0 64 -44q-11 -200 -17.5 -289.5t-26.5 -244t-49 -241.5q-5 -15 -13 -24.5t-15.5 -15t-27.5 -9t-32 -4.5t-45 -3q1 3 8 20t11 28t12.5 39.5t15.5 58l18.5 80t21.5 107.5l23.5 139.5t27.5 177.5q-2 -7 -13 -51t-17 -64.5l-19 -66t-23 -71.5l-25.5 -65t-30 -62
t-32 -46.5t-37 -34t-39.5 -10.5q-112 0 -112 131q0 143 121 403q-32 -21 -86.5 -39t-93.5 -18q-32 0 -70 43t-38 70q0 7 4 11q35 0 169 18.5t136 18.5q16 0 39.5 -30t23.5 -45q0 -5 -24 -92t-48 -192.5t-24 -154.5q0 -41 17 -41q36 0 110.5 191t135.5 422z" />
    <glyph glyph-name="Z" unicode="Z" horiz-adv-x="608" 
d="M419 604q146 0 146 -48q0 -25 -8 -54t-16 -35q-83 -60 -238 -212.5t-176 -201.5q33 18 124.5 40t142.5 22q128 0 128 -161q0 -48 -37 -50q-3 59 -118 59q-79 0 -183.5 -25t-162.5 -48q-29 53 -29 88q0 73 153 224.5t338 285.5q-38 9 -128 9h-12q-10 -16 -48.5 -24
t-114 -16t-129.5 -19q-16 30 -19 47q0 31 65.5 59.5t154.5 44t167 15.5z" />
    <glyph glyph-name="bracketleft" unicode="[" horiz-adv-x="391" 
d="M346 576q-15 0 -62 -2t-65 -2q-4 -106 -21.5 -303.5t-34.5 -275.5q54 9 72 9q35 0 49 -26.5t26 -108.5q-62 7 -195 7q-24 0 -41 24t-22 48l-5 25q18 0 53 227.5t46 376.5q-17 10 -27 62q-1 2 -5 26q16 7 92.5 20t105.5 13q13 0 22 -7t15.5 -26t10 -35.5t9.5 -52.5
q-4 0 -12 0.5t-11 0.5z" />
    <glyph glyph-name="backslash" unicode="\" horiz-adv-x="351" 
d="M57 636q239 -632 239 -677q0 -23 -15.5 -39.5t-58.5 -39.5q-16 74 -67 243.5l-92 307t-41 162.5q0 27 35 43z" />
    <glyph glyph-name="bracketright" unicode="]" horiz-adv-x="397" 
d="M334 592q-17 0 -39.5 -218.5t-30.5 -384.5q23 -10 23 -44q0 -22 -8 -50q-16 -7 -93 -17.5t-107 -10.5q-13 0 -22 7t-15.5 26t-10 35.5t-9.5 52.5q4 0 12 -0.5t11 -0.5q33 0 123 4q8 109 37.5 305t49.5 276q-68 -11 -99 -11q-35 0 -49 26.5t-26 108.5q62 -7 185 -7
q24 0 41 -24.5t22 -48.5z" />
    <glyph glyph-name="asciicircum" unicode="^" horiz-adv-x="330" 
d="M215 607q8 -62 42 -141.5t56 -79.5q-24 -47 -59 -47q-27 0 -49 35t-31 75.5t-8 68.5q-8 -63 -36.5 -125t-67.5 -62q-36 0 -56 49q24 14 48.5 54t41.5 79.5t39 70.5t43 31q16 0 37 -8z" />
    <glyph glyph-name="underscore" unicode="_" horiz-adv-x="379" 
d="M15 19q14 0 112 16.5t119 16.5q28 0 39.5 -18.5t23.5 -81.5q-27 0 -111 -4t-118 -4q-39 0 -47 10t-18 65z" />
    <glyph glyph-name="grave" unicode="`" horiz-adv-x="224" 
d="M164 437q-15 -11 -25 -11q-33 0 -66 46t-33 97q0 45 44 45q11 0 47 -6q1 -74 33 -171z" />
    <glyph glyph-name="a" unicode="a" 
d="M373 174q15 -8 15 -34q0 -52 -50 -121t-97 -69q-30 0 -46 21.5t-16 57.5q0 15 4 36t4 25q0 6 -3 7q-19 -72 -53.5 -110t-71.5 -38t-56 33.5t-19 88.5q0 67 24 139.5t70.5 125.5t99.5 53q33 0 51.5 -25t18.5 -59q0 -37 -19.5 -64.5t-53.5 -27.5q-1 0 -3.5 0.5t-4.5 0.5
q17 36 17 82q0 34 -14 34q-33 0 -61.5 -82t-28.5 -150q0 -55 21 -55q19 0 43.5 47t36.5 118q45 -9 60.5 -30.5t16.5 -79.5q0 -40 22 -40q18 0 45 33t48 83z" />
    <glyph glyph-name="b" unicode="b" horiz-adv-x="349" 
d="M364 145q0 -56 -49.5 -105.5t-127.5 -61.5q-47 -44 -109 -44q-44 0 -76 35t-32 83q0 5 17 104t34.5 231t18.5 215q22 6 42 6q60 0 60 -81q0 -80 -48 -224q-2 -5 0 -5l4 4q16 39 46 62.5t60 23.5q37 0 57 -43.5t20 -109.5q0 -110 -48 -197q73 29 115 138q16 -6 16 -31z
M168 326q-27 0 -61 -93t-39 -175q21 -26 60 -32q25 37 43.5 112t18.5 135q0 53 -22 53z" />
    <glyph glyph-name="c" unicode="c" horiz-adv-x="292" 
d="M298 199q21 0 21 -33q0 -27 -15.5 -65.5t-41 -76t-66.5 -64t-86 -26.5q-62 0 -93.5 47.5t-31.5 114.5q0 100 55 196t122 96q32 0 49 -23t17 -55q0 -38 -18 -67.5t-52 -29.5q-7 0 -10 1q18 34 18 84q0 32 -14 32q-20 0 -44.5 -77t-24.5 -147q0 -97 55 -97q41 0 90 56.5
t70 133.5z" />
    <glyph glyph-name="d" unicode="d" horiz-adv-x="401" 
d="M400 174q16 -12 16 -37q0 -46 -51 -113t-100 -67q-37 0 -56 41.5t-19 86.5q0 4 -2 4l-2 -3q-17 -61 -54.5 -99t-74.5 -38q-32 0 -52.5 31t-20.5 92q0 67 24.5 139.5t70.5 125t99 52.5q26 0 43 -17q16 111 26 241q28 7 47 7q51 0 51 -81q0 -33 -5.5 -75t-17 -91.5l-19 -80
t-21.5 -79t-14 -49.5q0 -100 37 -100q21 0 47 31t48 79zM105 45q30 0 64 93q-4 1 -12 7q11 18 21.5 62.5t10.5 77.5q0 44 -22 44q-26 0 -56.5 -72.5t-30.5 -158.5q0 -53 25 -53z" />
    <glyph glyph-name="e" unicode="e" horiz-adv-x="289" 
d="M297 199q21 0 21 -33q0 -27 -14 -63t-38.5 -71t-64.5 -59.5t-86 -24.5q-65 0 -95 43.5t-30 110.5q0 101 53.5 198.5t122.5 97.5q32 0 50 -28t18 -70q0 -64 -36.5 -116.5t-100.5 -52.5h-12v-15q0 -93 58 -93q41 0 88.5 53t65.5 123zM156 339q-17 0 -35.5 -44t-28.5 -102
q14 -2 21 -2q25 0 31 8q5 6 16.5 45.5t11.5 65.5q0 29 -16 29z" />
    <glyph glyph-name="f" unicode="f" horiz-adv-x="243" 
d="M168 144q-51 0 -100 -7v-1q34 -21 54 -73.5t20 -108.5q0 -78 -32 -138.5t-86 -60.5q-50 0 -50 149q0 92 16 225q-5 12 -12.5 39.5t-7.5 37.5q0 5 31 15q10 77 24.5 172l23 150t8.5 66q29 7 52 7q47 0 47 -73q0 -71 -21 -156t-45 -143q28 5 46 5q23 0 36.5 -22t29.5 -84
q-11 1 -34 1zM96 -53q0 83 -34 131q-9 -108 -9 -171q0 -58 10 -58q14 0 23.5 29t9.5 69z" />
    <glyph glyph-name="g" unicode="g" horiz-adv-x="342" 
d="M257 -88q43 8 79 18q-4 -46 -26 -63q-23 -17 -68 -30q-30 -123 -92 -195t-158 -72q-83 0 -163.5 62.5t-80.5 122.5q0 20 7 36t22.5 28t32.5 21.5t44.5 16.5t51.5 11.5t59.5 9t62.5 7l67 6.5t67 7q16 74 28 175q0 4 -1.5 4t-2.5 -3q-13 -55 -47 -90t-70 -35
q-34 0 -56.5 34.5t-22.5 103.5q0 70 27 143t74 123.5t99 50.5q33 0 51.5 -25t18.5 -59q0 -60 -41 -84q29 -9 41 -33.5t12 -82.5q0 -109 -15 -208zM116 40q14 0 28.5 18.5t29 63t21.5 106.5h-8q-1 0 -3.5 0.5t-4.5 0.5q17 36 17 82q0 33 -17 33q-31 0 -61 -74t-30 -163
q0 -67 28 -67zM-37 -346q118 0 176 162q-20 -3 -58.5 -8t-60 -8.5l-53.5 -9t-50 -11t-36.5 -13.5t-27 -18t-8.5 -22q0 -27 33.5 -49.5t84.5 -22.5z" />
    <glyph glyph-name="h" unicode="h" horiz-adv-x="370" 
d="M374 176q18 -4 18 -36q0 -56 -45.5 -122t-106.5 -66q-77 0 -77 117q0 44 16.5 125.5t16.5 88.5q0 6 -2 6q-16 0 -57.5 -112t-64.5 -225q-57 -12 -73 -12q-30 0 -30 28q0 4 39 235t39 344q30 7 44 7q28 0 41 -20t13 -66q0 -70 -40 -215t-40 -156q0 -2 2 -4q12 48 29 95
t39.5 91t50 71.5t55.5 27.5q39 0 39 -78q0 -30 -7 -96t-7 -91q0 -59 26 -59q34 0 82 122z" />
    <glyph glyph-name="i" unicode="i" horiz-adv-x="202" 
d="M59 405q-44 0 -44 72q0 41 12 94q54 17 88 17q44 0 44 -45q0 -50 -31.5 -94t-68.5 -44zM206 174q16 -9 16 -30q0 -52 -55.5 -127t-110.5 -75q-68 0 -68 114q0 82 36 223q-2 11 -5.5 23l-5.5 18.5t-2 7.5q0 10 30.5 21.5t52.5 11.5q15 0 15 -7q-2 -7 -7 -38.5t-10 -81
t-5 -87.5q0 -89 31 -89q19 0 45.5 35t42.5 81z" />
    <glyph glyph-name="j" unicode="j" horiz-adv-x="207" 
d="M80 440q-44 0 -44 72q0 41 12 94q54 17 88 17q44 0 44 -45q0 -50 -31.5 -94t-68.5 -44zM227 155q0 -74 -126 -174q-12 -162 -70.5 -239t-130.5 -77q-46 0 -78.5 29t-32.5 72q0 16 3 31t12.5 29.5l16 25t24 25t25.5 22t32 22.5l31.5 20t36 21.5l35.5 20.5q8 47 16 124
q-1 16 -18.5 19.5t-17.5 9.5l3 6q2 7 6 18.5l9.5 27.5t10.5 38t10 46.5t8.5 55.5t4.5 62q27 11 49 11q50 0 50 -66q0 -18 -4 -43.5t-7.5 -41t-12.5 -51t-11 -42.5q3 -93 3 -102v-8q78 60 106 128q17 0 17 -20zM-100 -258q21 0 44.5 35t42.5 116q-110 -83 -110 -124
q0 -11 6.5 -19t16.5 -8z" />
    <glyph glyph-name="k" unicode="k" horiz-adv-x="350" 
d="M352 173q18 -9 18 -32q0 -51 -56 -122t-107 -71q-38 0 -66.5 32.5t-39.5 68.5t-11 65q0 20 15 23q41 9 70 56t29 84q0 26 -16 26q-11 0 -26 -15.5t-31.5 -46.5t-31 -72t-25.5 -98.5t-14 -120.5q-50 -10 -67 -10q-16 0 -22.5 7t-6.5 24q0 9 21 126t42 267t21 238
q20 6 44 6q34 0 46.5 -24t12.5 -70q0 -21 -4 -48.5t-9 -50.5t-14 -55l-14 -49t-15 -47l-12 -36q-1 -4 0.5 -4.5t3.5 3.5q28 75 70 116t79 41q24 0 38.5 -17.5t14.5 -49.5q0 -60 -42 -124t-96 -88q25 -56 69 -56q35 0 72.5 36t59.5 88z" />
    <glyph glyph-name="l" unicode="l" horiz-adv-x="210" 
d="M0 126q0 56 14 169.5t28 198.5l15 86q28 7 47 7q24 0 38 -18.5t14 -70.5q0 -47 -18 -124t-36 -130l-18 -53q-1 -11 -1 -30q0 -104 39 -104q21 0 45.5 31.5t45.5 85.5q17 -10 17 -36q0 -52 -51.5 -122t-95.5 -70q-83 0 -83 180z" />
    <glyph glyph-name="m" unicode="m" horiz-adv-x="570" 
d="M575 176q18 -4 18 -36q0 -56 -45.5 -122t-106.5 -66q-78 0 -78 119q0 53 17 138t17 89q0 5 -2 5q-15 0 -54.5 -112t-60.5 -214q0 -5 -27.5 -12.5t-49.5 -7.5q-27 0 -27 13q0 2 13.5 114t13.5 158q0 37 -8 37q-16 0 -53 -115t-53 -206q-52 -12 -72 -12q-31 0 -31 25
q0 5 3 25l8.5 56.5t9.5 65.5q-21 8 -21 17l4 11q4 10 10 29t12 43.5t10 60.5t4 74v21q33 11 50 11q49 0 49 -68q0 -35 -22 -124t-22 -96q0 -2 2 -4q30 114 70.5 198.5t83.5 84.5q54 0 54 -103q0 -56 -20 -156q-1 -4 1 -4t3 4q9 36 23 76.5t35 88.5t49 79t57 31q44 0 44 -83
q0 -32 -8 -102.5t-8 -96.5q0 -56 26 -56q34 0 82 122z" />
    <glyph glyph-name="n" unicode="n" horiz-adv-x="386" 
d="M391 176q18 -4 18 -36q0 -56 -45.5 -122t-106.5 -66q-78 0 -78 119q0 53 17 144t17 95q0 5 -2 5q-16 0 -57 -123t-65 -240q-52 -12 -72 -12q-31 0 -31 25q0 6 3 27t9 58t10 68q-21 8 -21 17q0 1 3.5 11t9 27.5t11 39.5t9 52.5t3.5 60.5v20q33 11 50 11q49 0 49 -68
q0 -28 -20 -105.5t-20 -86.5q0 -2 2 -4q13 52 29 100.5t38 99t49 81t55 30.5q44 0 44 -86q0 -30 -8 -106.5t-8 -101.5q0 -56 26 -56q34 0 82 122z" />
    <glyph glyph-name="o" unicode="o" horiz-adv-x="312" 
d="M329 237q9 0 15.5 -10.5t6.5 -27.5q0 -57 -34.5 -92.5t-79.5 -35.5q-16 0 -27 4q-23 -63 -60 -97.5t-75 -34.5q-47 0 -69 39t-22 102q0 95 41 187.5t90 92.5q16 0 24 -11q16 39 40 39q23 0 40 -39.5t17 -112.5q0 -54 -10 -106q10 -8 21 -8q26 0 49.5 29.5t32.5 81.5z
M107 31q18 0 36 20t29 51q-47 54 -47 164q0 38 9 74q-18 -24 -39 -103t-21 -137q0 -69 33 -69z" />
    <glyph glyph-name="p" unicode="p" horiz-adv-x="369" 
d="M250 388q33 0 53 -32.5t20 -94.5q0 -50 -15 -103t-43 -101t-74.5 -78.5t-102.5 -30.5h-2q-9 -102 -8 -221q-12 -5 -26 -5q-44 0 -63 18t-19 55q0 34 34 173v6q-13 16 -13 33q0 27 19 46q1 0 1 -1l6 68q-28 10 -28 20q0 1 12.5 34t23 96t6.5 140q24 8 42 8q52 0 52 -62
q0 -46 -19 -98q-2 -5 0 -5q3 2 4 4q18 50 55.5 90.5t84.5 40.5zM153 17q35 52 57.5 130.5t22.5 133.5q0 49 -18 49q-31 0 -66.5 -82.5t-54.5 -225.5q32 -5 56 -5h3z" />
    <glyph glyph-name="q" unicode="q" horiz-adv-x="341" 
d="M358 121q0 -31 -31.5 -78t-73.5 -79q-22 -193 -28 -263q-17 -6 -37 -6q-31 0 -51 16.5t-20 50.5q0 37 40 173q-4 9 -4 25q0 14 18 24q28 97 28 115q0 7 -3 8q-9 -68 -43.5 -106.5t-75.5 -38.5q-37 0 -61 32.5t-24 92.5q0 120 62.5 225t139.5 105q33 0 51.5 -25t18.5 -59
q0 -36 -18 -59t-52 -23q-1 0 -3.5 0.5t-4.5 0.5q14 23 14 70q0 35 -17 35q-30 0 -62.5 -79t-32.5 -171q0 -67 27 -67q14 0 29.5 19.5t30 67.5t20.5 115q40 -8 55 -30.5t15 -76.5q0 -37 -5 -100q47 43 79 115q19 -5 19 -29z" />
    <glyph glyph-name="r" unicode="r" horiz-adv-x="288" 
d="M292 176q15 -12 15 -37q0 -55 -57 -120.5t-117 -65.5q-70 0 -70 82q0 63 33.5 152.5t51.5 110.5q-11 0 -81 -27q-16 -85 -45.5 -153t-58.5 -68q-6 0 -13.5 5t-7.5 11q52 68 77 196q-23 17 -49 105q29 8 95.5 21.5t90.5 13.5q11 0 31.5 -32.5t20.5 -52.5q-9 -12 -20 -68.5
t-11 -104.5q0 -80 30 -80q17 0 40 30t45 82z" />
    <glyph glyph-name="s" unicode="s" horiz-adv-x="248" 
d="M139 322q0 -45 26.5 -118.5t26.5 -104.5q0 -47 -63.5 -108.5t-101.5 -61.5q-40 0 -64 67t-10 119q8 30 28 31q55 101 67 216q1 10 31 21t52 11q16 0 16 -8q-8 -25 -8 -64zM64 2q13 0 22 15.5t9 45.5q0 26 -12.5 101.5t-16.5 75.5q-1 0 -3 -5q-21 -73 -62 -164
q29 -69 63 -69z" />
    <glyph glyph-name="t" unicode="t" horiz-adv-x="228" 
d="M234 192q21 -11 21 -37q0 -62 -66.5 -144t-134.5 -82q-65 0 -65 106q0 81 32 247q-20 3 -30.5 18t-27.5 57q28 12 76 24q17 99 17 184q1 0 12 3.5t26.5 6.5t26.5 3q32 0 32 -43q0 -19 -9.5 -55t-19.5 -62l-10 -27q29 -1 44 -21.5t40 -84.5q-5 0 -14.5 0.5t-14.5 0.5
q-9 0 -72 -3q-10 -80 -10 -138q0 -104 38 -104q26 0 58.5 46t50.5 105z" />
    <glyph glyph-name="u" unicode="u" horiz-adv-x="373" 
d="M378 174q15 -7 15 -32q0 -55 -56 -131t-113 -76q-50 0 -50 67q0 20 6 59.5t6 40.5q1 4 -3 6q-22 -84 -58.5 -129.5t-72.5 -45.5q-66 0 -66 114q0 75 35 231l-14 40q0 9 29.5 22.5t51.5 13.5q20 0 20 -13q-29 -177 -29 -243q0 -56 22 -56q12 0 28 29.5t36 105.5t34 185
q22 8 42 8q37 0 37 -37q0 -8 -8 -75t-8 -116q0 -91 27 -91q34 0 89 123z" />
    <glyph glyph-name="v" unicode="v" horiz-adv-x="340" 
d="M356 237q9 0 15.5 -10.5t6.5 -27.5q0 -46 -34.5 -81t-75.5 -35q-16 0 -29 6q-25 -72 -65.5 -112.5t-80.5 -40.5q-42 0 -69 44.5t-27 128.5q0 65 18.5 134.5t40.5 98.5q4 5 29 16t37 11q6 0 6 -4q-13 -38 -25.5 -105.5t-12.5 -130.5q0 -46 12 -69.5t30 -23.5t36.5 22.5
t31.5 62.5q-30 42 -30 116q0 69 18.5 114.5t40.5 45.5q17 0 28 -30t11 -89q0 -68 -13 -131q8 -7 21 -7q23 0 46 25t34 72z" />
    <glyph glyph-name="w" unicode="w" horiz-adv-x="493" 
d="M509 237q10 0 16 -10.5t6 -27.5q0 -45 -34 -80.5t-75 -35.5q-14 0 -28 6q-48 -134 -126 -134q-74 0 -74 113q0 32 8 93q1 4 -1 5l-3 -5q-55 -216 -133 -216q-77 0 -77 141q0 67 18 135.5t43 107.5q5 8 29 18t37 10q7 0 7 -4q-16 -44 -28.5 -116.5t-12.5 -124.5
q0 -61 19 -61q14 0 31 31t36 103.5t31 172.5q1 7 27.5 15t44.5 8q10 0 10 -4q0 -5 -5 -30t-10 -65t-5 -81q0 -69 12.5 -107t31.5 -38q26 0 50 69q-27 42 -27 117q0 69 18.5 112t41.5 43q19 0 29.5 -31.5t10.5 -81.5q0 -69 -16 -136q9 -7 20 -7q22 0 44.5 25.5t33.5 70.5z
" />
    <glyph glyph-name="x" unicode="x" horiz-adv-x="361" 
d="M374 199q20 0 20 -30q0 -37 -26 -88.5t-75.5 -94t-102.5 -42.5q-72 0 -102 76q-90 -130 -98 -163q-16 0 -24 6.5t-9.5 12.5t-1.5 15q0 47 115 213q-3 28 -4 63l-1.5 52.5t-3.5 17.5q-15 -83 -44.5 -135t-54.5 -52q-14 0 -21 16q44 63 66 121.5t37 168.5q0 9 29 20.5
t47 11.5q5 0 7 -2t2 -4v-9v-5q0 -111 8 -166q120 171 134 218q20 5 29 5q18 0 18 -19q0 -61 -160 -288q27 -66 81 -66q38 0 73 35t62 112z" />
    <glyph glyph-name="y" unicode="y" horiz-adv-x="362" 
d="M244 -88q40 8 78 18q-4 -46 -26 -63q-23 -17 -68 -30q-32 -129 -91 -198t-159 -69q-83 0 -163.5 62.5t-80.5 122.5q0 19 7 35t22 28t32.5 21.5t44.5 16.5t51 12t59.5 9.5t62 7l67 6.5t66.5 7q18 80 39 224q0 4 -1 4q-3 0 -3 -3q-23 -82 -61 -126t-73 -44q-64 0 -64 109
q0 76 36 211q-2 8 -6.5 20l-8 21t-3.5 11q0 8 33 22t55 14q20 0 20 -13q-30 -167 -30 -230q0 -56 21 -56q12 0 30 31.5t42 110.5t44 189q24 6 39 6q22 0 30.5 -11.5t8.5 -39.5q-4 -39 -11 -113t-11.5 -117.5t-12 -102t-15.5 -103.5zM-51 -346q65 0 106.5 41t68.5 121
q-20 -3 -58.5 -8t-60 -8.5l-53 -9t-49.5 -11t-36.5 -13.5t-27 -18t-8.5 -22q0 -27 33.5 -49.5t84.5 -22.5z" />
    <glyph glyph-name="z" unicode="z" horiz-adv-x="326" 
d="M293 -105q0 -8 -1 -12q-4 0 -11 -0.5t-10 -0.5q-8 -86 -87 -155t-202 -69q-66 0 -111 34t-45 90q0 42 59 76t135.5 51t153.5 21q-14 41 -65 41q-30 0 -75 -18q-22 15 -22 40q0 31 89.5 147t98.5 138q-75 -21 -143 -27q-16 -82 -41.5 -141.5t-52.5 -59.5q-6 0 -13.5 5
t-7.5 11q51 68 77 184q-8 3 -14.5 14t-10 22.5t-9.5 34.5t-11 38q196 28 245 28q12 0 34 -43t22 -63q0 -23 -36.5 -76t-82.5 -110.5t-56 -74.5q16 4 37 4q58 0 92 -28t41 -73q23 -9 23 -28zM-30 -252q79 0 132 37t70 87q-87 -11 -147.5 -29.5t-85.5 -36t-25 -33.5
q0 -25 56 -25z" />
    <glyph glyph-name="braceleft" unicode="{" horiz-adv-x="299" 
d="M221 681q56 0 56 -23v-4q-29 0 -44.5 -35.5t-21.5 -88l-12.5 -106t-24.5 -97t-50 -54.5q53 -16 53 -119q0 -31 -6 -94.5t-6 -88.5q0 -78 41 -78q0 -27 -61 -27q-100 0 -100 117q0 43 15.5 127t15.5 109q0 42 -26 42q-8 0 -8 11q0 14 12 14q23 0 30 30t7 90v35
q0 41 1.5 68.5t8.5 63t20.5 57t38.5 36.5t61 15z" />
    <glyph glyph-name="bar" unicode="|" horiz-adv-x="265" 
d="M64 -84q5 106 28.5 426.5t28.5 372.5q48 -5 63 -20t15 -43q0 -40 -6.5 -166t-14 -250l-16 -258.5t-9.5 -154.5q-58 8 -73.5 24.5t-15.5 68.5z" />
    <glyph glyph-name="braceright" unicode="}" horiz-adv-x="306" 
d="M250 286q8 0 8 -11q0 -14 -12 -14q-24 0 -30.5 -29.5t-6.5 -90.5v-35q0 -41 -1.5 -68.5t-8.5 -63t-20.5 -57t-38.5 -36.5t-61 -15q-57 0 -57 23v1q1 2 1 3q29 0 44.5 35.5t21.5 87.5l12.5 106t24.5 97.5t49 54.5q-52 16 -52 119q0 31 5.5 94t5.5 89q0 78 -40 78
q0 27 61 27q100 0 100 -117q0 -43 -16 -127t-16 -109q0 -42 27 -42z" />
    <glyph glyph-name="asciitilde" unicode="~" horiz-adv-x="390" 
d="M122 350q21 0 74 -19t76 -19q56 0 56 58q3 1 8 1q25 0 25 -48q0 -39 -22.5 -72.5t-65.5 -33.5q-21 0 -74 19t-77 19q-56 0 -56 -58q-2 -1 -7 -1q-25 0 -25 49q0 40 22.5 72.5t65.5 32.5z" />
    <glyph glyph-name="exclamdown" unicode="&#xa1;" horiz-adv-x="235" 
d="M177 444q-12 -4 -25 -4q-28 0 -43 17.5t-15 46.5q0 36 18.5 55.5t41.5 19.5q47 0 47 -46q0 -31 -24 -89zM96 353l-3 21q4 15 18.5 24t31.5 9q24 0 33 -16q-11 -58 -22 -187t-11 -233q0 -48 3 -84q-24 -8 -40 -8q-40 0 -60.5 36t-20.5 96q0 136 71 342z" />
    <glyph glyph-name="cent" unicode="&#xa2;" horiz-adv-x="378" 
d="M313 132q9 -12 2.5 -33.5t-37 -46t-70.5 -32.5q-3 -38 -8 -93t-6 -69q-39 10 -49.5 20.5t-10.5 42.5q0 34 5 98q-61 12 -91 63.5t-30 125.5q0 99 48 192.5t123 120.5q1 23 2.5 82t2.5 82q50 -7 64 -16t14 -34q0 -8 -9 -107q32 -7 53 -29t21 -39q0 -3 -8.5 -44
t-17.5 -90.5t-9 -71.5q-3 0 -8.5 0.5t-18.5 3.5t-23 8t-18.5 16.5t-8.5 26.5q0 36 11 81.5t24 71.5q-12 2 -18 2q-36 0 -65 -38.5t-43.5 -93.5t-14.5 -110q0 -73 31 -104.5t74 -24.5t89 39z" />
    <glyph glyph-name="sterling" unicode="&#xa3;" horiz-adv-x="396" 
d="M232 122q38 0 56 -22.5t29 -98.5q-15 3 -52 3q-32 0 -103.5 -5t-87.5 -5q-22 0 -38 24t-20 48l-5 25q25 0 61.5 37.5t59.5 79.5q-52 -2 -67 -2q-23 0 -31.5 12t-17.5 65q13 0 109 18l-23.5 20t-26.5 23.5t-17.5 24.5t-8.5 33q0 60 67 104.5t134 44.5q19 0 46.5 -25
t27.5 -42q0 -2 -14 -55t-14 -69q-3 0 -7.5 0.5t-16 3.5t-20.5 8t-16 16.5t-7 26.5q0 22 11 51q-40 -5 -76.5 -22t-36.5 -35q0 -15 13.5 -30t36 -33t33.5 -31q5 1 12 1q21 0 30 -19t18 -83q-10 0 -52 -2q-14 -32 -38.5 -59.5t-50.5 -39.5q70 9 103 9z" />
    <glyph glyph-name="currency" unicode="&#xa4;" horiz-adv-x="379" 
d="M319 228q10 0 17.5 -13t7.5 -31q0 -57 -45 -112.5t-126 -55.5q-77 0 -115.5 54.5t-38.5 137.5v14q-19 5 -19 30q0 14 5 44l26 8q23 95 80 160.5t131 65.5q40 0 68 -25t28 -45q0 -2 -14 -55t-14 -69q-3 0 -7.5 0.5t-16 3.5t-20.5 8t-16 16.5t-7 26.5q0 28 19 70
q-9 3 -19 3q-37 0 -65.5 -38t-43.5 -98q18 2 26 2q31 0 43.5 -20t29.5 -86q-5 0 -14.5 0.5t-14.5 0.5q-42 0 -84 -3q0 -55 19 -89.5t58 -34.5q38 0 73 35t49 95z" />
    <glyph glyph-name="yen" unicode="&#xa5;" horiz-adv-x="434" 
d="M366 73q-11 0 -57 -2q-5 -52 -7 -104q-18 -3 -34 -3q-36 0 -52 18t-16 54q0 8 2 30q-16 -1 -41 -1q-23 0 -31.5 12t-17.5 65q12 0 108 18q8 36 37 152q-70 -117 -153 -117q-32 0 -53.5 23t-21.5 66q0 70 63 261q33 -7 44 -18t11 -34q0 -16 -9.5 -69.5t-9.5 -85.5
q0 -52 26 -52q32 0 77 74t67 186q28 -4 40 -16.5t12 -41.5q0 -25 -31 -313q20 0 29 -19t18 -83z" />
    <glyph glyph-name="brokenbar" unicode="&#xa6;" horiz-adv-x="266" 
d="M122 715q48 -5 63 -20t15 -43q0 -26 -17 -374q-53 8 -70 21.5t-17 49.5q0 5 4 67.5t10.5 153t11.5 145.5zM91 262q49 -5 66.5 -20.5t17.5 -42.5q0 -26 -4.5 -109.5t-10 -169.5t-6.5 -97q-53 8 -70 21.5t-17 49.5q0 5 3.5 68t9.5 154t11 146z" />
    <glyph glyph-name="dieresis" unicode="&#xa8;" horiz-adv-x="322" 
d="M206 600q44 17 71 17q35 0 35 -45q0 -50 -25.5 -94t-54.5 -44q-35 0 -35 72q0 43 9 94zM70 588q41 17 67 17q34 0 34 -44q0 -47 -24.5 -90t-52.5 -43q-34 0 -34 70q0 42 10 90z" />
    <glyph glyph-name="copyright" unicode="&#xa9;" horiz-adv-x="655" 
d="M588 410q8 -35 8 -75q0 -64 -19 -132t-55.5 -131.5t-100.5 -104t-145 -40.5q-101 0 -170.5 79t-69.5 231q0 82 23.5 164t66 149t109 109t144.5 42q107 0 161.5 -70.5t54.5 -166.5q0 -24 -7 -54zM300 21q66 0 118.5 45t80.5 109.5t34 136.5q-13 -8 -22 -8q-19 0 -31 25
q38 31 45 96q-4 15 -13 38q6 3 12 5q-7 62 -48.5 106t-110.5 44q-74 0 -133 -54.5t-88.5 -134.5t-29.5 -166q0 -116 54.5 -179t131.5 -63zM373 336q8 7 13.5 33.5t5.5 55.5q0 73 -35 73q-29 0 -59.5 -73.5t-30.5 -157.5q0 -53 15.5 -78.5t40.5 -25.5q27 0 54.5 26.5
t42.5 68.5q18 0 18 -25q0 -39 -38 -84.5t-93 -45.5q-50 0 -84.5 40t-34.5 118q0 102 51.5 193t122.5 91q37 0 60.5 -28.5t23.5 -82.5q0 -40 -18 -71t-43 -31q-7 0 -12 4z" />
    <glyph glyph-name="ordfeminine" unicode="&#xaa;" horiz-adv-x="287" 
d="M236 416q0 -8 -4.5 -48t-4.5 -61q0 -29 8 -37q-8 -4 -20 -4q-21 0 -37 13t-16 39q0 18 5 41q-33 -77 -83 -77q-29 0 -44.5 25t-15.5 63q0 76 46 151.5t110 75.5q33 0 49 -19t16 -47q0 -49 -33 -73q24 -10 24 -42zM118 350q21 0 45.5 64t24.5 110q0 31 -14 31
q-27 0 -50 -59t-23 -107q0 -39 17 -39z" />
    <glyph glyph-name="guillemotleft" unicode="&#xab;" horiz-adv-x="422" 
d="M146 160q37 -12 74.5 -45.5t37.5 -64.5q0 -5 -1.5 -9.5t-3 -8t-7 -9l-9.5 -9.5l-14.5 -14l-18.5 -17q-28 46 -55 78t-42.5 43.5t-25 23t-9.5 25.5q0 10 7 28q46 24 94.5 70t72.5 86l9.5 -11.5t8 -10t6 -8l5.5 -7t3.5 -5.5t2.5 -5.5t1.5 -5t0.5 -5.5q0 -32 -46.5 -68.5
t-90.5 -50.5zM361 220q0 -37 -61 -63q38 -25 38 -47q0 -4 -0.5 -7.5t-2 -7.5t-3 -6.5t-6 -7.5l-7 -8t-9.5 -10.5l-12 -12.5q0 32 -33.5 65t-68.5 45q42 13 84.5 49.5t42.5 69.5q32 -35 36 -47q2 -6 2 -12z" />
    <glyph glyph-name="logicalnot" unicode="&#xac;" horiz-adv-x="283" 
d="M187 211q-54 -12 -89 -12q-36 0 -46 14t-18 61q-1 10 -2 15q11 0 92.5 6.5t97.5 6.5q11 0 24 -29t13 -40q0 -1 -4.5 -20t-8.5 -45.5t-4 -45.5q0 -2 0.5 -6t0.5 -5q-17 -5 -26 -5q-34 0 -34 53q0 18 4 52z" />
    <glyph glyph-name="registered" unicode="&#xae;" horiz-adv-x="655" 
d="M588 410q8 -35 8 -75q0 -64 -19 -132t-55.5 -131.5t-100.5 -104t-145 -40.5q-101 0 -170.5 79t-69.5 231q0 82 23.5 164t66 149t109 109t144.5 42q107 0 161.5 -70.5t54.5 -166.5q0 -24 -7 -54zM300 21q66 0 118.5 45t80.5 109.5t34 136.5q-13 -8 -22 -8q-19 0 -31 25
q38 31 45 96q-4 15 -13 38q6 3 12 5q-7 62 -48.5 106t-110.5 44q-74 0 -133 -54.5t-88.5 -134.5t-29.5 -166q0 -116 54.5 -179t131.5 -63zM476 432q0 -53 -50 -101t-146 -68q0 -2 -0.5 -6t-0.5 -7q163 -16 163 -57q0 -21 -16.5 -45t-32.5 -24q-3 0 -5 1q0 29 -115 69
q-5 -62 -5 -99q-8 -2 -37 -2q-36 0 -36 32q0 41 9 92q-4 0 -8 2q-12 5 -12 25q0 11 5 36l28 6q15 74 42 160q-23 -9 -36 -18q-10 24 -10 29q0 25 49 48.5t102 23.5q52 0 82 -28t30 -69zM308 461q-11 -63 -22 -153q67 27 109 63.5t42 64.5q0 34 -64 34q-25 0 -65 -9z" />
    <glyph glyph-name="macron" unicode="&#xaf;" horiz-adv-x="293" 
d="M50 534q11 0 95 16.5t100 16.5q20 0 29.5 -22.5t18.5 -89.5q-21 0 -95 -4t-99 -4q-22 0 -30.5 15.5t-18.5 71.5z" />
    <glyph glyph-name="degree" unicode="&#xb0;" horiz-adv-x="259" 
d="M186 604q27 0 41.5 -27t14.5 -67q0 -81 -41.5 -128.5t-93.5 -47.5q-40 0 -60 27t-20 68q0 57 30.5 106.5t73.5 49.5q5 0 7 -1q23 20 48 20zM121 386q26 0 44 40t18 81q0 43 -18 43q-14 0 -30 -27t-17 -60q-6 -2 -9 -2q-10 0 -14 7q-4 -26 -4 -37q0 -21 8.5 -33t21.5 -12z
" />
    <glyph glyph-name="plusminus" unicode="&#xb1;" horiz-adv-x="285" 
d="M87 262q-23 0 -31.5 12t-17.5 65q10 0 68 13q-2 36 -2 46q0 21 15 28t62 9l-3 -68q25 5 35 5q21 0 30 -19t18 -83q-22 0 -86 -4q0 -5 -0.5 -14.5t-1.5 -13.5q-2 -23 -11 -30t-48 -11q0 23 -3 65h-24zM206 181q26 0 35.5 -14.5t15.5 -69.5q-20 1 -86 2.5t-93 3.5
q-23 2 -31 12t-15 52q103 14 174 14z" />
    <glyph glyph-name="acute" unicode="&#xb4;" horiz-adv-x="284" 
d="M140 442q17 42 28.5 84t14.5 63l3 21q34 2 37 2q51 0 51 -42q0 -50 -37 -95.5t-70 -45.5q-13 0 -27 13z" />
    <glyph glyph-name="paragraph" unicode="&#xb6;" horiz-adv-x="642" 
d="M639 506q-54 16 -111 20q-2 -33 -6 -78.5l-9.5 -109.5t-8.5 -102q32 8 48 18q9 -10 9 -22q0 -33 -62 -67q-17 -213 -17 -285q-23 -5 -37 -5q-66 0 -66 75q0 57 20 177q-34 -8 -51 -10q-17 -131 -17 -197q-24 -6 -41 -6q-48 0 -48 89q0 45 11 109q-102 6 -157.5 64.5
t-55.5 141.5q0 54 24.5 105.5t71 94.5t122 69.5t167.5 26.5q91 0 155 -25t64 -63q0 -8 -5 -20zM360 212l54 6q3 17 25.5 137t30.5 173q-43 0 -104 -9q23 -16 23 -43q0 -51 -29 -264z" />
    <glyph glyph-name="periodcentered" unicode="&#xb7;" horiz-adv-x="216" 
d="M149 72q-19 -6 -32 -6q-27 0 -42 19t-15 49q0 34 17.5 53t40.5 19q48 0 48 -51q0 -30 -17 -83z" />
    <glyph glyph-name="cedilla" unicode="&#xb8;" horiz-adv-x="205" 
d="M149 -5q-32 -1 -34 -17q0 -8 14 -13t31 -8.5t31 -16.5t14 -35q0 -46 -36 -74t-77 -28q-27 0 -44.5 14t-17.5 40q0 19 7.5 35t15.5 16q1 0 5 -2q0 -1 -0.5 -2.5t-0.5 -2.5q0 -26 40 -26q22 0 42 8.5t20 19.5q0 6 -15 11.5t-32.5 9.5t-32.5 13t-15 22q0 22 21 37t43 15
q21 0 21 -16z" />
    <glyph glyph-name="ordmasculine" unicode="&#xba;" horiz-adv-x="259" 
d="M170 597q33 0 51 -35.5t18 -87.5q0 -76 -36 -137.5t-100 -61.5q-42 0 -62.5 30.5t-20.5 79.5q0 69 33.5 133t76.5 64q6 0 9 -1q9 16 31 16zM118 333q24 0 40.5 48t16.5 103q0 69 -25 84q-19 -7 -38.5 -69.5t-19.5 -112.5q0 -53 26 -53z" />
    <glyph glyph-name="guillemotright" unicode="&#xbb;" horiz-adv-x="405" 
d="M225 337q28 -46 55 -78t42.5 -43.5t25 -23t9.5 -25.5q0 -10 -7 -28q-46 -24 -93.5 -69t-73.5 -87l-15 18l-12.5 15.5t-8 11.5t-6 12t-1.5 11q0 32 48.5 64.5t94.5 44.5q-35 13 -70 49.5t-35 67.5q0 5 1.5 9.5t3 8t6.5 9t9 9l12.5 11t14.5 13.5zM131 280q0 -32 33.5 -65
t68.5 -45q-42 -13 -84.5 -49.5t-42.5 -69.5q-32 35 -36 47q-2 6 -2 12q0 37 61 63q-38 25 -38 47q0 4 0.5 7.5t2 7.5t3 6.5t6 7.5l7 8t9.5 10.5z" />
    <glyph glyph-name="onequarter" unicode="&#xbc;" horiz-adv-x="796" 
d="M574 498q-4 0 -6 1q-119 -147 -240.5 -337.5t-145.5 -281.5q-21 0 -38.5 29.5t-17.5 63.5q0 50 111 210t236.5 300t162.5 140q10 0 35 -15q-36 -58 -57.5 -84t-39.5 -26zM180 169q-20 -2 -30 -2q-70 0 -70 50q0 38 40 166q-7 5 -15.5 13t-12.5 14l-5 6q20 41 36.5 92
t22.5 82l7 30q4 0 9.5 0.5t7.5 0.5q24 0 32.5 -17t8.5 -52q0 -18 -15.5 -179t-15.5 -204zM725 63q21 -31 21 -78q-4 -6 -9 -7q0 6 -15 7q-1 -26 -1 -70q-18 -3 -27 -3q-29 0 -48.5 14.5t-19.5 40.5v16q-137 -8 -172 -17q-23 58 -23 100q0 26 53.5 107.5l107.5 163t54 106.5
q11 0 22.5 -9.5t11.5 -23.5q0 -29 -18 -73.5t-45 -88l-52.5 -82t-45.5 -65.5t-21 -28q-1 -2 -1 -3v-1q86 21 141 26q8 54 24 153t17 109q58 -3 58 -57q0 -8 -2 -42.5t-5 -92.5t-5 -102z" />
    <glyph glyph-name="onehalf" unicode="&#xbd;" horiz-adv-x="822" 
d="M574 498q-4 0 -6 1q-119 -147 -240.5 -337.5t-145.5 -281.5q-21 0 -38.5 29.5t-17.5 63.5q0 50 111 210t236.5 300t162.5 140q10 0 35 -15q-36 -58 -57.5 -84t-39.5 -26zM180 169q-20 -2 -30 -2q-70 0 -70 50q0 38 40 166q-7 5 -15.5 13t-12.5 14l-5 6q20 41 36.5 92
t22.5 82l7 30q4 0 9.5 0.5t7.5 0.5q24 0 32.5 -17t8.5 -52q0 -18 -15.5 -179t-15.5 -204zM678 44q37 0 53.5 -21.5t27.5 -77.5q1 -4 1 -9q-3 -6 -8 -7q0 12 -59 12q-115 0 -220 -24q-24 61 -24 85q0 26 43.5 72.5t96.5 89t96.5 85t43.5 60.5q0 12 -41 12q-44 0 -99.5 -12
t-55.5 -21t28 -9q37 0 53 7l1 -7q0 -18 -35 -29.5t-65 -11.5q-23 0 -23 26q0 36 13.5 72.5t32.5 47.5q55 30 145 30q24 0 37 -4q25 -7 41 -44t16 -62q0 -37 -39.5 -89.5t-87.5 -94l-87.5 -74.5t-39.5 -36q0 -1 1 -1q108 35 154 35z" />
    <glyph glyph-name="threequarters" unicode="&#xbe;" horiz-adv-x="944" 
d="M382 272q0 -73 -82 -129t-171 -56q-19 0 -31 22t-18 82q3 -1 14 -1q114 6 181 40.5t67 71.5q0 18 -20 29.5t-58 11.5q-50 0 -125 -23q-9 25 -9 49q0 27 57.5 55t114.5 53t57 43q0 12 -41 12q-48 0 -109.5 -13t-61.5 -23q0 -6 15 -6l15 1q1 -2 1 -4q0 -9 -14 -17.5
t-28 -8.5q-26 0 -26 28q0 26 13.5 60.5t28.5 42.5q59 32 148 32q39 0 56.5 -16t34.5 -71q4 -16 4 -32q0 -14 -4 -25t-16 -21l-21 -17t-31.5 -16t-35.5 -13.5l-44 -15t-47 -16.5q0 -1 2 -1q1 0 2 1q47 15 81 15q101 0 101 -124zM744 498q-4 0 -6 1q-119 -147 -240.5 -337.5
t-145.5 -281.5q-21 0 -38.5 29.5t-17.5 63.5q0 50 111 210t236.5 300t162.5 140q10 0 35 -15q-36 -58 -57.5 -84t-39.5 -26zM873 63q21 -31 21 -78q-4 -6 -9 -7q0 6 -15 7q-1 -26 -1 -70q-18 -3 -27 -3q-29 0 -48.5 14.5t-19.5 40.5v16q-137 -8 -172 -17q-23 58 -23 100
q0 26 53.5 107.5l107.5 163t54 106.5q11 0 22.5 -9.5t11.5 -23.5q0 -29 -18 -73.5t-45 -88l-52.5 -82t-45.5 -65.5t-21 -28q-1 -2 -1 -3v-1q86 21 141 26l23.5 153t17.5 109q58 -3 58 -57q0 -8 -2 -42.5t-5 -92.5t-5 -102z" />
    <glyph glyph-name="questiondown" unicode="&#xbf;" horiz-adv-x="487" 
d="M258 569q25 5 37 5q29 0 45.5 -16.5t16.5 -42.5q0 -31 -22.5 -49.5t-49.5 -18.5q-58 0 -58 50q0 39 31 72zM198 30q-8 5 -8 13q0 28 66.5 73.5t113.5 45.5q27 0 47 -47t20 -103q0 -39 -53.5 -77t-121.5 -59.5t-119 -21.5q-42 0 -76 62t-34 102q0 46 41.5 100t91.5 93
l91.5 74t41.5 47q0 19 -38 19q-36 0 -98 -14q-2 4 -2 12q0 24 35.5 42t76.5 18q34 0 55.5 -14.5t21.5 -44.5q0 -38 -42.5 -92.5t-94 -100.5t-94 -92.5t-42.5 -70.5q0 -36 48 -36q73 0 166.5 45t93.5 80q0 13 -18 13q-29 0 -88 -25t-81 -41z" />
    <glyph glyph-name="Agrave" unicode="&#xc0;" horiz-adv-x="658" 
d="M463 660q-33 0 -66 46t-33 97q0 45 44 45q11 0 47 -6q1 -74 33 -171q-15 -11 -25 -11zM588 65q-31 0 -51 -1q5 -100 13 -165q-27 -9 -50 -9q-46 0 -66 40.5t-24 127.5q-195 -9 -241 -10q-23 -53 -28 -66q11 -7 11 -20q0 -33 -52 -115q-40 0 -40 48q0 43 46 156
q-31 6 -49.5 42t-18.5 66q0 17 7 17q17 -9 58 -9q13 0 55 2q113 248 231 443q40 10 59 10q10 0 17.5 -2.5t14 -9.5t11 -16t9 -27t7.5 -36.5t6 -50t5.5 -62.5t5.5 -79q3 -44 7 -138h10q15 0 24.5 -7t13.5 -23.5t5.5 -28.5t2 -39t1.5 -38zM401 518q-78 -138 -174 -342
q128 14 181 18q2 106 2 179q0 109 -1 152q-4 0 -8 -7z" />
    <glyph glyph-name="Aacute" unicode="&#xc1;" horiz-adv-x="658" 
d="M531 804q0 -50 -37 -95.5t-70 -45.5q-13 0 -27 13q17 42 28.5 84t14.5 63l3 21q34 2 37 2q51 0 51 -42zM588 65q-31 0 -51 -1q5 -100 13 -165q-27 -9 -50 -9q-46 0 -66 40.5t-24 127.5q-195 -9 -241 -10q-23 -53 -28 -66q11 -7 11 -20q0 -33 -52 -115q-40 0 -40 48
q0 43 46 156q-31 6 -49.5 42t-18.5 66q0 17 7 17q17 -9 58 -9q13 0 55 2q113 248 231 443q40 10 59 10q10 0 17.5 -2.5t14 -9.5t11 -16t9 -27t7.5 -36.5t6 -50t5.5 -62.5t5.5 -79q3 -44 7 -138h10q15 0 24.5 -7t13.5 -23.5t5.5 -28.5t2 -39t1.5 -38zM401 518
q-78 -138 -174 -342q128 14 181 18q2 106 2 179q0 109 -1 152q-4 0 -8 -7z" />
    <glyph glyph-name="Acircumflex" unicode="&#xc2;" horiz-adv-x="658" 
d="M370 660q-36 0 -56 49q32 13 56 38t34.5 47t25 38.5t32.5 16.5q16 0 37 -8q7 -52 32.5 -83t52.5 -44q-24 -47 -59 -47q-27 0 -47.5 23t-22.5 58q-10 -35 -35 -61.5t-50 -26.5zM588 65q-31 0 -51 -1q5 -100 13 -165q-27 -9 -50 -9q-46 0 -66 40.5t-24 127.5
q-195 -9 -241 -10q-23 -53 -28 -66q11 -7 11 -20q0 -33 -52 -115q-40 0 -40 48q0 43 46 156q-31 6 -49.5 42t-18.5 66q0 17 7 17q17 -9 58 -9q13 0 55 2q113 248 231 443q40 10 59 10q10 0 17.5 -2.5t14 -9.5t11 -16t9 -27t7.5 -36.5t6 -50t5.5 -62.5t5.5 -79q3 -44 7 -138
h10q15 0 24.5 -7t13.5 -23.5t5.5 -28.5t2 -39t1.5 -38zM401 518q-78 -138 -174 -342q128 14 181 18q2 106 2 179q0 109 -1 152q-4 0 -8 -7z" />
    <glyph glyph-name="Atilde" unicode="&#xc3;" horiz-adv-x="658" 
d="M356 678q-26 0 -41 26t-15 50q0 16 7 16q7 -6 25 -6q26 0 97.5 14t92.5 14q26 0 41 -27.5t15 -56.5q0 -22 -8 -22q-8 8 -37 8q-25 0 -89.5 -8t-87.5 -8zM588 65q-31 0 -51 -1q5 -100 13 -165q-27 -9 -50 -9q-46 0 -66 40.5t-24 127.5q-195 -9 -241 -10q-23 -53 -28 -66
q11 -7 11 -20q0 -33 -52 -115q-40 0 -40 48q0 43 46 156q-31 6 -49.5 42t-18.5 66q0 17 7 17q17 -9 58 -9q13 0 55 2q113 248 231 443q40 10 59 10q10 0 17.5 -2.5t14 -9.5t11 -16t9 -27t7.5 -36.5t6 -50t5.5 -62.5t5.5 -79q3 -44 7 -138h10q15 0 24.5 -7t13.5 -23.5
t5.5 -28.5t2 -39t1.5 -38zM401 518q-78 -138 -174 -342q128 14 181 18q2 106 2 179q0 109 -1 152q-4 0 -8 -7z" />
    <glyph glyph-name="Adieresis" unicode="&#xc4;" horiz-adv-x="658" 
d="M506 668q-35 0 -35 72q0 43 9 94q44 17 71 17q35 0 35 -45q0 -50 -25.5 -94t-54.5 -44zM368 662q-34 0 -34 70q0 42 10 90q41 17 67 17q34 0 34 -44q0 -47 -24.5 -90t-52.5 -43zM588 65q-31 0 -51 -1q5 -100 13 -165q-27 -9 -50 -9q-46 0 -66 40.5t-24 127.5
q-195 -9 -241 -10q-23 -53 -28 -66q11 -7 11 -20q0 -33 -52 -115q-40 0 -40 48q0 43 46 156q-31 6 -49.5 42t-18.5 66q0 17 7 17q17 -9 58 -9q13 0 55 2q113 248 231 443q40 10 59 10q10 0 17.5 -2.5t14 -9.5t11 -16t9 -27t7.5 -36.5t6 -50t5.5 -62.5t5.5 -79q3 -44 7 -138
h10q15 0 24.5 -7t13.5 -23.5t5.5 -28.5t2 -39t1.5 -38zM401 518q-78 -138 -174 -342q128 14 181 18q2 106 2 179q0 109 -1 152q-4 0 -8 -7z" />
    <glyph glyph-name="Aring" unicode="&#xc5;" horiz-adv-x="658" 
d="M460 666q-33 0 -50.5 20t-17.5 47q0 25 12 41l-4 19q0 21 20 36.5t54 15.5q35 0 54 -23t19 -56q0 -39 -24 -69.5t-63 -30.5zM496 752q0 29 -34 29q-6 0 -10 -1q-7 -14 -7 -30q0 -27 26 -27q10 0 17.5 8.5t7.5 20.5zM588 65q-31 0 -51 -1q5 -100 13 -165q-27 -9 -50 -9
q-46 0 -66 40.5t-24 127.5q-195 -9 -241 -10q-23 -53 -28 -66q11 -7 11 -20q0 -33 -52 -115q-40 0 -40 48q0 43 46 156q-31 6 -49.5 42t-18.5 66q0 17 7 17q17 -9 58 -9q13 0 55 2q113 248 231 443q40 10 59 10q10 0 17.5 -2.5t14 -9.5t11 -16t9 -27t7.5 -36.5t6 -50
t5.5 -62.5t5.5 -79q3 -44 7 -138h10q15 0 24.5 -7t13.5 -23.5t5.5 -28.5t2 -39t1.5 -38zM401 518q-78 -138 -174 -342q128 14 181 18q2 106 2 179q0 109 -1 152q-4 0 -8 -7z" />
    <glyph glyph-name="AE" unicode="&#xc6;" horiz-adv-x="914" 
d="M789 75q15 0 26 -4t19.5 -16t13 -21t13.5 -31.5t15 -35.5q-19 0 -71.5 -22t-120.5 -44t-124 -22q-87 0 -148.5 54t-74.5 118q-41 -74 -91.5 -118.5t-95.5 -44.5q-74 0 -111.5 65t-37.5 169q0 84 24.5 174t66.5 166.5t107.5 126t139.5 49.5q91 0 128 -75q65 22 150 40
t135 18q46 0 83 -47q41 -32 41 -79q0 -27 -33.5 -81t-51.5 -54q-6 0 -19 19.5t-13 32.5q0 15 11.5 49.5t26.5 62.5q-52 -11 -160 -40.5l-127 -34.5q-25 -90 -43 -188q69 15 134 15q9 0 16 -1t12 -2.5t9 -6.5l6.5 -8t6 -13l5.5 -15.5t6.5 -21l7.5 -25.5q-140 -25 -222 -58
q-3 -33 -3 -61q0 -108 56 -108q38 0 144 59.5t144 59.5zM192 4q41 0 97 81t84 181q-3 -1 -10 -1q-8 0 -23 6q19 27 35 88t16 116q0 107 -61 107q-31 0 -67 -35t-68 -92t-53 -141t-21 -173q0 -68 19.5 -102.5t51.5 -34.5z" />
    <glyph glyph-name="Ccedilla" unicode="&#xc7;" horiz-adv-x="602" 
d="M268 -128q0 -8 14 -13t31 -8.5t31 -16.5t14 -35q0 -46 -36 -74t-77 -28q-27 0 -44.5 14t-17.5 40q0 19 7.5 35t15.5 16q1 0 5 -2q0 -1 -0.5 -2.5t-0.5 -2.5q0 -26 40 -26q22 0 42 8.5t20 19.5q0 6 -15 11.5t-32.5 9.5t-32.5 13t-15 22q0 21 22 38q-103 16 -156 92.5
t-53 178.5q0 105 41 213t108 179.5t136 71.5q15 0 23 -3q81 -32 106.5 -64.5t25.5 -113.5q0 -87 -39 -165.5t-81 -78.5q-13 0 -29 16q25 49 40.5 120.5t15.5 132.5q0 104 -41 104q-35 0 -80.5 -72.5t-79 -182t-33.5 -203.5q0 -69 21 -112t64 -43q34 0 80 30l88.5 60t68.5 30
q27 0 46 -24t41 -85q-13 0 -58.5 -21t-103.5 -42.5t-102 -21.5q-19 -4 -20 -15z" />
    <glyph glyph-name="Egrave" unicode="&#xc8;" horiz-adv-x="624" 
d="M401 657q-33 0 -66 46t-33 97q0 45 44 45q11 0 47 -6q1 -74 33 -171q-15 -11 -25 -11zM499 75q15 0 26 -4t19.5 -16t13 -21t13.5 -31.5t15 -35.5q-19 0 -71.5 -22t-120.5 -44t-124 -22q-96 0 -160.5 65t-64.5 130q0 37 11 87q-6 24 -6 38q0 13 23 28q29 96 85 222
q-31 14 -63 36t-32 34q0 18 158 60t241 42q46 0 83 -47q41 -32 41 -79q0 -27 -33.5 -81t-51.5 -54q-6 0 -19 19.5t-13 32.5q0 15 11.5 49.5t26.5 62.5q-52 -11 -160 -40.5l-127 -34.5q-25 -90 -43 -188q80 15 134 15q9 0 16 -1t12 -2.5t9 -6.5l6.5 -8t6 -13l5.5 -15.5
t6.5 -21l7.5 -25.5q-140 -25 -222 -58q-3 -33 -3 -61q0 -108 56 -108q38 0 144 59.5t144 59.5z" />
    <glyph glyph-name="Eacute" unicode="&#xc9;" horiz-adv-x="624" 
d="M469 801q0 -50 -37 -95.5t-70 -45.5q-13 0 -27 13q17 42 28.5 84t14.5 63l3 21q34 2 37 2q51 0 51 -42zM499 75q15 0 26 -4t19.5 -16t13 -21t13.5 -31.5t15 -35.5q-19 0 -71.5 -22t-120.5 -44t-124 -22q-96 0 -160.5 65t-64.5 130q0 37 11 87q-6 24 -6 38q0 13 23 28
q29 96 85 222q-31 14 -63 36t-32 34q0 18 158 60t241 42q46 0 83 -47q41 -32 41 -79q0 -27 -33.5 -81t-51.5 -54q-6 0 -19 19.5t-13 32.5q0 15 11.5 49.5t26.5 62.5q-52 -11 -160 -40.5l-127 -34.5q-25 -90 -43 -188q80 15 134 15q9 0 16 -1t12 -2.5t9 -6.5l6.5 -8t6 -13
l5.5 -15.5t6.5 -21l7.5 -25.5q-140 -25 -222 -58q-3 -33 -3 -61q0 -108 56 -108q38 0 144 59.5t144 59.5z" />
    <glyph glyph-name="Ecircumflex" unicode="&#xca;" horiz-adv-x="624" 
d="M308 657q-36 0 -56 49q32 13 56 38t34.5 47t25 38.5t32.5 16.5q16 0 37 -8q7 -52 32.5 -83t52.5 -44q-24 -47 -59 -47q-27 0 -47.5 23t-22.5 58q-10 -35 -35 -61.5t-50 -26.5zM499 75q15 0 26 -4t19.5 -16t13 -21t13.5 -31.5t15 -35.5q-19 0 -71.5 -22t-120.5 -44
t-124 -22q-96 0 -160.5 65t-64.5 130q0 37 11 87q-6 24 -6 38q0 13 23 28q29 96 85 222q-31 14 -63 36t-32 34q0 18 158 60t241 42q46 0 83 -47q41 -32 41 -79q0 -27 -33.5 -81t-51.5 -54q-6 0 -19 19.5t-13 32.5q0 15 11.5 49.5t26.5 62.5q-52 -11 -160 -40.5l-127 -34.5
q-25 -90 -43 -188q80 15 134 15q9 0 16 -1t12 -2.5t9 -6.5l6.5 -8t6 -13l5.5 -15.5t6.5 -21l7.5 -25.5q-140 -25 -222 -58q-3 -33 -3 -61q0 -108 56 -108q38 0 144 59.5t144 59.5z" />
    <glyph glyph-name="Edieresis" unicode="&#xcb;" horiz-adv-x="624" 
d="M444 665q-35 0 -35 72q0 43 9 94q44 17 71 17q35 0 35 -45q0 -50 -25.5 -94t-54.5 -44zM306 659q-34 0 -34 70q0 43 10 90q41 17 67 17q34 0 34 -44q0 -47 -24.5 -90t-52.5 -43zM499 75q15 0 26 -4t19.5 -16t13 -21t13.5 -31.5t15 -35.5q-19 0 -71.5 -22t-120.5 -44
t-124 -22q-96 0 -160.5 65t-64.5 130q0 37 11 87q-6 24 -6 38q0 13 23 28q29 96 85 222q-31 14 -63 36t-32 34q0 18 158 60t241 42q46 0 83 -47q41 -32 41 -79q0 -27 -33.5 -81t-51.5 -54q-6 0 -19 19.5t-13 32.5q0 15 11.5 49.5t26.5 62.5q-52 -11 -160 -40.5l-127 -34.5
q-25 -90 -43 -188q80 15 134 15q9 0 16 -1t12 -2.5t9 -6.5l6.5 -8t6 -13l5.5 -15.5t6.5 -21l7.5 -25.5q-140 -25 -222 -58q-3 -33 -3 -61q0 -108 56 -108q38 0 144 59.5t144 59.5z" />
    <glyph glyph-name="Igrave" unicode="&#xcc;" horiz-adv-x="380" 
d="M234 660q-33 0 -66 46t-33 97q0 45 44 45q11 0 47 -6q1 -74 33 -171q-15 -11 -25 -11zM360 505q-5 0 -14.5 0.5t-14.5 0.5q-15 0 -56.5 -1.5t-56.5 -1.5q12 -11 12 -30q0 -56 -26 -414q13 1 32 1q34 0 46 -29.5t23 -103.5q-5 0 -14.5 0.5t-14.5 0.5q-28 0 -113 -3
t-101 -3q-18 0 -30.5 8t-20 25t-10.5 31.5t-7 39.5q48 14 139 25q-29 16 -29 45q0 34 30 209.5t33 195.5q-13 0 -30 -0.5t-20 -0.5q-35 0 -46.5 18t-23.5 74q20 8 113.5 21t129.5 13q30 0 43 -26.5t27 -94.5z" />
    <glyph glyph-name="Iacute" unicode="&#xcd;" horiz-adv-x="380" 
d="M302 804q0 -50 -37 -95.5t-70 -45.5q-13 0 -27 13q17 42 28.5 84t14.5 63l3 21q34 2 37 2q51 0 51 -42zM360 505q-5 0 -14.5 0.5t-14.5 0.5q-15 0 -56.5 -1.5t-56.5 -1.5q12 -11 12 -30q0 -56 -26 -414q13 1 32 1q34 0 46 -29.5t23 -103.5q-5 0 -14.5 0.5t-14.5 0.5
q-28 0 -113 -3t-101 -3q-18 0 -30.5 8t-20 25t-10.5 31.5t-7 39.5q48 14 139 25q-29 16 -29 45q0 34 30 209.5t33 195.5q-13 0 -30 -0.5t-20 -0.5q-35 0 -46.5 18t-23.5 74q20 8 113.5 21t129.5 13q30 0 43 -26.5t27 -94.5z" />
    <glyph glyph-name="Icircumflex" unicode="&#xce;" horiz-adv-x="380" 
d="M141 660q-36 0 -56 49q32 13 56 38t34.5 47t25 38.5t32.5 16.5q16 0 37 -8q7 -52 32.5 -83t52.5 -44q-24 -47 -59 -47q-27 0 -47.5 23t-22.5 58q-10 -35 -35 -61.5t-50 -26.5zM360 505q-5 0 -14.5 0.5t-14.5 0.5q-15 0 -56.5 -1.5t-56.5 -1.5q12 -11 12 -30
q0 -56 -26 -414q13 1 32 1q34 0 46 -29.5t23 -103.5q-5 0 -14.5 0.5t-14.5 0.5q-28 0 -113 -3t-101 -3q-18 0 -30.5 8t-20 25t-10.5 31.5t-7 39.5q48 14 139 25q-29 16 -29 45q0 34 30 209.5t33 195.5q-13 0 -30 -0.5t-20 -0.5q-35 0 -46.5 18t-23.5 74q20 8 113.5 21
t129.5 13q30 0 43 -26.5t27 -94.5z" />
    <glyph glyph-name="Idieresis" unicode="&#xcf;" horiz-adv-x="380" 
d="M277 668q-35 0 -35 72q0 43 9 94q44 17 71 17q35 0 35 -45q0 -50 -25.5 -94t-54.5 -44zM139 662q-34 0 -34 70q0 42 10 90q41 17 67 17q34 0 34 -44q0 -47 -24.5 -90t-52.5 -43zM360 505q-5 0 -14.5 0.5t-14.5 0.5q-15 0 -56.5 -1.5t-56.5 -1.5q12 -11 12 -30
q0 -56 -26 -414q13 1 32 1q34 0 46 -29.5t23 -103.5q-5 0 -14.5 0.5t-14.5 0.5q-28 0 -113 -3t-101 -3q-18 0 -30.5 8t-20 25t-10.5 31.5t-7 39.5q48 14 139 25q-29 16 -29 45q0 34 30 209.5t33 195.5q-13 0 -30 -0.5t-20 -0.5q-35 0 -46.5 18t-23.5 74q20 8 113.5 21
t129.5 13q30 0 43 -26.5t27 -94.5z" />
    <glyph glyph-name="Eth" unicode="&#xd0;" horiz-adv-x="740" 
d="M418 612q55 0 101 -16t85 -50t61 -94.5t22 -142.5q0 -91 -44 -171t-114.5 -133t-157 -83.5t-172.5 -30.5q-50 0 -99.5 44.5t-49.5 79.5q0 15 6 25t12 12l5 3q0 -44 89 -44q47 0 95 8q-50 40 -50 90q0 25 12 111h-23q-22 0 -30.5 15.5t-18.5 71.5q15 0 88 15
q20 108 27 143q-175 -36 -274 -98q-4 0 -4 9q0 18 13 56.5t21 43.5q76 50 187.5 93t212.5 43zM297 28q141 37 236.5 133t95.5 186q0 61 -51 99t-154 38q-42 0 -85 -6q-1 -15 -6 -62.5l-8 -77.5q14 2 17 2q20 0 29.5 -22.5t18.5 -89.5q-30 0 -77 -3q-15 -146 -16 -197z" />
    <glyph glyph-name="Ntilde" unicode="&#xd1;" horiz-adv-x="582" 
d="M223 676q-26 0 -41 26t-15 50q0 16 7 16q8 -6 25 -6q26 0 97.5 14t92.5 14q26 0 41 -27.5t15 -56.5q0 -22 -8 -22q-8 8 -37 8q-25 0 -89.5 -8t-87.5 -8zM486 682q24 0 30.5 -25t6.5 -96q0 -53 -2 -107t-7 -136.5t-17 -151t-30 -132.5t-48 -100.5t-68 -36.5
q-30 0 -56.5 20t-48 59t-38 78.5t-32.5 99t-25 98t-21 95.5q-1 3 -1.5 4t-1.5 0v-59q0 -77 -3.5 -134t-13.5 -110t-30 -81t-49 -28q-25 0 -42 15q11 9 28 65.5t35 161.5t26 222q-17 2 -26.5 9t-14 29t-5 42t-0.5 70v7q79 23 111 23q28 0 38.5 -17t20.5 -65
q100 -462 164 -462q52 0 93 363h-2q-37 0 -37 42q0 110 38 233q18 5 28 5z" />
    <glyph glyph-name="Ograve" unicode="&#xd2;" horiz-adv-x="622" 
d="M349 661q-33 0 -66 46t-33 97q0 45 44 45q11 0 47 -6q1 -74 33 -171q-15 -11 -25 -11zM315 627q131 0 184.5 -68t53.5 -215q0 -105 -28.5 -191t-74 -139.5t-100 -82t-110.5 -28.5q-90 0 -151.5 71.5t-61.5 202.5q0 89 26.5 175.5t63 136.5t68.5 50q8 0 13 -4
q37 92 117 92zM285 -20q68 0 117.5 90.5t49.5 261.5q0 102 -25.5 171t-71.5 69q-51 0 -78.5 -70t-27.5 -168q0 -150 49 -216q-12 -8 -25 -8q-41 0 -70.5 82.5t-29.5 185.5q0 69 14 121q-57 -89 -57 -241q0 -115 40 -196.5t115 -81.5z" />
    <glyph glyph-name="Oacute" unicode="&#xd3;" horiz-adv-x="622" 
d="M417 805q0 -50 -37 -95.5t-70 -45.5q-13 0 -27 13q17 42 28.5 84t14.5 63l3 21q34 2 37 2q51 0 51 -42zM315 627q131 0 184.5 -68t53.5 -215q0 -105 -28.5 -191t-74 -139.5t-100 -82t-110.5 -28.5q-90 0 -151.5 71.5t-61.5 202.5q0 89 26.5 175.5t63 136.5t68.5 50
q8 0 13 -4q37 92 117 92zM285 -20q68 0 117.5 90.5t49.5 261.5q0 102 -25.5 171t-71.5 69q-51 0 -78.5 -70t-27.5 -168q0 -150 49 -216q-12 -8 -25 -8q-41 0 -70.5 82.5t-29.5 185.5q0 69 14 121q-57 -89 -57 -241q0 -115 40 -196.5t115 -81.5z" />
    <glyph glyph-name="Ocircumflex" unicode="&#xd4;" horiz-adv-x="622" 
d="M256 661q-36 0 -56 49q32 13 56 38t34.5 47t25 38.5t32.5 16.5q16 0 37 -8q7 -52 32.5 -83t52.5 -44q-24 -47 -59 -47q-27 0 -47.5 23t-22.5 58q-10 -35 -35 -61.5t-50 -26.5zM315 627q131 0 184.5 -68t53.5 -215q0 -105 -28.5 -191t-74 -139.5t-100 -82t-110.5 -28.5
q-90 0 -151.5 71.5t-61.5 202.5q0 89 26.5 175.5t63 136.5t68.5 50q8 0 13 -4q37 92 117 92zM285 -20q68 0 117.5 90.5t49.5 261.5q0 102 -25.5 171t-71.5 69q-51 0 -78.5 -70t-27.5 -168q0 -150 49 -216q-12 -8 -25 -8q-41 0 -70.5 82.5t-29.5 185.5q0 69 14 121
q-57 -89 -57 -241q0 -115 40 -196.5t115 -81.5z" />
    <glyph glyph-name="Otilde" unicode="&#xd5;" horiz-adv-x="622" 
d="M242 679q-26 0 -41 26t-15 50q0 16 7 16q8 -6 25 -6q26 0 97.5 14t92.5 14q26 0 41 -27.5t15 -56.5q0 -22 -8 -22q-8 8 -37 8q-25 0 -89.5 -8t-87.5 -8zM315 627q131 0 184.5 -68t53.5 -215q0 -105 -28.5 -191t-74 -139.5t-100 -82t-110.5 -28.5q-90 0 -151.5 71.5
t-61.5 202.5q0 89 26.5 175.5t63 136.5t68.5 50q8 0 13 -4q37 92 117 92zM285 -20q68 0 117.5 90.5t49.5 261.5q0 102 -25.5 171t-71.5 69q-51 0 -78.5 -70t-27.5 -168q0 -150 49 -216q-12 -8 -25 -8q-41 0 -70.5 82.5t-29.5 185.5q0 69 14 121q-57 -89 -57 -241
q0 -115 40 -196.5t115 -81.5z" />
    <glyph glyph-name="Odieresis" unicode="&#xd6;" horiz-adv-x="622" 
d="M392 669q-35 0 -35 72q0 43 9 94q44 17 71 17q35 0 35 -45q0 -50 -25.5 -94t-54.5 -44zM254 663q-34 0 -34 70q0 43 10 90q41 17 67 17q34 0 34 -44q0 -47 -24.5 -90t-52.5 -43zM315 627q131 0 184.5 -68t53.5 -215q0 -105 -28.5 -191t-74 -139.5t-100 -82t-110.5 -28.5
q-90 0 -151.5 71.5t-61.5 202.5q0 89 26.5 175.5t63 136.5t68.5 50q8 0 13 -4q37 92 117 92zM285 -20q68 0 117.5 90.5t49.5 261.5q0 102 -25.5 171t-71.5 69q-51 0 -78.5 -70t-27.5 -168q0 -150 49 -216q-12 -8 -25 -8q-41 0 -70.5 82.5t-29.5 185.5q0 69 14 121
q-57 -89 -57 -241q0 -115 40 -196.5t115 -81.5z" />
    <glyph glyph-name="multiply" unicode="&#xd7;" horiz-adv-x="292" 
d="M268 343q-15 -12 -69 -74q42 -33 42 -50q0 -13 -9.5 -27t-39.5 -48q-16 22 -54 54q-52 -57 -61 -57q-12 0 -45 27q17 17 57 71q-47 40 -47 65q0 5 1 9t3.5 9.5t5 9.5l8.5 13.5t10 17.5q19 -20 72 -55q52 65 71 65t55 -30z" />
    <glyph glyph-name="Oslash" unicode="&#xd8;" horiz-adv-x="622" 
d="M446 602q58 -29 82.5 -92t24.5 -166q0 -105 -28.5 -191t-74 -139.5t-100 -82t-110.5 -28.5q-13 0 -19 1q-23 -75 -25 -93q-29 16 -35.5 24t-5.5 27q0 6 12 54q-63 25 -101.5 91.5t-38.5 169.5q0 89 26.5 175.5t63 136.5t68.5 50q11 0 23 -12q-37 -40 -57.5 -113.5
t-20.5 -155.5q0 -161 67 -237q92 309 184 544q-11 7 -26 7q-53 0 -86 -67t-33 -161q-44 0 -44 79q0 70 35.5 137t87.5 67q48 0 87 -9q9 23 31 74q18 -12 22 -19.5t4 -18.5q-2 -16 -13 -52zM285 -20q68 0 117.5 90.5t49.5 261.5q0 117 -32 186l-173 -531q15 -7 38 -7z" />
    <glyph glyph-name="Ugrave" unicode="&#xd9;" horiz-adv-x="676" 
d="M421 662q-33 0 -66 46t-33 97q0 45 44 45q11 0 47 -6q1 -74 33 -171q-15 -11 -25 -11zM564 662q27 0 41.5 -64.5t14.5 -165.5q0 -56 -4.5 -116.5t-20 -142t-40.5 -143t-72.5 -105t-109.5 -43.5q-231 0 -231 234q0 124 69 317q-53 -39 -94 -39q-32 0 -68 39t-36 65
q0 7 4 11q35 0 121 23.5t88 23.5q14 0 49 -29t35 -56q0 -4 -13 -68t-26 -151t-13 -147q0 -140 89 -140q72 0 136.5 125t79.5 365q-48 5 -48 68q0 45 17 133q14 6 32 6z" />
    <glyph glyph-name="Uacute" unicode="&#xda;" horiz-adv-x="676" 
d="M489 806q0 -50 -37 -95.5t-70 -45.5q-13 0 -27 13q17 42 28.5 84t14.5 63l3 21q34 2 37 2q51 0 51 -42zM564 662q27 0 41.5 -64.5t14.5 -165.5q0 -56 -4.5 -116.5t-20 -142t-40.5 -143t-72.5 -105t-109.5 -43.5q-231 0 -231 234q0 124 69 317q-53 -39 -94 -39
q-32 0 -68 39t-36 65q0 7 4 11q35 0 121 23.5t88 23.5q14 0 49 -29t35 -56q0 -4 -13 -68t-26 -151t-13 -147q0 -140 89 -140q72 0 136.5 125t79.5 365q-48 5 -48 68q0 45 17 133q14 6 32 6z" />
    <glyph glyph-name="Ucircumflex" unicode="&#xdb;" horiz-adv-x="676" 
d="M328 662q-36 0 -56 49q32 13 56 38t34.5 47t25 38.5t32.5 16.5q16 0 37 -8q7 -52 32.5 -83t52.5 -44q-24 -47 -59 -47q-27 0 -47.5 23t-22.5 58q-10 -35 -35 -61.5t-50 -26.5zM564 662q27 0 41.5 -64.5t14.5 -165.5q0 -56 -4.5 -116.5t-20 -142t-40.5 -143t-72.5 -105
t-109.5 -43.5q-231 0 -231 234q0 124 69 317q-53 -39 -94 -39q-32 0 -68 39t-36 65q0 7 4 11q35 0 121 23.5t88 23.5q14 0 49 -29t35 -56q0 -4 -13 -68t-26 -151t-13 -147q0 -140 89 -140q72 0 136.5 125t79.5 365q-48 5 -48 68q0 45 17 133q14 6 32 6z" />
    <glyph glyph-name="Udieresis" unicode="&#xdc;" horiz-adv-x="676" 
d="M464 670q-35 0 -35 72q0 43 9 94q44 17 71 17q35 0 35 -45q0 -50 -25.5 -94t-54.5 -44zM326 664q-34 0 -34 70q0 42 10 90q41 17 67 17q34 0 34 -44q0 -47 -24.5 -90t-52.5 -43zM564 662q27 0 41.5 -64.5t14.5 -165.5q0 -56 -4.5 -116.5t-20 -142t-40.5 -143t-72.5 -105
t-109.5 -43.5q-231 0 -231 234q0 124 69 317q-53 -39 -94 -39q-32 0 -68 39t-36 65q0 7 4 11q35 0 121 23.5t88 23.5q14 0 49 -29t35 -56q0 -4 -13 -68t-26 -151t-13 -147q0 -140 89 -140q72 0 136.5 125t79.5 365q-48 5 -48 68q0 45 17 133q14 6 32 6z" />
    </font>
</defs>
</svg>
